<?xml version="1.0" encoding="utf-8"?>
<!-- Generator: Adobe Illustrator 21.0.0, SVG Export Plug-In . SVG Version: 6.00 Build 0)  -->
<svg version="1.1" id="Layer_1" xmlns="http://www.w3.org/2000/svg" xmlns:xlink="http://www.w3.org/1999/xlink" x="0px" y="0px"
	 viewBox="0 0 209.7 208.4" style="enable-background:new 0 0 209.7 208.4;" xml:space="preserve">
<style type="text/css">
	.st0{fill:#81D989;}
	.st1{fill:#81D889;}
	.st2{fill:#81D88A;}
	.st3{fill:#7FD687;}
	.st4{fill:#447248;}
	.st5{fill:#3E6842;}
	.st6{fill:#84CA9A;}
	.st7{fill:#38774D;}
	.st8{fill:#94E992;}
	.st9{fill:#77E5A0;}
	.st10{fill:#7EE69D;}
	.st11{fill:#81E79B;}
	.st12{fill:#8DE896;}
	.st13{fill:#7BE69E;}
	.st14{fill:#86E799;}
	.st15{fill:#79E59F;}
	.st16{fill:#84E79A;}
	.st17{fill:#88E798;}
	.st18{fill:#92E993;}
	.st19{fill:#90E894;}
	.st20{fill:#90E994;}
	.st21{fill:#7DE69D;}
	.st22{fill:#8AE897;}
	.st23{fill:#7FE69C;}
	.st24{fill:#92E994;}
	.st25{fill:#7AE69F;}
	.st26{fill:#83E79B;}
	.st27{fill:#8EE895;}
	.st28{fill:#81E69B;}
	.st29{fill:#8CE896;}
	.st30{fill:#82E79B;}
	.st31{fill:#85E79A;}
	.st32{fill:#59AD75;}
	.st33{fill:#59AE75;}
	.st34{fill:#79857B;}
	.st35{fill:#6EBC87;}
	.st36{fill:#408356;}
	.st37{fill:#070D08;}
	.st38{fill:#519F6A;}
	.st39{fill:#58AA73;}
	.st40{fill:#519F6B;}
	.st41{fill:#3F8255;}
	.st42{fill:#8FE591;}
	.st43{fill:#79817B;}
	.st44{fill:#74DC98;}
	.st45{fill:#78807B;}
	.st46{fill:#79807B;}
	.st47{fill:#7ADD95;}
	.st48{fill:#76DD98;}
	.st49{fill:#509E68;}
	.st50{fill:#75DC98;}
	.st51{fill:#76DD97;}
	.st52{fill:#88E595;}
	.st53{fill:#7BDD95;}
	.st54{fill:#59AD74;}
	.st55{fill:#458A5A;}
	.st56{fill:#80DE93;}
	.st57{fill:#2F643E;}
	.st58{fill:#438859;}
	.st59{fill:#3F8155;}
	.st60{fill:#2F6842;}
	.st61{fill:#2A5F3B;}
	.st62{fill:#5FAF78;}
	.st63{fill:#5AA873;}
	.st64{fill:#6EBB87;}
	.st65{fill:#61B27B;}
	.st66{fill:#83DE92;}
	.st67{fill:#193823;}
	.st68{fill:#4B815D;}
	.st69{fill:#234F30;}
	.st70{fill:#254F33;}
	.st71{fill:#57AA72;}
	.st72{fill:#5AAD75;}
	.st73{fill:#57AB73;}
	.st74{fill:#58AB72;}
	.st75{fill:#5EB179;}
	.st76{fill:#63B47D;}
	.st77{fill:#63B57D;}
	.st78{fill:#37744B;}
	.st79{fill:#3D7F52;}
</style>
<g>
	<path class="st0" d="M3,86c0.1-2.2,0.7-4.4,1.2-6.5c1.6-6.7,3.9-13.1,6.7-19.3c2.2-4.7,4.7-9.1,7.5-13.4c2.7-4,5.6-7.9,8.9-11.6
		c2.7-3,5.5-6,8.5-8.7c6.2-5.5,12.9-10.3,20.2-14.2c5.5-3,11.2-5.4,17.2-7.4c5-1.7,10.1-2.8,15.3-3.7c8.3-1.5,16.6-1.4,24.9-1.1
		c7.3,0.3,14.4,1.8,21.4,3.8c7.1,2,13.9,4.9,20.5,8.4c5.1,2.8,9.9,5.9,14.4,9.5c3.9,3.1,7.6,6.3,11.1,9.9c3.7,3.8,7.1,7.9,10.1,12.3
		c3.1,4.4,5.9,9.1,8.3,13.9c3.6,7.3,6.4,14.9,8.2,22.9c0.8,3.5,1.4,7,1.8,10.6c0.8,7.1,0.4,14.3,0.4,21.4c0,4.1-0.9,8.1-1.7,12.2
		c-0.7,3.5-1.6,7-2.6,10.4c-1.1,3.6-2.5,7.1-4,10.5c-2.7,6.1-5.9,11.8-9.6,17.3c-2.4,3.4-4.9,6.7-7.7,9.9c-1.4,1.6-2.9,3.3-4.5,4.8
		c-5.5,5.5-11.5,10.4-18.1,14.5c-5.8,3.6-11.9,6.7-18.3,9.1c-5.3,2-10.7,3.7-16.2,4.8c-3.6,0.7-7.2,1.5-10.9,1.6
		c-0.7,0-1.5,0.1-2.1,0.5c-5.4,0-10.9,0-16.3,0c-2.4-0.4-4.8-0.3-7.1-0.6c-8.6-1.3-17-3.6-25-6.9c-9.9-4.1-19-9.7-27.2-16.6
		c-6.9-5.8-12.9-12.5-18.2-19.8c-1.5-2.1-2.8-4.3-4.2-6.4c-0.3-0.5-0.7-1.1-0.7-1.7c0.4-0.7,1.2-1.1,1.5-1.8
		c0.2-0.4,0.4-0.9,0.3-1.4c0-0.7,0.2-1.4,0.2-2.1c0.1-1.5,0.6-1.9,2.2-1.8c1.5,3.7,3.8,7,6,10.3c3.5,5.2,7.6,10.1,12.1,14.5
		c6.2,6,13,11.2,20.6,15.4c7.8,4.3,16,7.8,24.8,9.8c4.2,1,8.5,1.6,12.9,2.1c5.5,0.7,11,0.2,16.5,0.4c0.8,0,1.7-0.3,2.5-0.3
		c2.8-0.3,5.6-0.7,8.4-1.2c2.6-0.4,5.1-1,7.7-1.7c2.2-0.6,4.4-1.5,6.6-2.1c2.1-0.6,4.2-1.5,6.2-2.5c0.5-0.3,1.1-0.5,1.7-0.7
		c3.8-1.6,7.4-3.6,10.9-5.7c0.6-0.4,1.2-0.7,1.8-1c2.1-1.3,4.1-2.9,6.1-4.3c0.4-0.3,0.7-0.5,1.1-0.7c1.1-0.8,2.2-1.6,3.2-2.6
		c1.6-1.4,3.3-2.6,4.6-4.3c0.2-0.3,0.6-0.5,1-0.7c1.6-1.4,2.9-3,4.4-4.5c0.3-0.3,0.5-0.7,0.8-1c1.9-2.1,3.5-4.3,5.2-6.5
		c2.3-3.3,4.6-6.7,6.5-10.3c2.7-4.6,4.9-9.4,6.6-14.4c0.6-2.6,1.9-5,2.5-7.6c0.5-2.1,1.1-4.2,1.4-6.3c1.1-5.5,1.7-11,1.5-16.6
		c0.4-8.4-0.2-16.7-2.1-24.9c-1.5-6.6-3.9-12.9-6.8-19c-3.6-7.6-8.1-14.7-13.5-21.2c-7.3-8.8-16-16-26-21.7
		c-8.1-4.7-16.6-8.3-25.8-10.5c-4.7-1.1-9.4-1.9-14.2-2.2c-1.1-0.1-2.1-0.3-3.2-0.2c-3.3,0-6.6,0.1-9.9,0c-2.4,0-4.8,0.2-7.1,0.5
		c-3.8,0.4-7.5,1.1-11.2,1.9c-1.9,0.3-3.8,1-5.7,1.6c-1.7,0.4-3.3,1.1-5,1.7c-3.1,1-6,2.5-9,3.8c-2.4,1.1-4.7,2.5-7,3.8
		c-2.3,1.3-4.5,2.8-6.7,4.3c-1.8,1.3-3.6,2.6-5.3,4c-1.3,1-2.5,2.2-3.8,3.2c-1.3,1.3-2.7,2.5-4,3.8c-0.9,1.3-2.1,2.2-3.1,3.4
		c-1.3,1.6-2.8,3.1-4,4.8c-1.6,2.1-3.3,4.2-4.6,6.4c-2.3,3.4-4.3,7-6.2,10.6c-1.9,3.9-3.6,7.8-5,11.9c-1.1,3.3-2.3,6.5-2.7,9.9
		c0,0.5-0.3,0.8-0.4,1.3c-0.4,2.2-0.4,2.3-2.7,1.9C6,85.6,4.5,86.1,3,86z"/>
	<path class="st1" d="M2.2,117.2c-0.3-1.1-0.4-2.2-0.5-3.3c0-0.4,0.2-0.9-0.2-1.3c0-2.5,0-5,0-7.4c0.1-0.1,0.3-0.1,0.4-0.1
		c0.2,0.1,0.3,0.3,0.5,0.5c0.2,0.5,0.2,1,0.2,1.5c0,2.8,0,5.7,0,8.5C2.6,116.2,2.7,116.8,2.2,117.2z"/>
	<path class="st2" d="M1.5,95.6C2,94.5,1.7,93.2,2,92c0.1-0.3-0.1-0.7,0.2-1c0.3,0.3,0.4,0.7,0.4,1.1c0,2.9,0,5.9,0,8.8
		c0,0.2,0,0.5-0.1,0.7C2.4,101.8,2.2,102,2,102c-0.2,0-0.3-0.1-0.4-0.1C1.5,99.8,1.5,97.7,1.5,95.6z"/>
	<path class="st3" d="M1.5,104.3c0-0.5,0-1,0-1.4c0.2-0.1,0.4-0.2,0.6-0.1c0.5,0.5,0.5,1,0,1.6C1.9,104.4,1.7,104.4,1.5,104.3z"/>
	<path class="st4" d="M2,102.9c-0.2,0-0.3,0-0.5,0c0-0.3,0-0.6,0-1c0.1,0,0.2,0,0.3,0c0.2,0.2,0.4,0.4,0.5,0.7
		C2.3,102.8,2.2,102.9,2,102.9z"/>
	<path class="st5" d="M1.5,104.3c0.2,0,0.3,0,0.5,0c0.2-0.1,0.3,0.1,0.3,0.2c-0.1,0.3-0.3,0.5-0.5,0.8l-0.1,0l-0.1,0
		C1.5,104.9,1.5,104.6,1.5,104.3z"/>
	<path class="st6" d="M2.2,101.9c0-3.6,0-7.2,0-10.8c0.1-0.6-0.2-1.2,0.2-1.7c0.4,0.1,0.8,0.2,1.2,0.1c5.1-1.2,9.9-0.1,14.5,2.3
		c1.4,0.7,3,1.2,4.2,2.3c1.3,0.9,1.4,1,0.3,2.2c-0.4,0.4-0.5,0.9-0.7,1.5c-0.4,1.3-1.8,1.3-2.7,1.8c-0.6,0.4-1,0-1.4-0.4
		c-3.1-2.7-7.4-2.6-10.3,0.4c-1.4,1.4-3,2.3-5.1,2.3C2.3,101.9,2.3,101.9,2.2,101.9z"/>
	<path class="st7" d="M22.2,94.4c-2.5-1.8-5.4-3-8.3-4.1c-3.5-1.3-7.1-1.4-10.6-0.4c-0.6,0.2-0.8,0-0.8-0.6C2.5,88.2,2.8,87.1,3,86
		c1.6-0.8,3.4-0.8,5.1-0.4c1.2,0.3,1.7,0.1,1.6-1.2c0-0.3,0.2-0.5,0.2-0.8c1.7-0.6,3.5-0.6,5.2,0.1c1,0.5,2,1.2,2.8,2
		c0.2,0.3,0.3,0.7,0.1,1c-0.5,1,0.1,1.3,0.9,1.7c1.9,0.9,3.7,1.9,5.4,3.1c0.4,0.3,0.8,0.6,0.9,1.2c-0.2,2.5-0.2,2.5-2.4,1.8
		C22.6,94.5,22.4,94.6,22.2,94.4z"/>
	<path class="st8" d="M111.5,6.6c3.7,0.1,7.4,0.6,11,1.2c4.9,0.8,9.7,1.9,14.3,3.6c9.6,3.5,18.6,8.1,26.9,14.2
		c4.4,3.3,8.6,6.8,12.4,10.8c3.8,4,7.3,8.3,10.4,12.9c3.1,4.8,6,9.7,8.4,14.9c2.3,5.1,4.3,10.3,5.6,15.7c1.1,4.4,1.9,8.9,2.4,13.4
		c0.5,4.4,0.2,8.8,0.3,13.2c-0.7,0.2-1.2-0.4-1.8-0.6c-0.5-1.6-1.7-2.5-3.1-3.1c-3.3-1.5-6.7-3-10.1-4.4c-3-1.2-6-2.2-9-3.2
		c-2.2-0.8-4.6-1.2-6.9-1.9c-0.7-0.2-0.8-0.7-0.6-1.3c0.3-0.9,0.3-1.8,0.9-2.6c0.2-0.3,0.2-0.6,0.1-0.9c0-1.2,0.3-2.5,0-3.7
		c-0.1-1.3-0.7-2.4-1.4-3.4c-0.4-0.4-0.7-1-1-1.5c-1.1-1.7-2.8-2.6-4.7-3.3c-0.4-0.3-0.4-0.8-0.3-1.2c0.2-3.4-0.9-6.4-2.5-9.3
		c-1.1-1.9-1.1-1.9,0.6-3.3c0.3-0.3,0.6-0.5,0.9-0.8c1.1-0.9,1.9-2.1,2.4-3.4c0.3-1,0.4-1.9,0-2.9c-0.2-0.4-0.4-0.8-0.9-0.8
		c-1.3,0-2.5-0.2-3.7,0.3c-0.8,0.4-1.5,1-2.3,1.2c-0.4,0.1-0.8,0.2-1.1,0.4c-0.9,0.4-1.6,0.4-2.1-0.7c-0.2-0.4-0.5-0.5-0.9-0.4
		c-0.8,0.1-1.1-0.4-0.9-1.1c0.3-0.9,0-1.4-0.9-1.8c-1-0.4-1.6-1.3-1.9-2.3c-0.2-0.8-0.6-1.4-1.5-1.5c-0.4,0-0.7-0.2-0.9-0.6
		c-0.1-0.2-0.2-0.5-0.5-0.4c-0.4,0.2-0.9,0.2-1.1-0.2c-0.3-0.7-1-1.3-0.8-2.2c0.2-0.9,0.2-1.3-0.8-0.8c-0.5,0.2-0.7-0.1-0.7-0.5
		c0.1-1-0.5-1.5-1.2-2.1c-1.4-1-2.7-2.1-3.5-3.7c-0.4-0.7-1.1-1.1-1.8-1.3c-1-0.3-1.6-0.8-1.6-2c0.1-1-1.1-1.1-1.4-1.8
		c0-0.9,0.5-1.7,0.5-2.6c0-2.9-2.4-4.9-5.2-4.4c-0.4,0.1-0.7,0.2-1.1,0.2c-0.8-0.3-1.7-0.3-1.7-1.6c0-0.5-0.8-0.8-1.4-1.1
		c-0.8-0.3-1.2-0.8-1.1-1.6c0-0.5,0.1-0.9-0.8-0.7c-0.8,0.2-1.6-0.6-1.2-1.4c0.4-0.9,0-1.2-0.7-1.4c-1.6-0.5-2.4-1.8-3.2-3
		c-0.4-0.5-0.8-0.9-1.3-1.3c-0.5-0.3-0.9-0.8-1-1.4c-0.1-1-1-1.3-1.7-1.6c-1-0.4-1.7-1.1-2.2-2c-0.3-0.6-0.7-1-1.4-1.3
		C112,7.9,111.4,7.4,111.5,6.6z"/>
	<path class="st9" d="M114.6,201.7c-3.5,0.5-7,0.1-10.5,0.3c-4.5,0.2-8.9-0.4-13.3-1c-5.5-0.8-10.9-2-16.2-3.9
		c-9.3-3.3-18-7.7-26-13.5c-3.7-2.6-7.2-5.5-10.4-8.6c-6.2-5.9-11.6-12.5-15.9-19.9c-0.9-1.6-1.8-3.2-2.7-4.8
		c-0.2-0.4-0.5-0.8-0.1-1.2c0-0.2,0.1-0.4,0.3-0.5c0.7-0.5,1.6-0.2,2.4-0.5c1,0,1.7,0.7,2.4,1.2c3.2,2.5,6.9,3.6,10.9,4
		c2.1,0.2,4.2,0.4,6.3-0.1c0.5-0.1,1,0,1.2,0.6c0.1,1,0.1,2,0.2,3.1c0.2,2.2,1.6,3.6,3.2,5c0.2,0.2,0.5,0.3,0.8,0
		c1.4-1.3,3-2.4,3.9-4.2c0.5-0.9,0.3-1.8,0.1-2.7c-0.2-0.8,0-1.7-0.2-2.5c-0.4-1.3-0.2-1.7,1-2.1c3.7-1.2,7-3.2,10.2-5.4
		c0.5-0.4,1-0.9,1.8-0.9c0.2,0,0.4,0.1,0.5,0.3c0.7,1.3,2.3,2,2.9,3.5c0.2,0.6,0.6,0.8,1.2,0.7c0.8-0.1,1.2,0.4,1.4,1.2
		c0.2,1.2,0.7,2.3,1.7,3.1c1.2,0.9,1.9,2.3,2.9,3.5c1.1,1.2,2.1,2.7,3.7,3.4c0.5,0.2,0.5,0.5,0.6,0.9c0.1,1.7,0.2,1.9,1.9,2.3
		c0.4,0.1,0.8,0.3,0.9,0.7c0.6,2,2.5,3.1,3.3,4.9c0.2,0.5,0.8,0.6,1.3,0.8c0.6,0.2,1.2,0.4,1.5,1.1c0.1,0.4,0.5,0.6,0.9,0.8
		c1.3,0.6,2.1,1.8,3.3,2.5c0.3,0.2,0.3,0.5,0.3,0.9c-0.1,1.8,1.1,2.3,2.4,2.7c0.7,0.2,1.1,0.5,0.5,1.1c-0.2,0.3-0.3,0.6,0.1,0.7
		c1.5,0.4,1.9,2,2.9,2.9c0.9,0.7,1.3,1.9,2.6,2.2c0.2,0,0.3,0.2,0.4,0.4c0.4,1.6,2,2.4,2.4,3.9c0,0.1,0.1,0.3,0.2,0.2
		c1.3-0.2,1.5,0.9,2.1,1.6c0.2,0.3,0.5,0.5,0.9,0.5c0.8,0,1.1,0.5,1.2,1.2c0.1,0.8,0.2,1.7,1.5,1.1c0.5-0.2,0.8,0.3,0.7,0.8
		c-0.3,1.1,0.4,1.9,1.1,2.3c1,0.5,1.5,1.4,2.2,2.1c0.7,0.8,0.9,1.9,1.6,2.8C115,201.4,114.7,201.6,114.6,201.7z"/>
	<path class="st10" d="M158,186.8c-2.5,1.4-5,2.9-7.6,4.3c-1.7,0.9-3.4,1.6-5.2,2.4c-1.4-2.3-3.3-4.1-5.3-5.9
		c-0.3-0.2-0.5-0.5-0.7-0.8c-0.5-0.9-0.9-1.9-2.1-2.1c-0.2,0-0.4-0.3-0.5-0.5c-0.6-1.5-2.1-2.3-2.9-3.6c-0.6-0.9-1.1-1.8-2.1-2.2
		c-0.3-0.1-0.5-0.3-0.6-0.5c-1.2-1.8-3.1-3.1-4.3-4.9c-0.8-1.2-1.8-2.4-2.8-3.2c-1.5-1.1-2.4-2.6-3.5-3.9c-0.5-0.6-1.1-1.3-1.9-1.7
		c-0.3-0.1-0.5-0.3-0.6-0.6c-0.6-1.2-1.8-2-2.5-3.2c-0.6-1.2-1.7-2-2.5-3.1c-0.1-0.2-0.3-0.4-0.5-0.5c-1.4-0.4-1.9-1.7-2.8-2.7
		c-2.3-2.6-4.5-5.3-7.2-7.6c-1.3-1.2-2.6-2.6-3.6-4.1c-0.9-1.3-1.8-2.7-3.2-3.7c-1.2-0.8-2.2-2.1-3.1-3.4c-0.8-1.1-1.6-2.3-3-2.7
		c-0.6-0.2-0.6-0.8-0.9-1.2c-1-1.3-1.9-2.7-3.6-3.3c-1.1-0.5-1.3-0.9-0.7-1.9c0.7-1.2,1.2-2.5,1.7-3.8c0.1-1.1-0.3-2.3,0-3.4
		c0.1-0.3,0.4-0.5,0.6-0.5c1.2-0.2,2.1-0.9,3-1.6c0.8,0,1.2,0.7,1.8,1.1c0.9,0.9,2,1.1,3.1,1.5c1.2,0.2,2.4-0.1,3.6,0.2
		c0.4,1,1.1,1.7,2.1,2.2c0.4,0.2,0.6,0.7,0.9,1.1c0.6,0.9,1.2,1.7,2.1,2.2c0.1,0.1,0.3,0.1,0.3,0.2c0.4,1.3,1.7,1.9,2.6,2.8
		c0.8,0.9,1.4,2.1,2.6,2.7c0.5,0.3,0.7,0.8,0.7,1.3c0.1,0.7,0.3,1.4,1.2,1.2c0.2,0,0.6,0.1,0.6,0.3c0.2,0.9,1,1.4,1.4,2.1
		c0.3,0.7,0.7,0.9,1.4,1.1c0.8,0.2,1.4,0.7,1.2,1.6c-0.2,0.7,0.1,1.1,0.8,1.4c0.7,0.3,1.3,0.8,1.8,1.4c0.2,0.3,0.5,0.5,0.9,0.6
		c0.3,0,0.6,0.2,0.8,0.5c0.7,1.6,2.4,2.5,3.1,4.2c0.1,0.2,0.2,0.4,0.4,0.4c1.8,0.4,2.2,2.3,3.3,3.4c0.3,0.3,0.6,0.5,1,0.7
		c0.3,0.1,0.6,0.3,0.7,0.7c0.4,1.9,2,2.7,3.5,3.6c0.4,0.3,0.8,0.5,0.6,1c-0.3,0.7,0.1,1.1,0.6,1.4c0.7,0.4,1.4,0.9,1.8,1.7
		c0.1,0.1,0.2,0.3,0.3,0.3c1.4,0.3,1.8,1.7,2.6,2.6c0.5,0.5,0.8,1.2,1.6,1.3c0.3,0,0.5,0.3,0.6,0.6c0.7,1.9,2.2,3.1,3.9,4.1
		c0.2,0.2,0.6,0.3,0.6,0.6c-0.1,1.1,0.6,1.6,1.3,2.2c2.2,1.8,4,4,6,6.1c0.4,0.4,0.8,0.7,1.4,0.7c0.6,0,1,0.4,0.7,1.1
		c-0.2,0.6,0.1,0.9,0.5,1.3c1,1.1,1.9,2.3,2.9,3.3C157.4,184.8,157.9,185.8,158,186.8z"/>
	<path class="st11" d="M158,186.8c-1-1.2-1.3-2.8-2.9-3.8c-0.9-0.5-1.2-2-2.3-2.6c-0.3-0.2,0-0.6,0.1-0.9c0.3-0.6,0.2-1-0.5-0.9
		c-1.4,0.2-1.8-1-2.5-1.7c-1.2-1.1-2-2.5-3.3-3.5c-1.1-0.8-2-1.9-3-2.9c-0.1-0.1-0.1-0.2-0.1-0.2c0.6-1.3-0.7-1.3-1.3-1.7
		c-0.9-0.6-1.4-1.8-2.4-2.3c-0.4-0.2-0.6-0.8-0.6-1.3c0-0.5-0.2-0.9-0.8-0.7c-0.4,0.1-0.6-0.2-0.8-0.4c-0.5-1-1.6-1.5-1.7-2.7
		c0-0.1-0.1-0.2-0.1-0.2c-1.9-0.1-2.1-2.3-3.7-2.8c-0.6-0.2-1.1-0.7-0.5-1.5c0.3-0.3,0.1-0.5-0.3-0.7c-1.6-0.4-2.3-1.9-3.6-2.8
		c-0.2-0.1-0.2-0.4-0.1-0.7c0.1-0.3,0.1-0.6-0.2-0.7c-0.9-0.3-1.4-0.9-1.9-1.6c-0.4-0.6-1-0.9-0.9-1.7c0-0.4-0.3-0.4-0.6-0.4
		c-1,0-1.5-0.7-1.9-1.4c-0.5-0.9-0.9-1.8-1.9-2.3c-0.4-0.2-0.3-0.6-0.5-0.9c-0.3-0.6-0.5-1.4-1.4-1.1c-0.4,0.1-0.3-0.3-0.4-0.4
		c-0.5-0.7-1.1-1.4-2-1.6c-0.8-0.2-1.1-1-0.9-1.6c0.5-1.2-0.2-1.4-1-1.5c-0.8-0.1-1.4-0.2-1.4-1.2c0-0.3-0.1-0.5-0.4-0.5
		c-0.7-0.1-0.8-0.6-0.8-1.1c0-0.4-0.1-0.9-0.7-0.7c-1.3,0.6-1.3-0.5-1.4-1.1c-0.1-0.8-0.5-1.2-1.1-1.7c-0.9-0.9-2-1.8-2.6-3
		c-0.1-0.2-0.3-0.4-0.4-0.4c-1.2,0.3-1.3-0.4-1.3-1.2c0-0.4-0.4-0.5-0.6-0.7c-0.8-0.5-1.6-1.1-2-2c-0.6-1.3-1.9-1.8-2.9-2.8
		c-0.4-0.4-0.3-0.6,0-0.9c1.2-1.4,1-3,0.7-4.6c-0.4-1.2-0.6-2.4-1.4-3.4c-0.4-0.5-1.1-0.8-0.9-1.6c0.3-0.7,0.5-1.5,0.8-2.2
		c0.2-0.4,0.2-0.9,0.7-1c0.9,1.9,2.1,3.6,3.6,5.1c0.5,0.5,0.7,1.3,1.6,1.4c0.5,0.1,0.7,0.7,0.9,1.2c0.1,0.4,0.1,0.9,0.4,1.1
		c1.4,1.1,2.4,2.6,3.7,3.9c1.2,1.2,2.6,2.1,3.4,3.7c0.6,1.2,1.6,2.5,3.1,3c0.9,0.3,0.7,1.6,1.5,1.9c0.9,0.3,1.3,0.7,1.5,1.6
		c0.2,0.8,0.7,1.2,1.5,1.4c0.9,0.2,1.5,0.7,1.6,1.7c0.1,0.6,0.3,1.2,0.9,1.4c0.3,0.1,0.5,0.4,0.6,0.7c0.1,0.7,0.3,1.2,1.2,1.1
		c0.3-0.1,0.4,0.4,0.6,0.6c0.9,1,1.3,2.5,2.8,3c0.3,0.1,0.5,0.4,0.6,0.7c0.5,1.6,1.7,2.6,3.1,3.5c0.7,0.4,1,1,1.3,1.7
		c0.3,0.8,0.8,1.3,1.7,1.5c1,0.1,1.5,0.9,1.9,1.7c0.3,0.7,0.7,1.2,1.4,1.5c0.7,0.3,1.1,0.8,1.2,1.6c0.1,1.3,1.4,1.7,2.1,2.4
		c0.3,0.2,0.7,0.3,0.8,0.7c0.7,1.6,2,2.6,3.2,3.6c0.8,0.7,1.6,1.3,1.9,2.4c0.2,0.7,0.7,1,1.4,0.5c0.9,0.3,1.7,0.8,2,1.8
		c-0.2,0.2-0.8,0.2-0.6,0.7c0.1,0.4,0.4,0.9,0.9,0.9c0.8,0.1,1.2,0.6,1.5,1.2c0.9,1.9,2.7,3,4.1,4.4c1.2,1.3,2.7,2.4,3.6,3.9
		c0.3,0.6,0.8,1,1.3,1.4c0.6,0.4,1.2,0.8,1.1,1.7c0,0.1,0,0.2,0.1,0.2c1.4,0.2,1.4,2,2.6,2.4c0.4,0.1,0.9,0.4,0.6,1.1
		C162.8,183.5,160.4,185.1,158,186.8z"/>
	<path class="st12" d="M197.6,137.4c-1.6,4.7-3.7,9.1-6,13.4c-0.2,0.3-0.5,0.6-0.7,1c-0.8,0.5-1.3,0.1-1.7-0.5
		c-0.1-0.2-0.1-0.4-0.3-0.5c-1.9-1-2.6-3.1-4.1-4.5c-2.1-2.1-4.2-4.2-6.2-6.4c-1.3-1.3-2.4-2.8-3.6-4.2c-1.1-1.2-2-2.7-3.2-3.7
		c-1.5-1.1-2.1-3-3.8-3.8c-0.7-0.3-1.2-1.1-1.4-1.9c-0.2-0.6-0.8-0.9-1.1-1.3c-1-1.2-2.4-1.9-3.2-3.2c-0.7-1-1.5-1.8-2.4-2.6
		c-1-1.3-1.8-2.7-2.5-4.3c-0.1-0.4,0.2-0.7,0.5-0.9c1.7-1.1,3.1-2.6,4.7-3.9c1.5-1.3,2.3-3.1,3.6-4.6c0.3-0.3,0.5-0.7,1-0.8
		c0.4,0,0.9,0.1,1,0.5c0.4,0.7,0.6,1.3,1.6,0.8c0.4-0.2,0.7,0.4,0.7,0.9c-0.1,1.3,0.6,2.1,1.6,2.7c1,0.6,1.5,1.7,2.6,2
		c0.1,0,0.3,0.3,0.2,0.4c-0.6,1.3,0.6,1.6,1.2,2c1.3,1,2.5,2.2,3.6,3.4c0.5,0.5,0.9,0.8,0.9,1.6c0,0.6,0.7,1.1,1.1,1.1
		c1.4,0.1,1.7,1.2,2.2,2.1c0.4,0.8,0.6,1.5,1.6,1.6c0.2,0,0.5,0.2,0.6,0.4c0.4,1.4,1.8,1.9,2.5,3.1c0.4,0.7,0.9,1.4,1.8,1.6
		c0.5,0.1,0.7,0.6,0.7,1.1c0,0.8,0.4,1.3,1.1,1.5c0.7,0.2,1.1,0.5,1,1.2c0,0.5,0.3,0.7,0.7,0.8c0.5,0.1,0.9,0.4,1,0.9
		c0.1,0.9,0.6,1.4,1.3,1.8C196.8,136.5,197.2,136.9,197.6,137.4z"/>
	<path class="st13" d="M89.6,132.6c0.5-0.2,0.9,0,1.2,0.4c0.6,0.6,1,1.6,2,1.8c0.2,0.1,0.3,0.3,0.2,0.5c-0.1,0.2-0.1,0.5,0.1,0.7
		c1.5,0.8,1.8,2.9,3.8,3.1c0.1,0,0.3,0.1,0.3,0.2c0.3,1.7,1.8,2.6,2.7,3.9c1,1.6,2.6,3,4.1,4.4c1.5,1.3,3.1,2.6,4,4.5
		c0.3,0.6,1.3,0.6,1.7,1.5c0.3,0.7,1.1,1.2,1.2,2.1c0,0.2,0.3,0.4,0.5,0.4c2,0.4,2.8,2.2,3.9,3.5c0.6,0.7,0.9,1.7,1.8,2.2
		c0.1,0,0.2,0.1,0.2,0.1c0.5,1.9,2.4,2.5,3.5,3.8c0.4,0.5,0.5,1.2,1,1.6c0.8,0.6,1,1.9,2.3,2c0.6,0.1,0.6,1.2,1.2,1.7
		c1.3,1.1,2,2.8,3.2,3.7c1.6,1.2,2.2,3.4,4.3,4.1c0.7,0.2,1,1.3,1.5,2c0.3,0.5,0.7,1,1.2,1.3c0.5,0.2,0.8,0.5,0.9,1.2
		c0.1,0.7,0.7,1.3,1.2,1.3c0.9,0,1.2,0.6,1.5,1.2c0.5,1.1,1.4,2,2.5,2.6c0.5,0.3,0.6,0.9,0.8,1.3c0.7,1,2,1.4,2.5,2.6
		c0.2,0.4,0.5,0.8,0.4,1.3c-2.2,0.9-4.4,1.9-6.5,2.8c-0.4,0.2-0.9,0.2-1.4,0.3c-2.5-0.8-4.2-2.5-5.1-5c-0.1-0.3-0.3-0.4-0.6-0.5
		c-1.2-0.3-1.3-0.9-0.5-1.9c0.5-0.2,1.1-0.1,1.7-0.2c0.5-0.2,0.3-0.5,0.2-0.8c-0.6-1.6-1.7-2.6-3.3-3.2c-0.8-0.2-1.6-0.2-2.4,0
		c-0.1,0-0.2,0-0.3,0c-0.8-0.1-1.5-0.7-2-1.3c-1-1.3-2.2-2.4-3.4-3.5c-0.7-0.7-1.6-1.2-2.2-2c-0.3-0.4-0.6-0.7-0.6-1.3
		c0.1-0.9-0.4-1.3-1.3-1.4c-0.8-0.1-1.3-0.4-1.5-1.2c-0.3-0.8-0.7-1.5-1.7-1.7c-0.8-0.2-1-1.1-1.3-1.7c-0.3-0.6-0.4-1.3-1.3-1.3
		c-0.2,0-0.4-0.1-0.4-0.3c-0.2-1.6-1.9-1.9-2.6-3c-1.1-1.8-3-2.9-4.2-4.6c-0.8-1.2-2.1-2.1-3.2-3.1c-0.3-0.2-0.7-0.4-0.8-0.7
		c-0.2-1.5-1.6-2-2.4-3c-0.1-0.1-0.1-0.2-0.3-0.2c-1.6-0.2-1.5-1.7-2-2.7c-0.1-0.1,0-0.4-0.1-0.4c-1.5-0.2-1.8-1.7-2.7-2.5
		c-1.3-1.1-2.1-2.6-3-4c-0.1-0.1-0.1-0.3-0.2-0.3c-1.6-0.2-2-1.9-3.2-2.6c-0.4-0.2-0.6-0.6-0.7-0.9c-0.2-0.5-0.4-0.7-0.9-0.9
		c-1.4-0.6-1.6-2.1-0.5-3.2c0.1-0.1,0.2-0.1,0.4-0.1c1-0.1,2.1,0,3.1-0.1c1.2,0,1.5-0.3,1.4-1.5C89.3,134.5,89,133.5,89.6,132.6z"/>
	<path class="st14" d="M179.1,168.6c-1.2,1.9-3.1,3.2-4.4,5c-0.2,0.3-0.5,0.5-0.9,0.5c-1.7-1.4-3.3-2.8-4.5-4.7
		c-0.3-0.4-0.7-0.7-1.1-0.9c-1.3-0.9-2.5-1.7-3.2-3.2c-0.5-1.1-1.7-2-2.6-2.9c-0.3-0.3-0.7-0.4-0.9-0.8c-1.5-2.3-3.8-4-5.2-6.3
		c-0.7-1.1-1.9-1.7-2.6-2.6c-1.3-1.7-3.1-3-4.2-4.9c-0.6-1.1-1.6-2-2.6-2.8c-1.3-1.2-2.4-2.6-3.7-3.8c-1.3-1.1-1.8-2.8-3.1-3.9
		c-0.7-0.5-1.4-1-2-1.5c-0.9-0.8-1.8-1.7-2.2-2.9c-0.1-0.3-0.2-0.8-0.5-0.9c-2.2-0.5-2.5-2.9-4.2-3.9c-1.2-0.8-2.4-2.2-3.1-3.6
		c-0.2-0.3-0.4-0.6-0.7-0.8c-1.6-1-2.5-2.7-3.6-4.1c-1-1.3-2.3-2.4-3.7-3.4c-0.3-0.2-0.6-0.4-0.7-0.7c-0.9-2-2.3-3.5-4.1-4.7
		c-0.4-0.3-0.9-0.6-0.9-1.3c0-0.3,0-0.7,0.2-0.9c0.1-0.1,0.1-0.2,0.2-0.3c0.4-0.6,0.4-1.2,0.4-1.9c0-0.1,0-0.2,0-0.3
		c0-0.2,0-0.3,0-0.5c0-0.4-0.2-1,0.3-1.1c0.5-0.2,0.6,0.4,0.9,0.6c0.9,0.6,1.3,1.9,2.6,1.9c0.2,0,0.4,0.1,0.4,0.2
		c0.1,0.9,1.2,1.2,1.4,2.2c0.1,0.6,0.5,1.2,1.3,1.5c0.7,0.3,0.3,1.2,0.5,1.7c0,0.1,0.1,0.2,0.1,0.3c0.1,0.4,0,0.9,0.2,1.3
		c0.3,0.9,1,1.1,1.9,1c1.5-0.1,2.6-0.8,3.7-1.7c0.6-0.2,0.4-1.2,1.2-1.2c0.3,0.3,0.2,0.8,0.3,1.1c0.1,0.8,0.2,1.5,1.2,1.6
		c0.6,0.1,1,0.6,1.1,1.3c0.1,0.9,0.7,1.4,1.3,2c0.8,0.8,1.5,1.6,2.3,2.3c0.4,0.3,0.7,0.8,1.3,0.8c0.5,0,0.6,0.5,0.7,0.9
		c0.4,1.1,0.6,2.4,2,2.8c0.2,0.1,0.4,0.3,0.4,0.6c0.1,1.2,0.9,1.7,1.8,2.1c1.4,0.6,1.7,2.1,2.7,3.1c0.2,0.2,0.3,0.6,0.6,0.7
		c1.3,0.4,1.9,1.5,2.5,2.5c0.4,0.7,0.9,1.1,1.7,1.5c0.9,0.5,1.4,1.3,1.8,2.2c0.4,0.8,0.9,1.3,1.6,1.7c1.1,0.5,1.5,1.7,2.2,2.6
		c0.5,0.6,1,1.4,1.6,1.9c0.3,0.2,0.6,0.5,0.8,0.9c0.2,0.6,0.6,1,1.2,1.3c0.7,0.3,0.8,1.1,1.4,1.5c1.9,1.6,3.3,3.9,5.5,5.3
		c0.8,0.5,0.8,1.4,1.2,2c0.8,1.2,2,2.1,3,3.1c1.3,1.3,2.5,2.6,3.4,4.1c0.1,0.2,0.2,0.5,0.4,0.6c1.8,1,2.7,2.8,4.3,4.1
		C178.6,167.1,179.4,167.5,179.1,168.6z"/>
	<path class="st15" d="M114.6,201.7c0.3-0.9-0.9-1-0.9-1.7c-0.1-1.3-1.2-2.1-2-2.8c-0.6-0.5-1.4-1-1.9-1.7c-0.3-0.4-0.7-0.8-0.2-1.4
		c0.2-0.2,0.2-0.4,0-0.5c-0.1-0.1-0.3-0.1-0.4-0.1c-1.1,0.5-1.7,0.2-1.8-1.1c0-0.8-0.1-1.3-1.2-1.1c-0.7,0.1-0.9-0.9-1.4-1.4
		c-0.3-0.4-0.3-1.1-1.1-0.5c-0.3,0.2-0.6,0-0.6-0.3c-0.4-1.3-1.3-2.3-2.2-3.2c-0.2-0.2-0.2-0.6-0.2-0.9c0-0.2-0.1-0.4-0.3-0.5
		c-1.5-0.8-3.6-2.8-4.3-4.3c-0.2-0.3-0.4-0.4-0.7-0.5c-1.2-0.3-1.3-0.6-0.5-1.4c0.1-0.1,0.3-0.2,0.2-0.4c-0.1-0.1-0.3-0.2-0.5-0.3
		c-2-0.2-2.6-0.8-2.7-2.9c0-0.6-0.2-1-0.7-1.1c-0.8-0.1-0.9-1.1-1.6-1.4c-0.6-0.2-0.9-0.9-1.6-0.9c-0.1,0-0.3-0.2-0.4-0.3
		c-0.2-1.4-1.4-1.4-2.3-1.8c-0.4-0.2-0.9-0.4-0.8-1c0-0.4-0.3-0.6-0.6-0.8c-0.4-0.2-0.5-0.7-0.8-1c-0.9-0.8-1.4-1.9-1.8-3
		c-0.1-0.3-0.5-0.3-0.7-0.3c-1.6-0.2-2.2-1-2-2.5c0-0.5,0.1-0.7-0.7-0.8c-0.8-0.1-1.3-1-1.9-1.5c-0.1-0.1-0.1-0.5-0.2-0.5
		c-1.8-1-2.3-3.1-3.8-4.3c-1.1-0.8-1.7-1.9-2.3-3.1c-0.1-0.2-0.1-0.4-0.1-0.6c0.2-1-0.4-1.2-1.2-1c-0.5,0.1-0.8,0.1-1.1-0.4
		c-0.7-0.9-0.8-2.3-2.3-2.5c-0.5-0.1-0.1-0.9-0.5-1.2c-0.2-0.1-0.3-0.3-0.5-0.5c0.1-0.5,0.5-0.7,0.9-0.9c0.5-0.2,0.9-0.6,1.1-1.1
		c0.6-1,1.6-1.7,2.4-2.6c0.1,0,0.2-0.1,0.3-0.1c2.4,0.8,3.6,2.7,4.4,4.9c0.4,1.8,1.7,2.7,3.3,3.3c1.9,0.4,2.4,2.1,3.4,3.3
		c0.5,0.6,0.8,1.2,1.5,1.4c0.8,0.3,1.3,0.8,1.6,1.5c0.3,0.6,0.6,1.1,1.3,1.4c0.6,0.2,0.3,0.9,0.6,1.2c0.6,0.4,1,1.1,1.6,1.4
		c0.3,0.1,0.7,0.3,0.7,0.6c0.3,1.5,1.7,2.1,2.5,3.1c0.6,0.8,1.3,1.5,1.9,2.3c0.7,1,1.7,1.7,2.5,2.4c1,0.9,1.7,2,2.7,2.8
		c0.5,0.4,0.9,1,1.3,1.5c1.1,1.8,3,3.1,4.1,4.9c0.3,0.5,0.6,0.9,1.3,0.7c0.4-0.1,0.8,0.2,0.8,0.5c0.1,1.5,1.5,2.1,2.3,3
		c0.4,0.4,0.9,0.7,1.1,1.2c0.2,0.5,0.5,0.8,0.9,1.1c0.6,0.4,1,0.9,1.2,1.7c0.3,0.9,1.1,1.2,2,1.3c0.6,0.1,1,0.2,0.9,1.2
		c-0.2,1,0.5,1.9,1.3,2.5c1.5,1.1,3,2.2,3.8,3.8c0.3,0.6,1.3,0.5,1.6,1.2c0.7,1.4,2.2,2.2,3,3.5c0.1,0.3,0.4,0.3,0.7,0.5
		c1,0.7,1.1,1.3,0.5,2.4C120.4,201.1,117.5,201.3,114.6,201.7z"/>
	<path class="st16" d="M114.8,109c-0.3,0.8,0.5,1.1,0.9,1.5c1.7,1.2,3.1,2.7,4,4.6c0.1,0.2,0.2,0.4,0.3,0.5c2.2,1,3.8,2.8,5,4.7
		c0.9,1.4,2.3,2.1,3,3.3c0.7,1.1,1.9,1.7,2.4,2.9c0.5,1.2,1.9,1.5,2.7,2.5c0.8,1,1.2,2.3,2.7,2.5c0.1,0,0.3,0.4,0.4,0.6
		c0.4,1.9,1.8,3,3.3,4.1c1.1,0.8,2,1.7,2.7,2.8c0.8,1.4,2.2,2.4,3.1,3.6c0.8,1.1,2.2,1.6,2.7,2.9c0.4,0.8,1.3,1,1.8,1.7
		c0.3,0.5,0.2,1.2,0.6,1.4c2,0.8,2.3,3.2,4.1,4.1c2,1.1,2.7,3.3,4.2,4.8c1.2,1.2,2.3,2.5,3.4,3.8c0.8,0.9,1.6,2,2.7,2.7
		c0.6,0.4,1,0.9,1.2,1.7c0.2,1,1.3,1.4,2.1,2c0.9,0.6,1.6,1.3,2.3,2.1c0.8,1,1.4,2.2,2.6,2.8c0.6,0.3,0.9,0.8,1.1,1.4
		c-1.3,1.1-2.3,2.5-3.7,3.6c-0.6,0.5-1.2,1.1-1.9,1.5c-0.9-0.5-1.7-1.1-1.9-2.3c-0.1-0.4-0.4-0.8-0.7-1.1c-1.6-1.2-2.7-3-4.2-4.4
		c-1.3-1.2-2.5-2.5-3.8-3.7c-0.7-0.7-1.6-1.5-1.9-2.6c-0.2-0.7-1-0.8-1.1-1.5c0.1-0.3,0.3-0.5,0.6-0.8c1.7-1.9,1.9-4.2,0.5-6.1
		c-1.4-1.8-3.8-2.2-6-1c-0.2,0.1-0.4,0.2-0.6,0.3c-0.4,0.1-0.8,0.1-1.2,0.2c-0.5,0.1-1,0-1.2-0.4c-0.6-1-1.7-1.6-2-2.8
		c-0.1-0.4-0.3-0.8-0.6-0.9c-1.4-0.4-2.2-1.8-2.9-2.8c-0.9-1.4-2.6-1.8-3.1-3.5c-0.2-0.6-1-1.3-1.9-1.5c-0.6-0.1-0.8-0.4-0.9-0.9
		c-0.2-1.4-1.2-2.3-2.1-3.2c-0.8-0.8-1.6-1.8-2.4-2.7c-0.2-0.2-0.2-0.5-0.4-0.6c-1.9-0.6-2.1-2.8-3.7-3.8c-0.4-0.2-0.7-0.7-1.1-1.1
		c-1.8-1.8-3.6-3.6-4.8-5.9c-0.1-0.2-0.3-0.6-0.5-0.7c-1.6-0.8-2.6-2.4-4-3.3c-0.8-0.5-1.2-1.4-1.8-2.1c-0.3-0.4-0.6-0.8-1.1-1.1
		c-0.9-0.5-1.7-1-2-2.1c-0.1-0.3-0.4-0.6-0.7-0.8c-0.7-0.4-1.1-1-1.5-1.7c-0.4-0.7-0.8-1.4-1.5-1.9c-0.5-0.4-0.9-1.2-0.1-1.9
		c0.6,0.1,1,0.5,1.5,0.9c1.9,1.6,2.5,1.5,3.8-0.6c0.3-0.4,0.5-0.9,0.8-1.3C114.1,109.3,114.3,109,114.8,109z"/>
	<path class="st17" d="M179.1,168.6c0-0.4-0.3-0.8-0.5-1c-1.5-1-2.2-2.7-3.7-3.8c-0.9-0.7-1.5-1.5-2.2-2.4c-0.9-1.3-1.9-2.5-3.1-3.6
		c-1.4-1.2-3-2.3-3.5-4.3c0-0.2-0.1-0.4-0.3-0.5c-1.3-0.5-2.3-1.6-3-2.5c-0.9-1.2-2.3-2.1-3.1-3.4c-0.4-0.6-0.7-1.1-1.4-1.2
		c-0.3-0.1-0.6-0.2-0.6-0.5c-0.3-1.7-2.2-2.3-2.9-3.9c-0.4-0.8-1-2.2-2.5-2.5c-1-0.2-1-1.7-1.7-2.5c-0.3-0.3-0.6-0.8-1-1
		c-1.3-0.5-2.1-1.5-2.4-2.9c0-0.2-0.2-0.4-0.4-0.4c-1.9-0.5-2.6-2.1-3.5-3.5c-0.4-0.6-1.2-1-1.9-1.3c-0.8-0.2-1.1-0.7-1.1-1.5
		c0-0.4-0.1-0.9-0.4-0.9c-1.8-0.3-1.7-1.9-2.2-3.1c-0.1-0.2,0-0.5-0.2-0.5c-1.7,0.4-1.7-1.8-3.1-1.9c-0.3-1.5-2.5-1.8-2.3-3.7
		c0.1-0.5-0.6-1-1-0.9c-1.3,0.3-1.1-0.7-1.3-1.3c-0.1-0.5,0-1.1-0.1-1.7c-0.1-0.6,0.4-1,0.6-1.6c0.4-0.6,0.4-1.4,0.9-1.9
		c1.2-0.1,2.3,0.1,3.5-0.3c0.5,0.1,0.8,0.4,0.8,0.9c-0.1,2,1.2,3.4,2.2,5c0.4,0.8,1.1,1.2,1.9,1.6c1.4,0.7,2.9,1.3,4.5,1.5
		c0.4,0.1,0.9,0,1.2,0.5c0,1.4,1.2,2.2,1.9,3.1c1.5,1.8,3.6,3.1,4.6,5.3c0.1,0.1,0.2,0.3,0.3,0.3c1.6,0.2,2.1,1.6,2.7,2.6
		c0.6,1.1,1.2,1.8,2.4,2.3c1,0.4,1.5,1.5,1.9,2.6c0.2,0.5,0.5,1.2,1.3,0.4c0.3,0,0.4,0.2,0.5,0.5c0.8,2.9,2.2,5.6,3.7,8.2
		c0.6,1.1,1.5,1.7,2.6,0.8c0.2-0.2,0.6-0.3,0.9-0.2c0.3,1.2,1,2,2,2.6c0.2,0.1,0.4,0.4,0.5,0.7c0.5,1.4,1.7,2.3,2.8,3.2
		c0.7,0.5,1.4,1.1,1.9,1.8c0.6,0.9,1.2,1.8,2.3,2.2c0.3,0.1,0.5,0.3,0.6,0.6c0.7,1.7,1.9,2.8,3.4,3.7c0.2,0.2,0.4,0.4,0.5,0.6
		c0.1,0.2,0.1,0.4,0.2,0.4c1.5,0.3,1.5,1.9,2.5,2.6C182.7,164.3,181.1,166.6,179.1,168.6z"/>
	<path class="st18" d="M111.5,6.6c0.5,0.6,0.8,1.5,1.8,1.5c0.2,0,0.4,0.2,0.4,0.4c0.7,2,2.5,2.6,4.1,3.6c0.2,0.1,0.6,0.5,0.5,0.6
		c-0.4,1.2,0.6,1.5,1.3,2c0.9,0.6,1.4,1.7,2,2.5c0.6,0.8,1.3,0.9,1.9,1.4c0.6,0.4,1.9,0.5,0.8,1.8c-0.3,0.3,0,0.7,0.3,0.9
		c0.2,0.2,0.4,0.4,0.8,0.1c0.5-0.4,1.2-0.2,1,0.4c-0.5,2,1.4,2,2.3,2.7c0.1,0.1,0.5,0.2,0.4,0.3c-1,1.4,0.7,1.2,1,1.7
		c-0.1,0.5-0.5,0.7-0.8,1c-1.8,1.6-2,4.3-0.5,6c1.6,1.9,4,2.1,6,0.7c0.4-0.3,0.7-0.8,1.3-0.7c1,0.4,1.9,0.8,1.6,2.3
		c-0.1,0.4,0.3,1,0.8,1c1.4,0.2,2.4,1,2.9,2.2c0.7,1.5,2.2,2.1,3.3,3.1c0.7,0.7,1.4,1.3,1,2.4c0.4,0.2,0.5-0.2,0.7-0.3
		c0.4-0.2,0.7-0.2,1,0.1c0.3,0.3,0.3,0.6,0.1,0.9c-0.8,1.1,0.7,1.7,0.6,2.6c0,0.1,0.4,0.2,0.5,0c0.6-0.9,0.8-0.6,0.9,0.3
		c0,0.4,0.4,0.6,0.8,0.6c1.1,0,1.4,0.8,1.7,1.7c0.3,0.9,0.8,1.8,1.9,2.1c1.1,0.4,1.4,0.9,0.9,2c-0.3,0.9-0.1,1.1,0.7,0.8
		c0.5-0.1,0.9-0.1,0.9,0.4c0.2,1.4,1,1.1,1.9,0.7c0.3-0.2,0.7-0.3,1-0.3c0.1,0.5-0.4,0.6-0.6,0.9c-0.7,0.6-1.3,1.3-1.7,2.1
		c-0.2,0.4-0.5,0.9-1.1,0.7c-1.9-0.9-3.6-2.3-5.8-2.7c-1.1-0.2-2.3-0.3-3.4-0.4c-0.6,0-1.1-0.1-1.7-0.2c-0.8-0.2-1.4-0.5-1-1.6
		c0.2-0.6-0.3-1.1-0.7-1.4c-0.7-0.6-1.3-1.3-1.7-2.1c-0.4-0.8-1.1-1.3-2-1.3c-0.3,0-0.6,0-0.7-0.3c-0.4-1.9-2.1-2.8-3.2-4.1
		c-0.6-0.7-1.4-1.3-1.7-2.2c0-0.1-0.1-0.3-0.1-0.3c-2.2-1-2.8-3.6-5-4.7c-0.5-0.2-0.7-0.9-1-1.3c-0.7-1.2-2-1.9-2.6-3.1
		c-0.1-0.1-0.3-0.2-0.3-0.4c0-1.6-1.5-1.9-2.5-2.5c-1-0.6-1.7-1.4-2.4-2.3c-1-1.1-1.9-2.3-3.1-3.3c-0.7-0.6-1-1.5-2-1.9
		c-0.3-0.1-0.3-0.5-0.3-0.7c0-0.9-0.6-1.5-1.3-1.9c-1-0.5-1.7-1.2-2.3-2c-0.2-0.2-0.3-0.5-0.6-0.6c-1.5-0.3-2.1-1.5-2.8-2.6
		c-0.9-1.3-2-2.5-3.3-3.4c-0.8-0.6-1.5-1.4-1.8-2.4c-0.2-0.6-0.4-1.1-1.1-1.3c-0.8-0.3-1-0.9-0.7-1.8C104.6,6.6,108,6.6,111.5,6.6z"
		/>
	<path class="st19" d="M197.6,137.4c-1.2-0.8-2.9-1.1-2.9-3.1c0-0.5-0.5-0.5-0.9-0.5c-0.6,0-1-0.1-0.8-0.9c0.2-0.6,0-0.9-0.7-1
		c-0.9-0.1-1.6-0.6-1.4-1.8c0.1-0.4,0-0.8-0.4-0.9c-1.5-0.3-2-1.6-2.7-2.6c-0.2-0.3-0.5-0.5-0.8-0.7c-1-0.7-1.5-1.9-2.8-2.5
		c-0.6-0.3-0.8-1.7-1.4-2.5c-0.2-0.3-0.4-0.6-0.7-0.3c-0.6,0.4-0.6-0.2-0.9-0.4c-1.2-0.7-0.9-2.5-2.1-3.1c-1.2-0.6-1.5-2-2.8-2.4
		c-0.7-0.3-1.1-1.2-2-1.4c-0.3-0.1-0.3-0.5,0.1-0.7c0.6-0.3,0.3-0.5-0.1-0.8c-1.5-0.9-2.9-1.9-3.9-3.5c-0.3-0.4-0.5-0.7-0.2-1.2
		c0.1-0.3,0.1-0.6-0.2-0.8c-0.3-0.2-0.5,0-0.7,0.2c-0.2,0.2-0.3,0.5-0.7,0.3c-0.3-0.2-0.4-0.4-0.3-0.8c0.2-0.9-0.7-0.8-1.1-1.2
		c-0.4-0.4-0.1-0.8,0-1.2c1-1.9,1.8-3.8,2.4-5.8c0.1-0.3,0.3-0.7,0.6-0.8c0.3-0.1,0.6-0.1,0.9-0.1c3.6,0.8,7,1.9,10.2,3.7
		c0.1,0.1,0.2,0.2,0.2,0.3c-0.3,1.3,0.3,2.2,1.3,2.9c0.6,0.4,1.2,0.7,1.3,1.5c0,0.3,0.2,0.6,0.5,0.6c1-0.3,1.1,0.6,1.6,1.1
		c0.6,0.8,1.7,1.2,2.1,2.2c0.5,1.3,1,2.5,2.5,3.1c0.7,0.2,1.3,1.1,1.4,2.1c0,0.5,0.5,0.8,1,0.9c0.8,0.1,1.2,0.6,1.5,1.4
		c0.2,0.6,0.4,1.2,1.4,1.1c0.6-0.1,0.8,0.6,0.9,1.2c0.1,0.5,0.2,0.9,0.7,1.1c1.3,0.5,1.9,1.7,2.4,2.8c0.3,0.6,0.6,0.7,1.1,0.6
		c-0.2,3.1-1.2,6.1-2.1,9C198.8,134.1,198.1,135.7,197.6,137.4z"/>
	<path class="st20" d="M82.7,9c3.7-0.8,7.5-1.5,11.3-1.9c1,0.2,1.8,0.5,1.7,1.8c-0.1,0.6,0.4,0.6,0.8,0.6c1.5,0.2,1.7,0.4,1.6,1.8
		c0,0.4,0.1,0.7,0.5,0.8c0.9,0.3,1.6,0.9,1.8,1.8c0.1,0.3,0.3,0.3,0.5,0.4c1.1,0.8,2.6,1.3,2.8,3c0,0.4,0.5,0.5,0.7,0.8
		c1.1,1.2,2.3,2.4,3.6,3.4c0.5,0.4,0.9,1.2,1.2,1.9c1,1.7,2.6,2.9,3.6,4.6c0.1,0.2,0.3,0.5,0.7,0.3c0.6-0.4,0.9,0,1,0.5
		c0.5,1.6,1.5,2.9,3,3.7c0.6,0.3,1.1,0.7,1.3,1.5c0.1,0.4,0.4,0.6,0.6,0.8c1.5,1.1,2.4,2.8,4,3.9c0.2,0.6-0.4,0.7-0.6,1
		c-0.8,0.8-1.6,1.5-2.1,2.6c-0.1,0.5-0.3,1-0.7,1.3c-0.4,0.4-0.5,1-0.6,1.5c-0.3,1.2-0.8,1.5-2,1.3c-0.6-0.1-1.1-0.3-1.7-0.2
		c-0.7,0-1.1-0.9-1.3-1.5c-0.2-0.7-0.4-1.3-1.3-1.1c-0.2,0-0.4-0.2-0.5-0.4c-0.6-1.1-1.8-1.7-1.9-3.1c0-0.5-0.5-0.8-1-1
		c-0.9-0.4-1.5-1.1-2.4-1.6c-1.2-0.6-1.5-1.9-2.3-2.8c-0.4-0.5-0.6-0.9-1.3-0.8c-0.6,0.1-1-0.4-0.9-1c0-0.8-0.3-1.2-0.9-1.5
		c-0.1-0.1,0,0.1-0.1-0.1c-0.7-1.2-2-1.7-3-2.6c-0.3-0.3-0.6-0.7-0.5-1.2c0.1-1-0.5-1.5-1.3-1.8c-1-0.3-1.5-1-1.9-1.9
		c-0.3-0.7-0.6-1.3-1.3-1.7c-1.6-1-2.4-2.5-3.4-4c-0.5-0.8-1.2-1.8-2.4-1.9c-0.5-0.1-1.1-0.4-0.9-0.8c0.4-1.2-0.6-1.6-1.1-2.2
		c-1-1.1-2.1-2.2-3.1-3.3C82.7,9.7,82.3,9.5,82.7,9z"/>
	<path class="st13" d="M131.1,189.5c-0.4,1.2-0.3,1.4,0.8,1.3c0.5,0,0.6,0.3,0.6,0.7c0.1,1.7,1.5,2.5,2.5,3.6c0.7,0.8,1.7,1,2.4,1.7
		c-2.2,0.7-4.3,1.4-6.5,2.2c-1-1.1-1.5-2.7-3.1-3.1c-0.3-0.1-0.5-0.3-0.6-0.6c-0.3-0.7-0.4-1.5-1.5-1.2c-0.4,0.1-0.5-0.6-0.4-1
		c0.3-0.9-0.1-1.3-1-1.4c-0.3,0-0.7-0.1-0.8-0.4c-0.6-0.9-1.5-1.5-2.1-2.2c-0.5-0.6-1.2-0.9-1.2-1.9c0-0.4-0.6-0.6-1-0.8
		c-0.9-0.5-1.7-1.2-2.1-2.2c-0.2-0.4-0.5-0.7-0.9-1c-0.8-0.5-1.7-1-1.7-2.1c0-0.3-0.3-0.4-0.6-0.5c-1.5-0.5-2.1-1.7-2.5-3.1
		c-0.1-0.3-0.1-0.6-0.5-0.6c-0.8,0-1.2-0.6-1.5-1.2c-0.2-0.3-0.4-0.6-0.7-0.7c-1.7-0.8-2.5-2.4-3.7-3.7c-1.5-1.7-2.7-3.6-4.6-4.9
		c-0.7-0.5-0.8-1.6-1.7-2c-1.1-0.5-1.5-1.6-2-2.7c-0.2-0.5-0.5-0.9-1-1.1c-0.6-0.3-1.1-0.7-1.2-1.4c0-0.2-0.2-0.6-0.4-0.5
		c-1.1,0.1-1.2-0.7-1.6-1.4c-0.3-0.6-1.1-0.8-1.7-1.3c-0.6-0.5-1.1-0.9-0.9-1.8c0.1-0.6-0.3-0.6-0.7-0.8c-1.5-0.9-2.7-2.1-3.2-3.8
		c-0.1-0.4-0.3-0.4-0.6-0.4c-0.8,0.1-1.1-0.3-1.1-1.1c0-0.6-0.3-1-0.9-1c-0.5,0-1-0.2-1-0.8c0.1-0.7-0.5-1-0.9-1.5
		c-0.1-1.2,0.2-2.5-0.6-3.7c-1-1.4-2.2-2.2-3.9-2.2c-0.4,0-0.8,0-1.2-0.1c-0.6-0.3-0.8-0.9-1.3-1.3c-0.4-0.2-0.3-0.6-0.1-0.9
		c0.7-0.9,1.8-1.4,2.6-2.2c0.4-0.3,0.7-0.3,1.1,0c1,0.9,2.3,1.4,3.5,2c0.6,0.2,1.2,0.3,1.8,0.4c0.4,0.1,0.9,0.1,1.1,0.6
		c-0.8,0.5-0.6,1.3-0.4,1.9c0.2,0.5,0.6,0.9,1.3,0.8c0.1,0,0.4-0.1,0.4,0c-0.1,1.8,2,1.9,2.4,3.3c0.3,0.8,1.2,0.6,1.8,0.8
		c0.4,0.2,0,1.5,1.1,1.5c0.1,0,0.3,0.1,0.3,0.2c0.3,2.3,2.8,3,3.5,5c0,0.1,0.2,0.2,0.3,0.2c0.6,0,1.9-0.6,0.8,1
		c-0.2,0.3,0.8,0.7,0.8,1.4c0,0.8,0.6,0.5,1,0.7c0.8,0.4,1.1,1.5,2.3,1.4c0.1,0,0.2,0.7,0.2,1.1c0,0.6,0.3,1,0.8,1.3
		c1.1,0.6,1.5,1.8,2.5,2.4c1.5,0.9,2,2.5,3.2,3.6c0.3,0.3,0.6,0.5,1,0.6c0.5,0.1,0.8,0.4,0.7,0.9c0,0.3,0.1,0.6,0.4,0.7
		c0.7,0.1,1.2,0.3,1.2,1.1c0,0.3,0.3,0.4,0.7,0.3c0.8-0.2,1,0.2,0.8,0.9c-0.1,0.4-0.3,0.9,0.5,0.7c0.7-0.2,0.8,0.4,1,0.8
		c0.2,0.6,0.3,1.2,0.8,1.7c0.3,0.3,0.3,1,1,0.4c0.3-0.2,0.3,0.1,0.4,0.3c0.4,0.8,1.2,1.3,1.3,2.3c0,0.4,0.6,0.2,0.9,0.3
		c1,0.2,1.9,0.4,1.6,1.8c-0.1,0.5,1.5,2.4,2,2.5c1.2,0.4,1.5,1.7,2.5,2.3c1.3,0.8,1.8,2.5,3.4,3c0.1,0.5-0.4,0.6-0.7,0.8
		c-0.8,0.7-1.6,1.3-2,2.3c-0.1,0.5-0.4,0.9,0.4,1c1.6,0,3.2,0,4.8,0C130.1,189.1,130.7,189,131.1,189.5z"/>
	<path class="st21" d="M18.1,60.6C20,57,21.9,53.3,24.3,50c0.6-0.4,1.1-0.2,1.3,0.5c0.3,0.9,1,1.2,1.6,1.8c1,0.8,2,1.7,2.3,3.1
		c0.1,0.5,0.4,0.8,0.9,0.9c1,0.2,1.6,0.8,2,1.8c0.1,0.4,0.3,0.7,0.7,0.9c0.2,0.1,0.5,0.3,0.5,0.5c-0.2,1.3,1,1.5,1.8,2
		c0.5,0.4,1.1,0.7,1.3,1.4c0.1,0.2,0.2,0.4,0.4,0.5c1.4,0.4,1.9,1.6,2.4,2.7c0.2,0.4,0.6,0.7,1,0.9c0.4,0.2,0.8,0.5,0.9,0.9
		c0.4,1.1,1.2,1.6,2,2.3c0.6,0.6,1.5,0.9,1.2,2.1c-0.1,0.4,0.5,0.6,0.9,0.7c1.5,0.3,2.1,1.3,2.3,2.7c-0.2,1.4-0.4,2.8-0.3,4.2
		c0,0.5,0.1,0.9,0.3,1.4c0.4,0.7,0.7,1.3,1.1,2c0.5,0.5,1.1,0.9,1.6,1.4c0.4,0.4,0.5,0.7,0.1,1.1c-1.3,1.3-2.1,3-3,4.6
		c-0.2,0.3-0.3,0.6-0.7,0.6c-0.9-0.1-1.7-0.3-2.2-1.2c-0.2-0.3-0.5-0.4-0.7-0.6c-1-0.5-1.8-1.1-1.7-2.5c0.1-0.4-0.2-0.9-0.6-1
		c-1.8-0.4-2.6-2.1-4-3.1c-1.6-1.2-2.5-3-4-4.3c-1.1-0.9-1.4-2.4-2.1-3.7c0-0.9,0.6-1.7,0.6-2.7c0-2.6-1.7-4.3-4.3-4.4
		c-0.8,0-1.5,0.2-2.3,0.2c-1.2-0.2-2-1.1-2.9-1.8c-1.5-1.2-2.4-2.9-3.9-4.1C18.5,61.5,18.2,61.1,18.1,60.6z"/>
	<path class="st15" d="M81.7,144.8c0.7,0.2,1.3,0.3,1,1.3c-0.2,0.5,0.2,0.6,0.6,0.6c1,0,1.5,0.3,1.3,1.4c-0.1,0.7,0.3,0.8,0.9,0.6
		c0.8-0.3,1.1,0,0.8,0.8c-0.1,0.3-0.1,0.5,0.1,0.7c1.1,1.1,1.8,2.8,3.6,3c0.6,0.1,0.3,0.5,0.1,0.7c-0.4,0.7-0.1,1.2,0.6,1.6
		c0.7,0.3,1,1.2,1.9,1.1c0.1,1.2,1.4,1.3,1.8,1.9c0.5,0.8,0.9,1.6,1.9,2c0.3,0.1,0.4,0.6,0.5,0.9c0.3,1.3,1.3,2.5,2.3,2.9
		c0.8,0.3,0.7,0.7,0.9,1.2c0,0.2,0.2,0.4,0.3,0.5c1.5,0.9,2.6,2.3,3.7,3.7c1.1,1.5,2.4,2.9,3.6,4.3c0.4,0.5,1.2,0.4,1.6,0.9
		c0.5,0.7,0.9,1.8,2.1,1.5c0.2,0,0.2,0.1,0.2,0.3c0,1.8,0.9,3,2.6,3.4c0.3,0.1,0.7,0.3,0.6,0.7c-0.3,1,0.4,1.3,1,1.6
		c0.7,0.4,1.3,0.9,1.6,1.8c0.2,0.7,0.9,1.1,1.5,1.6c0.7,0.5,2.1,0.5,1.4,2c0,0,0,0.2,0.1,0.2c1.3,0.7,2.3,1.8,3.2,3
		c0.1,0.1,0.4,0.2,0.5,0.2c1.2,0.1,2,0.4,1.2,1.8c-0.2,0.4,0,0.9,0.6,0.5c0.7-0.4,0.9-0.3,1,0.4c0.1,0.9,0.6,1.4,1.5,1.6
		c0.7,0.2,1.3,0.5,1.3,1.3c0,0.4,0.4,0.4,0.7,0.6c0.4,0.3,0.6,0.6,0.3,1.1c-2.5,0.7-5.1,1.2-7.7,1.7c0.2-1,0.3-2-1-2.3
		c-0.3-0.1-0.5-0.4-0.6-0.7c-0.1-0.3-0.1-0.6-0.4-0.7c-1.2-0.5-1.7-1.7-2.4-2.7c-0.2-0.2-0.4-0.5-0.8-0.4c-0.4,0.1-0.6-0.1-0.8-0.5
		c-0.7-1.7-2.1-2.8-3.5-3.6c-1.1-0.6-1.1-1.9-1.9-2.7c0,0,0-0.1,0-0.1c1.2-1.5-0.4-0.9-0.9-1.2c-0.9-0.4-1.7-0.8-1.8-1.9
		c0-0.4-0.2-0.6-0.6-0.8c-0.7-0.4-1.3-1-1.5-1.8c-0.1-0.4-0.5-0.5-0.8-0.8c-0.9-1-2.5-1.4-2.5-3c0-0.5-0.1-0.8-0.7-0.4
		c-0.5,0.3-0.8,0.1-1.2-0.3c-0.9-1.2-1.4-2.8-3.1-3.5c-0.3-0.1-0.4-0.7-0.6-1c-1.5-1.8-2.9-3.6-4.6-5.2c-1.9-1.8-3.6-3.8-5.3-5.8
		c-0.6-0.7-1.5-1.2-1.8-2.4c-0.1-0.5-1.3-1.2-2.1-1.6c-0.4-0.2-0.6-0.4-0.4-0.8c0.2-0.5-0.3-0.4-0.4-0.6c-1-1.9-3.3-2.6-4.3-4.5
		c-0.1-0.3-0.3-0.4-0.6-0.6c-0.3-0.2-0.8-0.5-0.8-0.7c0-1.4-1.4-1.2-2-1.9c0.3-0.4,0.8-0.3,1.2-0.3c1.6,0.1,2.8-0.7,3.7-2
		C81.1,145.3,81.3,144.9,81.7,144.8z"/>
	<path class="st22" d="M184.4,162.1c-0.4,0-0.8-0.1-1-0.5c-0.3-0.7-0.2-1.8-1.6-1.5c0,0-0.2-0.1-0.2-0.1c-0.5-1.8-2.6-2.1-3.3-3.6
		c-0.7-1.4-2-2.1-2.8-3.3c-1.1-1.6-2.6-2.6-3.9-3.9c-0.7-0.6-1.4-1.2-1.6-2.2c-0.1-0.7-0.9-0.8-1.3-1.1c-0.8-0.6-1.1-1.3-1-2.2
		c0.4-2.1,0.1-4.1-0.6-6.1c-1.1-3.2-2.1-6.4-3.6-9.3c-1.4-2.6-2.3-5.3-3.6-8c-0.2-0.4-0.4-0.8-0.2-1.3c0.2,0,0.6,0,0.6,0
		c0.3,1.2,1.7,1.6,2.2,2.6c0.3,0.7,0.7,1.3,1.5,1.5c0.5,0.1,0.8,0.4,0.9,0.9c0.1,0.3,0.2,0.7,0.5,0.7c1.1,0.2,1.4,1.1,1.7,1.9
		c0.3,0.8,1,1.3,1.6,1.7c0.9,0.6,1.7,1.3,2,2.5c0,0.1,0.1,0.3,0.2,0.3c2.2,0.9,2.9,3.2,4.5,4.6c2.2,1.9,3.4,4.6,5.8,6.2
		c0.6,0.4,0.8,1.2,1.3,1.7c0.9,0.7,1.8,1.3,2.4,2.3c0.8,1.3,2.3,2,2.7,3.6c0.1,0.3,0.3,0.5,0.6,0.5c0.8,0.2,1.3,0.4,1.3,1.3
		c0.1,0.5,0.8,0.5,1.3,0.5C189.1,155.5,186.8,158.8,184.4,162.1z"/>
	<path class="st22" d="M56,20c2.2-1.4,4.6-2.7,7-3.8c1,1,2,2,2,3.5c-0.5,0.4-0.8-0.3-1.3-0.3c0.8,1.2,2.1,1.9,3.5,1.9
		c0.4,0,0.8-0.2,1.1,0.1c0.7,1.9,2,3.4,3.6,4.6c0.3,0.3,0.3,0.8,0.6,1.1c0.6,0.6,1,1.4,1.9,1.8c0.4,0.2,0.8,0.6,0.9,1
		c0.4,1.2,1.3,2.1,2.4,2.7c0.9,0.5,1.1,1.7,2.1,2.3c0.1,0.1,0.2,0.3,0.3,0.4c1.7,1,2.8,2.4,3.6,4.2c0.1,0.3,0.4,0.5,0.7,0.6
		c0.6,0.1,0.8,0.7,1.1,1.1c0.8,1.1,1.6,2.1,2.9,2.7c0.5,0.2,1,0.4,1.2,0.9c0.3,1.3,1.4,2.1,2.1,3.2c0.4,0.5,0.9,1,1.6,1.3
		c0.5,0.1,0.8,0.5,1,1c0.6,1.4,1.4,2.7,3.2,2.8c0.7,0,0.7,0.2,0.7,0.8c-0.9,0.4-1.7-0.2-2.6-0.1c-0.7,0.1-1.5-0.1-2.2,0.2
		c-1.6,0.5-3.3,0.9-5,1c-1.5-0.6-3.1-1-3.5-2.9c-0.1-0.2-0.2-0.5-0.4-0.5c-0.9-0.2-1.3-1-2-1.4c-1.2-0.9-1.5-2.3-2.5-3.1
		c-1.4-1.1-2.3-2.7-3.6-3.9c-1.2-1.2-2.2-2.5-3.5-3.6c-0.4-0.3-0.6-1.1-1-1.6c-0.8-0.8-1.3-1.8-2-2.7c-0.4-0.5-1-0.9-1.6-1
		c-1.1-0.3-1.5-1-1.6-2c-0.1-0.6-0.4-1-1-1.2c-0.6-0.2-1-0.5-1.2-1.1c-0.6-1-1.4-1.7-2.5-2.1c-0.6-0.3-1.1-0.6-0.8-1.3
		c0.1-0.2,0.1-0.4-0.1-0.4c-1.3-0.7-1.6-2.5-3.2-2.9c-0.3-0.1-0.6-0.3-0.6-0.7c0-0.6-0.4-0.8-0.8-1C55.7,21,55.6,20.5,56,20z"/>
	<path class="st23" d="M47.6,75.5c-0.5-1.4-1.4-2.1-2.8-2.5c-0.6-0.2-1-0.5-0.5-1.2c0.2-0.2,0.2-0.6,0-0.6c-1-0.2-1.2-1.5-2.3-1.6
		c-0.2,0-0.5-0.1-0.5-0.3c0.1-1.3-0.8-1.8-1.7-2.2c0,0-0.1-0.1-0.1-0.1c-0.5-2-2.5-2.8-3.5-4.4c-0.4-0.6-1.2-1.3-2.2-1.4
		c-0.6-0.1-1-0.3-0.5-0.9c0.2-0.2,0.2-0.6,0-0.6c-1.3-0.2-1.1-1.6-1.8-2.2c-0.2-0.2-0.4-0.5-0.6-0.5c-1.5,0-1.6-1.3-2.2-2.2
		c-0.6-0.9-1.1-2-2.3-2.4c-0.6-0.2-1-0.6-1-1.2c-0.1-0.7-0.5-1.1-1.2-1c1.2-2.4,3-4.3,4.6-6.5c0.7-0.4,1.3-0.3,1.9,0.2
		c1.5,1,2.5,2.3,3.4,3.8c0.5,0.9,1.3,1.8,2.2,2.4c0.8,0.5,1.3,1.4,2.1,1.9c0.3,0.2,0.3,0.5,0.2,0.8c-0.3,0.9,0.2,1.4,1,1.6
		c1.1,0.4,1.9,1.1,2.5,2.1c0.6,1.1,2.2,1.4,2.6,2.7c0.4,1,0.8,1.8,1.6,2.4c0.6,0.4,1.2,0.9,1.8,1.4c0.5,0.4,1,0.9,1.3,1.5
		c0,0.1,0.1,0.2,0.1,0.2c1.8,0.5,1.8,2.5,2.9,3.6c1.1,1.1,2.2,2.2,3.2,3.4c1,1.2,2,2.3,3.4,3.2c0.9,0.6,1.1,1.7,1.2,2.8
		c-0.6,1.4-2.1,1.7-3.2,2.4c-0.3,0.2-0.6-0.2-0.7-0.4c-0.3-0.4-0.5-0.9-0.9-1.3c-0.5-0.4-0.9-0.9-1.3-1.4c-1.4-0.9-2.9-1.1-4.5-1.2
		C48.9,75.5,48.2,75.7,47.6,75.5z"/>
	<path class="st14" d="M44,28.4c1.6-1.6,3.4-2.8,5.3-4.1c0.2,1,1.4,0.8,1.8,1.6c0.3,0.9,1,1.7,1.7,2.1c1,0.6,1.7,1.2,2,2.3
		c0,0.2,0.3,0.3,0.5,0.3c1,0.2,1.5,0.9,1.7,1.8c0.3,1.1,0.9,1.8,1.8,2.2c0.8,0.4,1.3,0.9,1.4,1.8c0,0.2,0,0.6,0.4,0.5
		c1-0.2,1.2,0.6,1.4,1.3c0.2,0.8,1.1,0.9,1.5,1.5c0.4,0.6,0.9,1.2,1.4,1.8c0.4,0.6,0.9,1.2,1.7,1.4c0.3,0.1,0.6,0.3,0.6,0.6
		c0.3,1.2,1.1,2.1,2.1,2.6c1.2,0.6,1.6,1.8,2.4,2.7c0.9,1.1,1.9,2,2.9,3c0.2,0.9-0.5,1.7-0.1,2.6c0.2,0.8,0,1.6,0.2,2.3
		c0.1,0.3,0.3,0.6,0.5,1c0.4,0.9,1,1.7,0.7,2.8c-1.2,1.3-2.8,2.4-4.2,3.5c-0.2,0.2-0.5,0.2-0.8,0.1c-1.3-0.8-2.2-1.9-2.9-3.2
		c-0.4-0.7-0.6-1.3-1.5-1.3c-0.7,0-1-0.7-1.2-1.2c-0.4-0.9-0.8-1.7-1.9-2c-0.4-0.1-0.7-0.6-0.9-0.9c-1-1.8-2.8-2.8-4.1-4.3
		c-0.2-0.2-0.5-0.3-0.6-0.6c-0.8-1.8-2.4-3.1-3.5-4.7c-0.2-0.3-0.5-0.6-0.9-0.8c-0.5-0.3-0.8-0.7-1-1.2c-0.3-0.6-0.1-1,0.6-1.1
		c0.4,0,0.9,0,1.3-0.2c1.9-0.8,3.2-2,3.1-4.3c-0.1-3-2.8-5.1-5.7-4.3c-0.4,0.1-0.7,0.3-1.1,0.4c-1.3-1-2.7-1.8-3.7-3.2
		C45.9,30.3,45,29.3,44,28.4z"/>
	<path class="st17" d="M74.2,51.9c-0.6,0.2-1,0-1.2-0.6c-0.1-0.2-0.1-0.5-0.2-0.5c-1.9-0.7-2-3.1-3.7-3.9c-0.9-0.5-1.5-1.3-2.1-1.9
		c-0.3-0.3-0.5-0.6-0.4-1.1c0.1-0.3,0-0.5-0.3-0.5c-1.3-0.2-1.9-1.3-2.5-2.3c-0.4-0.6-1.1-1.2-1.7-1.6c-0.6-0.4-0.7-1-0.8-1.5
		c-0.2-0.6-0.4-0.8-1-0.5c-0.7,0.4-0.7,0-0.7-0.5c0.1-0.8-0.1-1.4-0.9-1.7c-1.2-0.5-2-1.4-2.3-2.8c-0.2-0.8-0.6-1.4-1.5-1.4
		c-0.5,0-0.5-0.3-0.6-0.7c-0.2-0.9-0.2-2.2-1.8-1.6c-0.1,0-0.3-0.1-0.3-0.1c0.2-1.4-1.6-1.7-1.7-3c0-0.2-0.2-0.4-0.4-0.3
		c-1.9,0.9-0.6-0.7-0.8-1.1c2.1-1.6,4.4-3.1,6.7-4.3c-0.3,0.8,0.2,1.1,0.9,1.2c0.5,0.1,0.9,0.1,0.5,0.8c-0.3,0.5,0.2,0.6,0.5,0.7
		c1,0.4,2,0.9,2.2,2.1c0.1,0.3,0.4,0.5,0.7,0.6c0.6,0.2,1.2,0.3,0.4,1.1c-0.4,0.4,0.2,0.7,0.6,0.8c1.3,0.4,2.3,1.3,2.9,2.6
		c0.1,0.2,0.3,0.4,0.4,0.4c1.4,0.2,1.8,1.3,1.9,2.5c0.1,0.5,0.4,0.7,0.9,0.9c1.3,0.5,2.7,0.9,2.8,2.7c0,0.1,0,0.2,0.1,0.2
		c2,0.7,1.9,3.6,4.2,4c0.1,0,0.2,0.1,0.2,0.2c0.4,1.9,2.6,2.5,3.3,4.3c0.3,0.9,1.3,1.1,1.9,1.8c0.8,1,0.8,2.7,2.5,2.8
		c-0.1,1.5,1.2,1.2,2,1.6c0.2,0.1,0.3,0.3,0.3,0.5c0,2,1.9,2,3,2.8c0.1,0.4-0.3,0.5-0.6,0.6c-1.3,0.4-2.6,0.9-3.9,1.2
		c-1-0.4-0.7-1.5-1.2-2.1c-0.3-0.9-1-1.5-1.4-2.3c-1.2-1.5-2.9-1.9-4.6-2.5c-0.5-0.2-0.8,0.2-1,0.6C75.1,50.7,74.9,51.5,74.2,51.9z"
		/>
	<path class="st24" d="M123.5,38.7c-1.2-0.6-2.3-1.4-2.9-2.7c-0.1-0.2-0.2-0.4-0.5-0.5c-0.8-0.2-1.4-0.9-1.5-1.4
		c-0.2-1.1-1.1-1.5-1.9-1.9c-1.4-0.8-2-2-2.5-3.3c-0.2-0.4,0-1.4-0.8-0.3c-0.2,0.3-0.6,0.2-0.7-0.1c-0.9-2-2.8-3.2-3.9-5.1
		c-0.7-1.2-1.3-2.9-3.2-3.1c-0.2,0-0.2-0.3-0.3-0.5c-0.3-0.7-0.6-1.5-1.5-1.7c-0.3-0.1-0.6-0.4-0.6-0.7c0.2-1.7-1.5-1.8-2.1-2.8
		c-0.1-0.2-0.4-0.2-0.7-0.1c-0.2,0.1-0.5,0.1-0.5-0.2c-0.2-1.2-0.6-1.6-1.8-2c-0.5-0.2-0.7-0.5-0.6-1c0.3-1.3,0-1.7-1.3-1.7
		c-0.9,0.1-1.3,0.1-1-1.1c0.2-0.9-0.8-1.2-1.4-1.5c2.4-0.3,4.8-0.6,7.2-0.5c0.1,0.8,0.3,1.6,1.3,1.7c0.5,0.1,0.5,0.5,0.6,0.9
		c0.3,1.4,1.2,2.2,2.3,3c1,0.8,1.9,1.7,2.6,2.8c0.5,0.7,1,1.5,1.5,2.2c0.2,0.3,0.5,0.5,0.9,0.5c0.7,0,1,0.5,1.4,1
		c0.5,0.7,1,1.4,2,1.8c0.7,0.3,1.8,1,1.5,2.2c-0.1,0.3,0,0.5,0.2,0.6c1.5,0.6,2.3,2,3.3,3.2c0.8,0.9,1.7,1.5,2.3,2.6
		c0.7,1.3,2.3,1.9,3.7,2.5c0.4,0.2,0.6,0.3,0.6,0.7c0,1.1,1,2.6,2,2.9c0.1,0.1,0.4,0.2,0.4,0.2c-0.4,1.1,1.1,1.2,1.1,2.1
		c0,0.3,0.3,0.4,0.5,0.6c1.3,1.1,2.8,2,3.4,3.8c0.1,0.4,0.5,0.7,0.8,0.6c1-0.6,0.7,0.2,0.9,0.7c0.2,0.8,0.8,1.4,1.4,1.8
		c1.3,1,2,2.5,3.4,3.4c0,0,0.1,0.1,0.1,0.1c-0.2,1.4,0.9,1.2,1.7,1.4c0.6,0.2,0.7,0.8,0.9,1.2c0.7,1.1,1.7,2,2.6,3
		c0.3,0.3,0.4,0.5,0,0.9c-0.6,0.6-0.2,0.9,0.4,1.1c0.7,0.2,1.3,0.2,2,0.3c-0.6,0.9-1.6,1.1-2.6,1.2c-0.8,0.1-1.1-0.4-1.3-1
		c-1.7-2.8-4.4-4.4-7.3-5.6c-2.3-1-4.6-1.7-6.9-2.5c-1.3-0.5-1.3-0.6-0.7-2c0.3-1.1,0.5-2.2,0.3-3.4c0.2-1.9-1-3.1-2.1-4.3
		c-0.4-0.4-0.9-0.2-1.3-0.1C124.4,38.7,124,39.1,123.5,38.7z"/>
	<path class="st25" d="M18.1,60.6c1,0.8,1.5,2,2.7,2.6c0.3,0.1,0.3,1,0.6,1.2c1,0.8,2.1,1.5,2.7,2.7c0.2,0.3,1.1-0.2,1.4,0.4
		c0.1,0.6-0.4,0.7-0.7,1c-2,1.9-2,4.9,0.1,6.7c1.3,1.1,3.9,1.2,5.4,0.2c0.4-0.3,0.8-0.9,1.4-0.7c0.5,0.5,1,1.2,1.2,1.9
		c0.4,1.5,1.8,2.1,2.7,3.1c0.1,0.1,0.4,0.2,0.5,0.4c0.2,1.6,1.6,2.2,2.6,3c1,0.8,1.4,2.5,3.2,2.4c0.5,0,0.7,0.9,0.6,1.3
		c-0.4,1.4,0.6,1.8,1.5,2.3c0.3,0.2,0.7,0.3,0.9,0.7c0.3,1,1.3,0.8,1.9,1.2c0.1,1.2-0.1,2.3-0.6,3.3c-0.7,0.4-1.2-0.2-1.7-0.4
		c-1.7-0.6-3.3-1.3-5.1-1.7c-0.4-0.1-1-0.2-1.1-0.8c0.1-0.9-0.3-1.7-0.2-2.5c0-2.1-1.7-4.5-3.6-5.1c-0.6-0.2-1.2-0.1-1.7,0.3
		c-1.1,0.8-1.8,1.8-2.2,3.2c-0.1,0.5-0.3,0.9-0.4,1.4c-0.5,0.9-1.2,0.8-1.8,0.3c-0.9-0.8-2-1.5-2.3-2.8c0-0.2-0.1-0.3-0.2-0.4
		c-1.4-1.1-2.2-2.8-3.9-3.7c-0.8-0.4-1.1-1.3-1.6-2c-0.3-0.5-0.6-0.8-1.2-0.9c-0.9-0.1-1.4-0.7-1.4-1.6c0-0.3,0-0.6-0.4-0.8
		c-1.1-0.3-1.7-1.1-2.2-2c-0.2-0.3-0.4-0.5-0.7-0.6c-0.6-0.2-1.1-0.7-1.5-1.2C14.4,68.4,16.2,64.5,18.1,60.6z"/>
	<path class="st26" d="M54.1,43.1c-0.2,0.2-0.4,0.2-0.6,0.2c-0.4,0.1-1.1-0.3-1.1,0.3c0,0.4,0.2,1.2,0.8,1.3
		c0.8,0.2,1.1,0.8,1.4,1.5c0.1,0.2,0.1,0.4,0.3,0.5c1.6,0.7,1.9,2.5,2.9,3.6c0.7,0.7,1.3,1.6,2.1,2.2c1,0.7,1.7,1.5,2.4,2.5
		c0.4,0.6,0.7,1.4,1.8,1.4c0.5,0,0.7,0.7,1,1.2c0.4,0.8,0.5,2.1,2,1.7c0.3-0.1,0.6,0.4,0.7,0.7c0.5,1.7,1.9,2.7,3,4
		c0.1,0.4-0.1,0.6-0.3,0.9c-1.1,1.2-1.9,2.7-3.1,3.8c-1.8,0.2-2.6-1.1-3.5-2.3c-0.2-0.3-0.3-0.7-0.6-0.9c-1.9-0.9-2.8-2.6-4-4.2
		c-0.6-0.8-1.4-1.3-2.3-1.7c-0.5-0.2-0.9-0.6-0.9-1.1c-0.1-0.8-0.6-1.3-1.1-1.8c-0.6-0.5-1.1-1-1.5-1.7c-0.9-1.5-2.7-2.2-3.2-4
		c0-0.2-0.2-0.3-0.4-0.3c-1.4-0.3-2.2-1.3-3-2.4c-1.3-1.9-3.2-3.3-4.4-5.3c-0.2-0.3-0.5-0.5-0.8-0.7c-0.8-0.5-1.4-1.1-1.9-2
		c-0.6-1.1-1.7-1.8-2.5-2.7c-0.7-0.7-1.2-1.5-1.1-2.5c1.4-1.3,2.7-2.6,4.1-3.8c1.4,1,3.3,1.5,3.5,3.7c0.1,0.8,0.9,1.2,1.6,1.5
		c1.1,0.4,1.9,0.9,2,2.3c0,0.6,0.6,0.6,1,0.6c0.6,0.6,0.9,1.4,1.5,1.9c0.8,0.8,1.7,1.2,2.9,1.2C53.1,42.7,53.7,42.6,54.1,43.1z"/>
	<path class="st27" d="M82.7,9c0.3,1,1.2,1.5,1.8,2.3c0.7,0.9,1.8,1.6,2.4,2.7c0.1,0.2,0.2,0.3,0.5,0.3c0.7-0.1,0.5,0.3,0.3,0.6
		c-0.5,1-0.3,1.3,0.8,1.2c0.5,0,0.6,0.3,0.8,0.5c1,0.7,1.5,1.9,2.4,2.7c0.1,0.1,0.3,0.3,0.3,0.4c-0.1,1.7,1.7,1.7,2.5,2.6
		c0.4,0.5,0.7,1,0.9,1.6c0.3,0.9,0.8,1.4,1.8,1.8c0.8,0.3,1.7,0.7,1.5,2c-0.2,1,0.8,1.5,1.6,1.7c0.5,0.2,0.9,0.3,1,0.8
		c0.1,0.5,0.5,0.9,1,1.1c0.7,0.3,1.2,0.6,0.9,1.5c-0.2,0.7,0.2,1.1,0.9,0.7c0.3-0.2,0.6-0.4,0.8,0.1c0.3,0.8,1,1.4,1.3,2.1
		c0.4,1,1.3,1.3,2.1,1.9c0.8,0.6,1.7,1,2.4,1.6c0.2,0.2,0.5,0.4,0.5,0.5c-0.2,1.5,1.4,2,1.8,3.2c0.2,0.4,0.4,0.5,0.8,0.2
		c0.6-0.4,1,0.2,1,0.6c-0.1,0.7,0.3,1.1,0.6,1.6c0.3,0.3,0.3,1.2,0.9,0.2c0.1-0.2,0.4,0.1,0.6,0.2c1.2,0.8,2.1,0.4,2.4-0.9
		c0.1-0.6,0.2-1.2,0.7-1.6c0.4,0.5,0.1,1,0,1.4c-0.2,0.6-0.2,1.3-0.7,1.8c-0.2,0.2-0.5,0.2-0.8,0.2c-0.1,0-0.3,0-0.4,0
		c-2.7-0.1-5.3,0.6-8,0.9c-0.5,0-0.9,0.2-1.4,0.1c-0.8-1.1-1.7-2-2.7-2.8c-0.2-0.1-0.4-0.3-0.3-0.5c0.6-1-0.3-1.2-0.9-1.4
		c-0.9-0.4-0.8-1.1-0.5-1.8c0.3-0.7,1.1-1.1,1.3-2c0.2-1.1,0.2-2.3-0.9-3c-1-0.8-2.2-0.8-3.4-0.3c-0.4,0.2-0.7,0.5-1.1,0.7
		c-1.4,0.3-2.9-0.7-3.2-2c-0.2-0.7-0.7-1.1-1.1-1.6c-1.3-1.6-3.6-2.4-4-4.7c-0.1-0.5-0.4-0.9-1-0.9c-0.9,0-1.4-0.6-1.8-1.2
		c-0.7-1-1.5-1.8-2.5-2.5c-1-0.7-1.2-2.2-2.4-2.9c-0.3-0.2-0.1-0.7-0.2-1c-0.1-0.7-0.3-1.2-1.2-1.1c-0.5,0.1-0.9-0.3-1.1-0.8
		c-0.2-0.6-0.6-1-0.8-1.6c-0.2-0.4-0.4-0.9-0.9-0.9c-1.4-0.1-1.8-1.5-2.7-2.2c-0.6-0.5-0.6-1.7-0.3-2.6C78.9,9.9,80.8,9.5,82.7,9z"
		/>
	<path class="st28" d="M60.2,77.4c-0.5-0.3-0.4-0.9-0.6-1.4c-0.2-0.6-0.6-1.2-1.2-1.5c-1.1-0.5-1.8-1.3-2.5-2.2
		c-0.9-1.2-2-2.2-3-3.2c-0.8-0.8-1.7-1.5-1.8-2.7c0-0.3-0.2-0.7-0.3-0.7c-2.1-0.7-2.6-3-4.6-4c-0.6-0.3-1.8-0.9-1.6-2.3
		c0.1-0.5-0.8-1.4-1.3-1.6c-0.8-0.2-1.2-0.8-1.4-1.3c-0.6-1.1-1.5-1.7-2.6-2.2c-0.8-0.3-1.6-0.7-0.9-1.8c0.1-0.1,0-0.4,0-0.4
		c-0.9-0.2-1-1.2-1.7-1.6c-1.9-1.1-2.7-3-4-4.6c-1-1.2-2-2.4-3.8-2.4c1.2-1.7,2.7-3.2,4.1-4.8c0.4-0.1,0.7,0,1,0.3
		c2.2,2.4,4.5,4.8,6.7,7.2c1.1,1.2,2.3,2.3,3.2,3.6c1,1.3,2.4,2.4,3.3,3.8c0.5,0.9,1.2,1.6,2.1,2.1c0.6,0.3,0.9,0.7,1.2,1.3
		c0.4,0.9,1,1.7,1.9,2.3c1.3,0.7,2.1,1.9,2.9,3.1c0.1,0.1,0.1,0.3,0.3,0.4c1.7,0.9,2.4,2.8,3.9,4c0.8,0.7,1.2,1.7,2,2.4
		c1.1,1,2.6,1.6,3.4,3c0.4,0.7,0.9-0.5,1.3,0c0.2,0.6,0.2,1.1,0.1,1.7c-0.1,1-0.8,1.6-1.8,1.8c-1.2,0.3-2.4,0.6-3.4,1.4
		C60.7,77.3,60.5,77.5,60.2,77.4z"/>
	<path class="st29" d="M64.9,19.8c-0.4-1-0.6-2-1.5-2.7c-0.3-0.3-0.5-0.5-0.5-0.9c3-1.3,5.9-2.9,9.1-3.8c0.2,0.4,0.2,0.8,0.3,1.3
		c0.2,0.8,0.4,1.5,1.5,1.2c0.1,0,0,0,0.1,0c0.4,0.1,2.6,2.5,2.5,2.9c-0.1,0.6,0.1,0.9,0.7,1.1c0.3,0.1,0.6,0.2,0.8,0.5
		c1.2,2.1,3,3.7,5,5.1c0.3,0.2,0.6,0.5,0.6,1c0,1.1,0.7,1.9,1.5,2.3c1,0.5,1.6,1.4,2,2.3c0.8,1.6,2,2.8,3.4,3.7
		c0.8,0.5,1.3,1.4,2.4,1.5c0.2,0,0.4,0.3,0.5,0.5c0.2,1.1,1,1.6,1.9,2.2c0.8,0.5,1.3,1.3,1.1,2.4c-0.1,0.5,0.1,0.7,0.6,0.8
		c1.3,0.3,2.3,1,2.9,2.4c0.6,1.4,1.6,2.6,3,3.4c0.9,0.5,1.2,1.4,1.1,2.5c-0.7,0.8-1.9,1.1-2.5,2c-1,0.1-1.9-0.1-2.4-1.1
		c-0.3-0.5-0.7-1-1.2-1.4c-0.6-0.4-1-1-1.2-1.7c-0.2-0.7-0.5-1.2-1.2-1.3c-0.3-0.1-0.7-0.3-0.7-0.6c-0.3-1.3-1.4-1.8-2.5-2.3
		c-0.5-0.3-1.1-0.7-0.9-1.5c0.1-0.3-0.1-0.5-0.3-0.7c-1.1-0.9-2.1-2.1-2.7-3.4c-0.1-0.3-0.3-0.4-0.6-0.5c-0.1,0-0.2,0-0.3-0.1
		c-0.9-0.5-1.6-1.4-2.7-1.6c-0.4-0.1-0.5-0.7-0.5-1.1c0-1-0.2-1.7-1.4-1.9c-0.4,0-0.7-0.2-0.8-0.6c-0.2-0.5,0.1-1.5-1.1-0.9
		c-0.3,0.2-0.5-0.5-0.5-0.9c-0.1-0.4-0.1-0.9-0.7-0.6c-0.3,0.1-0.5,0.5-0.8,0.2c-0.3-0.3-0.3-0.7-0.3-1.1c0-0.2,0.2-0.4,0.2-0.6
		c0.1-0.8,0-1.5-1-1.8c-1.2-0.4-2.1-1.1-2.9-2.1c-1.1-1.4-2.6-2.4-3.3-4.1c0-0.1-0.2-0.1-0.3-0.1c-0.7-0.1-1.1,0.4-1.6,0.7
		c-1.1,0.7-2.3,1.1-3.6,0.6C65.5,20.6,65,20.4,64.9,19.8z"/>
	<path class="st27" d="M103.8,49.3c-0.2-1.1-0.5-1.8-1.7-2.5c-1.2-0.8-2.4-2.2-2.9-3.8c-0.3-0.9-1.8-2-2.7-1.7
		c-0.6,0.2-0.6,0-0.5-0.5c0.2-2.1-0.2-2.7-2.2-3.4c-0.3-0.1-0.5-0.3-0.5-0.7c0-1.1-0.2-1.2-1.2-1.3c-0.1,0-0.3-0.1-0.4-0.3
		c-0.6-1-1.9-1.3-2.6-2.2c-0.7-0.9-1.7-1.4-2.1-2.5c-0.4-0.9-0.8-1.9-2-2.5c-0.9-0.5-1.9-1.3-1.7-2.7c0.1-0.4-0.4-0.6-0.8-0.8
		c-1.8-1-3-2.6-4.3-4.1c-0.5-0.6-0.6-1.5-1.7-1.5c-0.6,0-0.5-0.7-0.3-1.1c0.2-0.5,0.1-0.9-0.5-1c-0.7-0.1-0.9-0.5-1-1.1
		c-0.1-0.5-0.4-1-1.1-0.7c-0.7,0.4-1,0-1.2-0.6c-0.3-0.7-0.6-1.5-0.3-2.3c1.7-0.6,3.2-1.5,5-1.7c0,0.7,0.3,1.3,0.3,2
		c0,0.4,0.1,0.6,0.5,0.6c0.2,0,0.5,0.1,0.5,0.2c0.2,1.2,1.2,1.3,2,1.7c0.9,0.5,1.1,1.6,1.5,2.4c0.2,0.5,0.4,0.9,1,0.9
		c0.3,0,0.6-0.6,0.9-0.2c0.3,0.5,0.7,1.1,0.6,1.6c-0.1,0.9-0.1,1.5,1.1,1.4c0.5-0.1,0.4,0.4,0.5,0.8c0.2,0.9,0.4,1.6,1.5,1.9
		c1.2,0.4,1.5,1.8,2.3,2.7c0.2,0.3,0.4,0.6,0.8,0.6c1.2-0.2,1.5,0.6,1.8,1.5c0.2,0.9,0.6,1.6,1.4,2c0.7,0.3,1.2,0.9,1.6,1.6
		c0.1,0.2,0.3,0.5,0.6,0.6c1.1,0.2,1.4,0.9,1.4,1.9c0,1,1.3,0.5,1.3,0.9c-0.2,1,0.4,1,1,0.9c0.2,0,0.4,0,0.6,0
		c0.2,0.4,0,0.8-0.1,1.2c-0.4,2.2,0.9,3.7,3.1,3.6c0.4,0,0.9-0.2,1.3,0.1c-0.2,0.7-0.4,1.4,0.7,1.5c0.3,0,0.5,0.4,0.8,0.5
		c1,0.5,0.6,0.8-0.4,1c0.8,0.5,1.7,0.7,1.7,1.8c0,0.2,0.5,0.2,0.7,0.2c0.7,0.2,0.8,0.6,0.2,1.2c0,0.2-0.1,0.3-0.3,0.4
		C106.6,48.4,105.3,49.1,103.8,49.3z"/>
	<path class="st18" d="M201.5,123.5c-0.6,0.5-1,0.9-1.3-0.3c-0.4-1.3-1.1-2.5-2.6-2.9c-0.6-0.2-0.6-0.7-0.7-1.2
		c-0.1-0.5,0-1.6-1.2-0.8c-0.3,0.2-0.5-0.1-0.7-0.3c-0.2-0.4-0.4-0.9-0.6-1.3c-0.2-0.6-0.4-1-1.1-1c-0.9,0-1.3-0.6-1.5-1.4
		c-0.2-1-1-1.7-1.9-2.1c-0.7-0.4-1.5-0.5-1.4-1.7c0.1-0.8-0.7-1.6-1.4-2.2c-0.7-0.5-1.4-0.9-1.6-1.8c0-0.2-0.2-0.5-0.5-0.3
		c-0.9,0.8-1.3-0.4-1.3-0.6c0-0.9-0.6-1.2-1.2-1.5c-0.9-0.5-1.2-1.3-1.5-2.2c-0.1-0.3,0-0.6,0.4-0.7c2.6,0.5,5.2,1.3,7.5,2.6
		c2.5,1.4,5.2,2.5,7.9,3.5c1.2,0.5,2.4,0.1,3.6-0.1c0.5-0.1,0.6-0.7,0.9-0.9c0.8-0.7,1,0.6,1.6,0.5c0.2,5.6-0.4,11.1-1.5,16.6
		C201.6,123.2,201.5,123.3,201.5,123.5z"/>
	<path class="st30" d="M65.9,72.1c-0.6,1.1-1,1.1-1.7,0c-0.4-0.6-1-1.1-1.7-1.5c-0.9-0.6-1.8-1.4-2.4-2.3c-0.4-0.6-1-1.1-1.4-1.6
		c-1.1-1.6-2.6-2.7-3.8-4.1c-0.8-1.1-1.5-2.2-2.7-3c-0.7-0.4-1.3-0.9-1.6-1.7c-0.5-1.2-1.3-1.9-2.4-2.5c-0.5-0.3-0.8-0.8-1.2-1.3
		c-0.5-0.8-0.9-1.7-1.9-2c-0.4-0.1-0.6-0.4-0.7-0.8c-0.1-0.9-0.6-1.5-1.3-1.8c-1.1-0.6-1.5-1.6-2.2-2.4c-1-1.2-2.1-2.2-3-3.3
		c-1.3-1.6-3-2.8-4.2-4.6c-0.1-0.2-0.5-0.3-0.7-0.4c1-1.1,2.1-2.2,3.1-3.4c0.5,2.1,2.5,3,3.5,4.6c1.3,2,3.4,3.1,4.7,5.2
		c1,1.7,2.8,2.8,3.8,4.5c0.2,0.4,0.8,0.8,1.2,0.7c1.2-0.1,1.2,0.9,1.7,1.5c1.2,1.5,2.5,3,3.8,4.4c0.7,0.7,1.5,1.3,1.5,2.4
		c0,0.5,0.4,0.5,0.7,0.7c1.2,0.7,2.2,1.4,3,2.7c0.7,1.1,1.4,2.6,3,3c0.4,0.1,0.7,0.4,0.9,0.8c0.6,1.5,1.7,2.5,3.4,2.7
		C67.1,70,66.7,71.1,65.9,72.1z"/>
	<path class="st15" d="M13.1,72.6c1.5,0.5,2.4,1.8,3.5,2.9c0.8,0.7,2,1.1,1.7,2.6c0,0.1,0.3,0.4,0.5,0.4c1.1,0,1.6,0.6,2.1,1.6
		c0.4,0.8,0.9,1.9,2.2,1.9c0.1,0,0.3,0.2,0.4,0.3c0.4,1.5,1.9,2,2.7,3.1c0.4,0.6,0.3,1.3,1,1.8c0.5,0.4,1.1,0.8,1.5,1.4
		c0.2,0.3,1,0.6,1.4-0.1c0.1,0,0.1,0.1,0.2,0.1c0.5,0.8,0,1.7,0,2.5c0.1,1.9,0.1,2-1.8,2.5c-0.7,0.2-1.3,0.5-2,0.6
		c-0.9,0-1-0.8-1.3-1.4c-0.6-1.1-1.7-1.4-2.6-1.9c-1.6-0.8-3-2-4.7-2.4c-0.4-0.1-0.5-0.3-0.3-0.7c0.3-0.5,0.5-1.1,0.4-1.7
		c-0.2-0.8-0.1-1.6,0-2.5c0.9-2.3-0.5-3.8-1.7-5.4c-0.3-0.3-0.7-0.3-1,0c-0.7,1.3-2.2,1.8-3.1,3c-0.5,0.5-0.8,1.4-1.6,1.5
		c-0.4-1.1,0.2-2.1,0.5-3.2C11.5,77.2,12.1,74.8,13.1,72.6z"/>
	<path class="st30" d="M154.9,163.5c1,1.2,2.1,2.3,2.8,3.7c0.3,0.5,1.1,0.9,1.7,1.2c0.8,0.4,1.3,1,1.7,1.7c0.6,1.1,1.8,1.6,2.5,2.6
		c0.8,1,1.7,1.9,2.6,2.9c0.9,1,1.1,2.5,2.2,3.4c-0.8,1.1-2.1,1.7-3.1,2.6c0-0.3-0.1-0.6-0.4-0.7c-1-0.3-1.6-0.9-1.8-1.9
		c0-0.2-0.2-0.3-0.4-0.3c-0.9,0-1.3-0.3-0.9-1.3c0.1-0.3-0.3-0.5-0.6-0.7c-0.9-0.6-1.6-1.3-2.1-2.3c-0.3-0.6-0.7-1.2-1.4-1.4
		c-0.1,0-0.3-0.1-0.4-0.3c-0.8-1.7-2.4-2.6-3.8-3.7c-0.9-0.7-1.4-1.9-2.1-2.9c-0.2-0.3-0.3-0.7-0.6-0.6c-1.1,0.4-1.3-0.7-1.6-1.2
		c-0.4-0.9,0.3-0.9,1-0.8c0.2-0.1,0.3-0.2,0.5-0.2C152.1,163.9,153.5,163.4,154.9,163.5z"/>
	<path class="st31" d="M48.1,39.7c-0.7,0.5-1.2,0.2-1.2-0.6c0-1.1-0.5-1.7-1.5-2c-0.8-0.2-1.4-0.9-2-1.4c-0.1-0.1-0.2-0.2-0.2-0.4
		c-0.2-1.5-0.4-1.9-1.7-2.5c-0.6-0.3-0.7-1-1.3-1.4c1.3-1,2.3-2.4,3.8-3.1c0.9,0.2,1.2,1,1.8,1.6c1.2,1.1,1.8,2.7,3.4,3.4
		c0.5,0.2,0.7,0.7,1.1,1.1c0,0.1,0,0.3,0,0.3c-1.3,1.2-1.9,2.7-1.9,4.4C48.4,39.4,48.2,39.6,48.1,39.7z"/>
	<path class="st7" d="M19.5,148.9c-0.1,0.1-0.2,0.2-0.3,0.2c-0.2,0-0.4,0.1-0.6,0.1c-0.9,0.1-1.4,0.6-1.4,1.5
		c-0.3,0.3-0.6,0.3-1,0.1c-0.9-0.8-1.9-0.4-2.9-0.5c-0.7,0-1.4,0-1.6-0.8c-0.8-1.3-1.4-2.7-1.9-4.1c-0.2-0.9,0.6-0.8,1-0.8
		c1.4,0,2.9-0.1,4.3-0.3c1-0.1,1.8-0.4,2-1.5c0.6-0.4,1,0,1.1,0.4C18.9,145.2,19.4,147,19.5,148.9z"/>
	<path class="st32" d="M10.4,82.7c0.5-0.6,1-1.1,1.4-1.7c1.6-0.5,3,0.1,4.3,0.8c0.7,0.4,1.5,0.9,2,1.6c-0.1,0.9,0.2,1.8-0.2,2.6
		c-0.5-0.3-1-0.6-1.5-1c-1.9-1.8-4.2-1.3-6.5-1.3C10.1,83.3,10.3,83,10.4,82.7z"/>
	<path class="st33" d="M16.4,150.8c0.3,0,0.6,0,1,0c0.1,0.8-0.1,1.6-0.2,2.4c-0.8,0.7-1.9,0.9-2.9,1.2c-0.7-1.1-1.3-2.2-1.7-3.4
		C13.9,151.8,15.1,151.2,16.4,150.8z"/>
	<path class="st34" d="M14.3,154.4c0.8-0.8,1.9-0.9,2.9-1.2c0.1,1.2-0.7,2.4-2,2.9C14.9,155.5,14.6,155,14.3,154.4z"/>
	<path class="st35" d="M2.2,117.2c0-3.5,0-7,0-10.5c0-0.4,0-0.9-0.2-1.3c0.1-0.1,0.2-0.2,0.3-0.2c2.4,0,4.3-1,5.9-2.7
		c0.8-0.8,1.7-1.4,2.7-2c1.6-1,5.7-0.2,6,1.8c-0.3,0.9,0,2-0.3,2.8c-0.8,2.1,0.4,4.3-1,6.3c-0.8,1.1-1.1,2.8-1,4.3
		c0,0.2,0,0.5,0,0.7c-0.7,2.2-0.1,4.4,0,6.6c0.1,0.7-0.1,1.4-0.3,2.1c-0.4,1-0.4,1.9,0.4,2.7c0.3,0.3,0.5,0.7,0.5,1.2
		c0.1,1,0.2,2,0.7,3c0.4,0.8-0.1,1.4-1,1.4c-1.4-0.8-2.9-0.9-4.4-0.4c-1.7,0.5-3.3,0.9-5.1,0.4c-1-2.5-1.5-5.1-2-7.7
		C3,123,2.3,120.2,2.2,117.2z"/>
	<path class="st6" d="M17.4,142.9c0.2,1-0.2,1.5-1.3,1.7c-1.7,0.3-3.4,0.5-5.2,0.4c-0.4,0-0.9-0.2-1,0.5c-1.3-2.8-2.5-5.7-3.3-8.7
		c2.3-0.3,4.6-1.1,7-0.8c0.6,0.1,1.1,0,1.7,0.2c1.1,0.1,1.4,0.8,1.2,1.7c-0.2,1.1-0.1,2,0.6,2.9C17.6,141.4,17.6,142.2,17.4,142.9z"
		/>
	<path class="st32" d="M15.2,136.7c-2.1-0.4-4.2-0.4-6.3,0.2c-0.8,0.2-1.5,0.5-2.3,0c-0.4-1.1-0.9-2.2-1-3.3c0-1.5,0.9,0.1,1.2-0.4
		c0.7,0.8,1.5,0.3,2.2,0.1c1.3-0.4,2.5-0.7,3.9-0.7c0.8,0,1.5,0.2,2.1,0.7C16,134.7,16,135.5,15.2,136.7z"/>
	<path class="st36" d="M16.4,150.8c-0.6,0.6-1.3,0.8-2.1,1c-0.7,0.1-1.3,0-1.7-0.7c-0.3-0.5-0.7-0.8-0.7-1.4c0.5,0.7,1.3,0.4,2,0.5
		c0.6,0,1.3,0,1.9,0C16.2,150.1,16.4,150.3,16.4,150.8z"/>
	<path class="st37" d="M2.2,105.4L2.2,105.4c-0.1,0-0.1,0-0.1,0c-0.1-0.1-0.2-0.1-0.3-0.2c0-0.3-0.1-0.7,0.5-0.7
		C2.5,104.8,2.6,105.1,2.2,105.4z"/>
	<path d="M2.2,102.5c-0.6,0.1-0.4-0.3-0.4-0.6c0.1,0,0.3,0,0.4,0c0,0,0,0,0,0C2.5,102.1,2.4,102.3,2.2,102.5z"/>
	<path class="st32" d="M2.2,102.5c0-0.2,0-0.4,0-0.7c0.3-0.1,0.5-0.2,0.8-0.3c1.7-0.2,3.1-0.9,4.2-2.2c2-2.3,4.7-2.7,7.5-2.3
		c1.3,0.1,2.4,1,3.3,1.9c0.3,0.3,0.5,0.8,1,0.5c0.5,1.9,0.2,2.4-2.2,2.9c-2.5-2.9-5.6-2.5-8.5,0.5c-1.7,1.7-3.7,2.9-6.2,2.6
		c0-0.3,0-0.6,0.1-0.9c-0.1-0.1-0.1-0.2-0.2-0.3c0.3-0.5,0.3-0.9,0-1.4C2.1,102.8,2.2,102.7,2.2,102.5z"/>
	<path class="st38" d="M16.9,102.3c0.4-0.1,0.5-0.6,1.1-0.5c0.6,0,1.2-0.5,1.1-1.3c0-0.4,0-0.7,0-1c0-0.4,0.4-0.4,0.7-0.5
		c0.8-0.1,1.5-0.4,1.9-1.2c0.2-0.8,1.7-2.1,2.5-2c0.3,0,0.6,0.1,0.7,0.5c-0.1,0.2-0.2,0.4-0.4,0.5c-3.3,2.6-4.5,6.4-5.4,10.2
		c-0.5,2.2-1.1,4.4-1.5,6.6c-0.5,2.5-0.9,5-0.4,7.6c0.2,1.3,0.1,2.7,0.3,4.1c0.2,1.6,0.3,3.3,1.1,4.7c0.4,0.7,0.4,1.5,0.1,2.3
		c-0.4,1-0.3,2.1-0.1,3.1c0.6,3.6,1.3,7.1,2.7,10.5c0.3,0.8,0,1.8,0.7,2.5c-0.7,0.5-1.7,0.1-2.4,0.5c-0.8-1.5-1-3.2-1.2-4.9
		c-0.1-0.6-0.3-1.1-1-1.1c-0.3-1-0.4-2-1.2-2.8c-0.5-0.5-0.2-1.3,0-2.1c0.1-0.7,0.3-1.5-0.9-1.4c0.5-1.2,0.1-2.3-0.2-3.3
		c0.9,0,1.2-0.6,0.7-1.3c-0.5-0.7-0.7-1.4-0.6-2.3c0.1-0.5-0.1-1.2-0.7-1.7c-1-0.9-0.7-2.1-0.2-3.1c0.3-0.6,0.3-1.1,0.3-1.6
		c-0.2-2.3-0.5-4.5-0.1-6.8c0.2-1.4,0.6-2.7,0.7-4.1c0-0.7,0.5-1.2,0.9-1.8c0.5-0.8,0.9-1.5,0.1-2.4c-0.4-0.5-0.2-1.1,0.2-1.5
		c0.5-0.5,0.4-0.9,0.3-1.5C16.3,104.2,16,103.2,16.9,102.3z"/>
	<path class="st39" d="M24.8,96.1c-0.1-0.1-0.3-0.2-0.4-0.2c-1,0.4-2.1,0.8-2.7,1.8c-0.1-0.7,0.1-1.3,0.7-1.8c1-0.9,1-0.9-0.2-1.6
		c0.6,0,1.2-0.1,1.8,0.4c0.2,0.2,0.6,0.2,0.9-0.1c0.3-0.2,0.1-0.5,0-0.7c-0.3-0.5,0.5-0.8,0.3-1.3c0.4,0.4,0.5,1.1,1.2,1.2
		C26,94.8,25.5,95.5,24.8,96.1z"/>
	<path class="st7" d="M103.8,49.3c1.4-1,3.1-1.1,4.6-1.7c2.7-0.4,5.4-0.8,8.1-1.2c0.6-0.1,1.2,0,1.8,0c0.1,0.2,0.2,0.3,0.2,0
		c0.2,0,0.5,0,0.7,0c2-0.1,4,0.1,6,0.3c0.5,0,1,0.2,1.5,0.2c0.3,0,0.8,0.1,0.8,0.4c0.1,0.8,0.8,0.6,1.3,0.8c3.8,1.2,7.7,2.3,11,4.7
		c1.4,0.9,2.6,2,3.3,3.5c0.1,0.2,0,0.5-0.2,0.5c-1.4,0.1-2.8,0.9-4.2,0.4c-2.2-2-4.7-3.7-7.6-4.7c-3.3-1.2-6.8-1.9-10.2-2.4
		c-3.9-0.6-7.5-0.3-11.2,1.3c-3.6,1.5-6,3.8-7.7,7.1c-0.2,0.3-0.4,0.6-0.7,0.8c-1.6,1.1-2.2,2.8-2.3,4.6c-0.3,0.3-0.1,0.5,0.1,0.8
		c0,0.3,0,0.5-0.2,0.7c-0.7,1.1-1,2.3-1.2,3.5c-0.3,2.8-1,5.7-0.9,8.5c0,2.5,0.2,5-0.2,7.5c-0.1,1,0.2,1.9,0.4,2.8
		c0.5,2.3,0.9,4.5,1.8,6.7c0.4,1,0.5,2.1,1,3c0.6,1,0.9,2.1,1.4,3.2c0.5,0.9,1.1,1.2,2.1,1.1c4.6-0.7,8.8-2.3,12.7-4.8
		c0.4-0.3,0.8-0.6,1.3-0.4c0.6,0.8,0.5,1.7,0.2,2.6c-0.1,0.3-0.3,0.8,0.1,0.9c0.6,0.1,0.5-0.4,0.6-0.8c0.8-2.7,0.5-5.5,1.1-8.3
		c1-4.2,2-8.5,4.2-12.3c0.9-1.5,1.6-3,2.5-4.5c2.4-4.3,5.8-7.8,9.6-10.8c1.6-1.2,3.1-2.5,4.5-3.9c1.2-1.1,2.5-1.8,4-2.2
		c1,0.1,1.6-0.7,2.5-0.9c1.6,0.1,3.3,0.2,4.8,0.8c1.6,0.6,3.2,1.4,4.5,2.5c2.1,0.3,3.8,1.1,4.9,3c0.1,0.2,0.4,0.5,0.4,0.7
		c0,1.1,0.6,1.8,1.5,2.3c1.8,3,3,6.2,2.7,9.8c0,0.3-0.1,0.7,0.2,1c0.2,1-0.5,1.3-1.2,1.2c-1-0.2-2-0.5-2.6-1.6
		c-0.2-1.7-0.4-3.5-0.9-5.2c-1.3-4.5-4.3-7.5-8.5-9.5c-0.5-0.3-1.1-0.5-1.6-0.8c-0.8-0.5-1.5-0.6-2.3,0.1c-0.7,0.5-1.6,0.3-2.4,0.6
		c-1.5,0.6-2.7,1.5-4.2,2.1c-0.8,0.1-1.5,0.4-2.1,1.1c-0.6,0.7-1.4,1.2-2,1.8c-1.7,1.5-3.2,3.4-4.6,5.1c-2.4,2.9-4.6,6-6.3,9.5
		c-0.9,1.8-1.7,3.5-2.7,5.2c-0.8,1.4-0.6,3-1.2,4.4c-0.2,0.6-0.3,1.3-0.5,2c-0.8,2.3-1.2,4.6-0.7,7c0,1.7,0.9,2.6,2.5,3.3
		c3,1.3,6.1,1.7,9.2,2.4c0.3,0.1,0.6,0.1,0.9,0.2c0.9,1.1,1,2.3,0.1,3.2c-1.1,0.5-2.3,0.5-3.5,0.3c-0.6,1.1-1.3,0.5-2,0
		c-0.2-0.7-0.7-0.3-1.1-0.3c-1.8-0.1-3.5-0.4-4.9-1.6c-2-1.1-4-2.2-5.3-4.3c-0.7-1-0.8-0.9-2.4,0c-0.5,0.9-1.2,1.2-2.3,0.9
		c-0.2,0-0.3-0.1-0.5,0c-2.5,1-5.3,1.1-7.7,2.6c-0.1,0.1-0.2,0.2-0.3,0.2c-0.3,0.2-0.7,0.3-1,0.3c-0.4,0-0.8,0-1.1,0
		c-0.2,0-0.4,0-0.6,0c-0.6,0-1.2,0-1.8,0c-0.5,0-0.9-0.2-1.4-0.4c-1.7-1.3-2.4-3.3-3.1-5.2C93.9,95.8,93,90.5,92.6,85
		c-0.5-6.9,0.3-13.6,1.6-20.4c0.5-2.8,1.4-5.6,3-8.1c0.5-0.9,0.5-2,1.4-2.7c1-0.9,1.7-1.9,2.8-2.6C101.8,50.1,102.9,49.9,103.8,49.3
		z"/>
	<path class="st35" d="M170.3,97c-1.1,2.6-2.1,5.1-3.2,7.7c-0.8,0.5-1.3,1.3-1.7,2.1c-1.8,3.1-4.6,5.3-7.4,7.4
		c-0.2,0.2-0.5,0.2-0.5,0.6c-1.4,0.3-2.6,0.9-3.8,1.6c-0.7-0.1-1.4,0.6-2.2,0.1c-0.4-1-0.3-2,0.4-2.9c0.2-0.3,0.4-0.8,0.1-1.1
		c-0.3-0.3-0.7-0.1-1,0c-0.5,0.1-1,0.4-1.5,0.5c-0.9,0.2-1.9-0.1-2.1-0.7c-0.3-0.9,0.1-1.5,0.8-2c0.4-0.3,1-0.6,1.5-0.8
		c0.5-0.2,0.9-0.5,0.3-1c-0.5-0.5-0.3-1,0-1.5c0.3-0.4,0.6-0.7,0.8-1c0.7-1.2,0.6-1.8-0.6-2.5c-1.5-0.9-1.6-1.8-0.2-2.9
		c0.8-0.7,1.4-1.4,1.3-2.5c0-0.4,0.1-0.7,0.1-1.1c0.3-1.9,0.3-1.9,2.2-1.4c0.6,0.2,0.9,0,1.1-0.6c0.1-0.4,0.2-0.7,0.4-1
		c0.2-0.5,0.5-0.8,1.1-0.6c0.7,0.2,1.1,0,1.3-0.6c0.2-0.4,0.4-0.7,0.9-0.8c1-0.1,1.3-0.8,1.5-1.6c0.2-0.8,0.4-1.6,0.8-2.4
		c0.2-0.3,0.4-0.7,0.8-0.6c0.5,0.1,0.4,0.5,0.5,0.9c0.1,0.8,0.2,1.7,0.5,2.5c0.4,1.1,1,1.2,1.7,0.3c0.7-0.8,1.2-1.8,1.7-2.8
		c0.2-0.4,0.4-0.8,0.7-1.1c0.6-0.7,1-0.6,1.2,0.3c0.2,0.9,0.6,0.9,1.3,0.7c1.4-0.4,2.7-0.4,4,0.3c0.3,0.3,0.6,0.6,0,1
		c-1,0.8-0.7,2.1-1.1,3.1c0,0.1,0.3,0.3,0.4,0.4C171,94,170.9,95.6,170.3,97z"/>
	<path class="st6" d="M145.1,117.7c-1.3-0.5-2.8-0.4-4.1-1.1c-1-0.5-2-0.8-2.8-1.4c-0.4-0.3-0.8-0.6-0.8-1.1
		c0.5-0.6,0.4-1.4,0.9-2.1c0.3-0.4-0.1-0.8-0.4-1.2c-0.6-0.8-0.5-1.5,0.2-2.1c1-0.8,1.3-1.5,0.6-2.7c-0.5-0.9,0-1.9,0.9-2.5
		c0.9-0.6,1.7-1.2,1.3-2.5c-0.1-0.4,0.2-0.9,0.6-1.1c0.7-0.5,0.8-1.1,0.8-1.8c0-2.1,0.5-2.7,2.5-3.4c0.6-0.2,0.8-0.5,0.8-1.1
		c0-2.3,1.2-3.7,3.3-4.5c0.9-0.3,1.6-1,2.2-1.8c0.3-0.5,0.7-1,1-1.5c0.8-1.3,1.8-2.2,3.4-2.2c0.8,0,1.6-0.4,1.9-1.1
		c1.2-2.1,3.1-2.1,5.1-2.1c0.9,0,1.7,0,2.5-0.3c0.9-0.3,1.7-0.1,2.6,0.1c0.8,0.2,1.6,0.6,2.6,0.5c0.3,0,0.6,0.2,0.8,0.5
		c0.6,0.8,0.3-0.3,0.6-0.2c0.7,1.1,1.6,2.1,1.5,3.6c-0.6,0.1-0.8,0.7-1.1,1c-1,1.2-2.1,1-2.7-0.5c-0.7-1.7-2.2-1.9-3.5-0.5
		c-0.4,0.5-0.7,1.1-1.1,1.7c-0.3,0.6-0.8,0.7-1.1,0.1c-0.5-1-1.2-1.7-2.3-1.4c-1.2,0.3-2,1.2-2.3,2.4c-0.2,1.1-0.8,1.9-1.7,2.5
		c-0.4,0.2-0.8,0.4-1.2,0.3c-1-0.3-1.6,0.2-2,1c-0.4,0.9-0.7,1.4-2,1c-0.9-0.3-1.6,0.7-2,1.5c-0.5,1-1,2-1.1,3.2
		c-0.1,1.1-0.5,2.2-1.4,3c-0.4,0.4-0.6,0.8-0.9,1.3c-0.7,1.1-0.6,2.2,0.2,3.2c0.7,0.8,0.9,1.5,0.1,2.3c-0.3,0.3-0.4,0.7-0.4,1.1
		c-0.1,0.9-0.5,1.6-1.1,2.2c-1.2,1.2-0.4,2.5,0.1,3.7c0.4,1,1.1,1.7,2.4,1.6c1-0.1,1.3,0.3,1,1.2c-0.2,0.5,0.2,1.1-0.2,1.6
		C147.5,118.1,146.2,118.5,145.1,117.7z"/>
	<path class="st40" d="M171.4,81c0,0.4,0.2,0.9-0.3,1.3c-0.4-0.9-0.9-1.6-2-1.2c-0.2,0.1-0.6-0.2-0.9-0.3c-1.3-0.5-2.6-0.8-3.9-0.2
		c-1.1,0.4-2.3,0-3.4,0.1c-1.3,0.1-2.4,0.5-3.1,1.7c-0.7,1.3-2.1,1.5-3.4,1.6c-0.6,0.1-1,0.2-1.3,0.7c-0.2,0.3-0.4,0.6-0.6,0.9
		c-1.2,1.8-2.5,3.6-4.7,4.3c-1.5,0.5-1.9,1.9-1.9,3.3c0,1-0.1,1.6-1.4,1.7c-1.4,0.1-2.3,1.7-1.9,3.4c0.2,0.7,0,1.1-0.6,1.5
		c-0.7,0.4-1.1,0.9-0.6,1.7c0.3,0.5,0,1-0.4,1.4c-0.3,0.3-0.7,0.5-1.1,0.7c-1,0.8-1.2,1.8-0.5,2.8c0.6,0.8,0.4,1.3-0.2,1.8
		c-1.4,1.3-1.4,1.3-0.4,2.8c0.1,0.1,0.1,0.2,0.2,0.3c0.1,0.2,0.1,0.6-0.1,0.7c-1,0.3,0.1,1.9-1.3,1.9c-0.6-0.9-1.3-1.8-1.8-2.7
		c-0.3-0.5-0.2-1.3-0.3-1.9c-0.1-0.4,0.1-0.9-0.5-1.1c0.3-1.1,0.5-2.1-0.2-3.1c0.2-1.4,0.8-2.8,1.2-4.2c0.5-0.7,0.5-1.5,0.7-2.2
		c0.2-0.6,0.2-1.2,0.7-1.6c0.7-0.7,0.8-1.7,1.4-2.5c1.7-2.5,3.3-5.2,5.8-7.2c0.8-0.6,1.3-1.5,1.9-2.3c1.2-1.5,2.6-2.5,4.3-3.3
		c1.7-0.7,3-2,4.5-2.9c1.1-0.4,2.1-1,3.2-1.4c0.8-0.4,1.5-0.7,2.4-0.8c0.7-0.1,1.1-0.5,1.5-0.9c0.5,0.8,1.3,1.1,2.1,1.4
		c0.7,0.3,1.4,0,1.5-0.9c2.4,0.3,3.9,1.8,5.1,3.7C171,80.5,171.1,80.8,171.4,81z"/>
	<path class="st32" d="M148.9,117.7c-0.6-0.4-0.7-0.9-0.2-1.4c0.2-0.2,0.2-0.5,0.1-0.8c-0.2-0.3-0.5-0.2-0.8-0.1
		c-0.8,0.3-1.4-0.1-1.9-0.6c-1.6-1.5-1.8-3.9-0.4-5.6c0.3-0.4,0.5-0.8,0.6-1.3c0-0.4,0-1,0.3-1.3c1.2-1,0.6-1.7-0.1-2.6
		c-1-1.3-0.8-2.4,0.9-4.5c0.9-1,1.1-2.1,1.4-3.3c0.3-1.3,0.7-2.7,1.7-3.7c0.6-0.6,1.3-1.4,2.3-0.5c0.3,0.3,0.4-0.1,0.6-0.3
		c0.3-0.6,0.6-1.2,1.1-1.7c0.3-0.3,0.7-0.6,1.1-0.4c0.8,0.4,1.4,0.1,2.1-0.4c0.7-0.5,0.9-1.1,1-1.8c0.6-2.1,2.4-3.2,4.1-2.5
		c0.9,0.3,0.8,1.3,1.4,1.9c0.7-1.1,1.1-2.3,2.2-3c1.4-0.8,2.6-0.4,3.1,1.1c0.2,0.5,0.1,1.3,1,1.2c0.8,0,1.3-0.6,1.5-1.2
		c0.2-0.8,0.5-0.8,1-0.3c0.5,1.3,0.2,2.6,0,3.8c-0.4,0.3-0.7,0-1.1-0.1c-1-0.2-2-0.2-2.9,0.1c-1.3,0.4-1.4,0.3-1.5-1.1
		c0-0.1,0-0.3-0.1-0.5c-0.7,0.2-0.9,0.7-1.1,1.2c-0.5,1.1-1.1,2.2-1.9,3.2c-0.3,0.4-0.7,0.8-1.3,0.7c-0.7-0.1-0.8-0.6-0.9-1.1
		c-0.4-1.1-0.4-2.2-0.6-3.5c-1,0.8-1,1.8-1.3,2.7c-0.3,1-0.4,2.2-2,2.1c-0.5,0-0.5,0.6-0.6,0.9c-0.2,0.6-0.5,1-1,0.7
		c-1.3-0.8-1.4,0.3-1.6,1c-0.4,1.4-0.7,1.6-1.9,0.8c-0.9-0.5-1.1-0.1-1.3,0.6c0,0.3-0.1,0.6-0.1,0.8c0,1.7-0.5,3.2-2.1,4.2
		c-0.7,0.4-0.4,1.3,0.6,1.8c1.6,0.9,1.8,1.9,0.6,3.3c-0.2,0.3-0.5,0.5-0.7,0.8c-0.3,0.4-0.5,0.7,0.1,1.1c1,0.6,0.8,1-0.2,1.4
		c-0.6,0.2-1.2,0.5-1.7,0.9c-0.5,0.4-1,1-0.7,1.6c0.3,0.6,1.1,0.8,1.8,0.5c0.6-0.2,1.3-0.5,1.9-0.7c0.4-0.1,0.7-0.2,1,0.1
		c0.3,0.3,0.3,0.7,0.1,1.1c-0.1,0.3-0.3,0.6-0.4,0.9c-0.2,0.5-1.1,0.9-0.1,1.5c0.1,0-0.2,0.6-0.3,0.8
		C151.1,117.8,150,117.7,148.9,117.7z"/>
	<path class="st7" d="M170.3,97c0.2-1.6,0.1-3.3,1.9-4.1c1.5,0.2,2.9,0.9,4.4,1.2c3.1,0.7,6.1,1.9,9.2,2.9c2,0.7,3.9,1.7,5.9,2.4
		c1.8,0.7,3.5,1.6,5.3,2.4c1.2,0.6,2.5,1.1,3.5,2c0.6,0.6,1,1.2,1,2.1c0.1,0.8-0.2,1.1-1,1.3c-2.2,0.7-4-0.1-6-0.9
		c-3.3-1.2-6.2-3.2-9.5-4.3c-1.1-0.4-2.4-0.6-3.4-1.2C178,99,174.3,97.6,170.3,97z"/>
	<path class="st41" d="M162.8,65.6c-1-0.4-1.7-0.9-1.7-2.2c0-1-2.5-3.2-3.4-3.2c-0.7,0-1.1-0.4-1.6-0.6c0.9-0.3,0.9-1.3,1.5-1.8
		c0.4-0.3,0.7-0.7,1.1-1c0.2,0-0.1,0,0.1-0.1c2.3-0.2,5.6,2.8,5.6,5c0,0.1-0.1,0.2-0.1,0.3c-0.4,0.4-0.8,0.7-1.2,1.1
		C161.8,64.3,161.8,64.3,162.8,65.6z"/>
	<path class="st32" d="M164.3,62c-0.4-3.3-2.9-4.4-5.6-5.3c0.2-0.2,0.5-0.5,0.7-0.7c0.7-0.4,1.4-0.8,2.1-1.2c0.5-0.1,1,0,1.4,0.2
		c1.6,0.9,2.8,2.2,3.7,3.7C166.2,60,165.4,61.2,164.3,62z"/>
	<path class="st42" d="M136.2,33.5c-1.2,1-2.4,2.1-4.2,1.9c-1.8-0.1-3.6-1.3-4.2-3c-0.7-2-0.1-4.2,1.5-5.3c0.3-0.2,0.5-0.3,0.8-0.5
		c2.5-0.9,4.1-0.6,5.6,1.2C137.2,29.2,137.3,31.2,136.2,33.5z"/>
	<path class="st43" d="M166.7,58.7c-0.8-0.9-1.9-1.6-2.6-2.6c-0.5-0.8-1.6-0.9-2.5-1.2c1.4-0.8,3-0.6,4.5-0.4c1.1,0.2,0.8,1.6,1,2.4
		C167.2,57.5,167,58.1,166.7,58.7z"/>
	<path class="st7" d="M24.8,96.1c0.3-0.8,0.8-1.5,1.5-2.1c0.7-0.2,1.3-0.5,2-0.7c1.2-0.3,2.2-0.7,1.6-2.2c0.2-0.4,0.5-0.8,1-0.7
		c0.1,0,0.3,0,0.3,0.1c0.5,1.3,1.4,1.1,2.4,0.8c1.6-0.4,3.2-0.4,4.7-1.1c0.4,0.3,0.3,0.7,0.2,1.1c2,1,4.2,1.3,6.2,2.2
		c-0.6,1.4-1.1,2.9-2.7,3.4c-1.9-0.3-3.9-0.3-5.8-0.6c-2.5-0.3-4.7,0.4-7,1.3c-0.9,0.3-1.6,1.2-2.1,1.9c-1.2,1.5-2.3,3.1-2.6,5
		c0,0.1,0,0.2,0,0.2c-1,1-1.4,2.4-1.5,3.8c-1,0.8-1.1,2.1-1.2,3.2c-0.8,5.5-1.2,11.1-0.5,16.7c0.3,2.5,0.5,5.1,1.2,7.6
		c0.2,1.2,0.4,2.4,0.6,3.5c0.1,2.1,0.9,4.1,1.6,6c0.2,0.6,0.8,1,1.4,1.3c2.6,1.3,5.3,2.2,8.3,2.1c1.2,0,2.4,0.1,3.5,0.5
		c0.4,0.3,0.8,0.5,1.3,0c1.4-0.5,2.9-0.2,4.4-0.5c6-1.2,11.5-3.3,16.4-6.9c1.6-1.2,3.1-2.3,4.6-3.6c1.4-0.1,2.5,0.7,3.6,1.4
		c-0.4,1.1-1.6,1.6-2.2,2.6c-0.4,0.5-0.7,0.9-1.3,1.2c-0.3,0.3-0.6,0.5-0.9,0.8c-2,1.1-3.6,2.6-5.6,3.6c-2,1.1-4,2.2-6.3,2.8
		c-1,0.3-1.4,0.7-0.9,1.7c0.2,0.5,0,0.7-0.4,0.9c0,0-0.1,0-0.1,0c-1.1-1.2-2.2-0.3-3.4,0c-1.2,0.3-2.5,0.2-3.3,1.3
		c-0.2,0.3-0.6,0.4-0.9,0.2c-0.2-0.3,0-0.7-0.2-1c-0.1-0.6-0.5-0.5-0.9-0.4c-4.6,0.9-9.1,0.2-13.4-1.4c-1.4-0.5-2.6-1.5-3.9-2.3
		c-0.8-0.5-1.4-1.3-2.5-1.4c-0.7,0-1.2-0.2-0.8-1c0.2-0.5-0.1-0.9-0.2-1.4c-1.5-4.1-2.9-8.2-2.7-12.6c0.1-1.9,0.1-3.5-0.7-5.2
		c-0.5-1.2-0.4-2.7-0.6-4.1c-0.5-4.9-0.3-9.6,1.2-14.4c0.6-1.9,0.7-3.9,1.4-5.8c0.7-2.1,1.7-4.1,2.9-5.9
		C22.9,97.3,23.9,96.7,24.8,96.1z"/>
	<path class="st44" d="M57.7,160.2c2.8,0,4.6,1.8,4.6,4.6c0,2.9-1.8,4.5-5,4.5c-2.8,0-4.4-1.7-4.4-4.9
		C52.9,161.8,54.7,160.2,57.7,160.2z"/>
	<path class="st45" d="M51.2,155.4c0.7,1.6-0.1,2.9-1.1,4.1c-0.9,1.1-2.1,1.9-2.9,3c-0.3,0.3-0.8,0.3-1.1,0
		c-1.5-1.4-3.1-2.9-3.4-5.1c0.7-0.4,1.2,0.2,1.9,0.3c0.4,0.2,0.7,0.4,1.1,0.4c2,0.3,3.5-0.6,4.8-2.1
		C50.8,155.7,50.9,155.4,51.2,155.4z"/>
	<path class="st32" d="M51.2,155.4c-1.2,2.1-3,3.2-5.5,2.9c-0.3-0.2-0.7-0.2-1-0.5c-0.7,0.2-1.2-0.6-1.9-0.5
		c-0.2-1.1-0.3-2.2-0.2-3.3c0.3,0.3,0.2,0.6,0.2,1c1.3,0.3,2.5,0.4,3.8,0.4c1.4,0,2.7-0.3,3.4-1.7c0.1-0.2,0.3-0.3,0.4-0.4
		c0.3-0.1,0.5-0.4,0.5-0.7C51.5,153.4,51.1,154.4,51.2,155.4z"/>
	<path class="st7" d="M65.9,72.1c0.3-1.2,0.9-2.3,1.4-3.4c1.1-1.5,2.3-3,3.4-4.5c1.4-0.4,2.2-1.7,3.4-2.4c0.5-0.3,0.9-0.7,1.3-1
		c0.9-1.4,2.5-2.1,3.8-3c0.8-0.5,1.6-0.8,2.4-1.3c0.6-0.4,1.3-0.5,2-0.3c1.5-0.6,3-1.1,4.6-1.7c1.7-0.1,3.4-0.6,5-1
		c1.2-0.1,2.3-0.4,3.4,0.1c0,0.3-0.5,0.6-0.2,1c-0.6,1.1-1.4,2-2.6,2.4c-5.2,0.8-9.9,2.9-14.3,5.7c-2.8,1.8-5.4,3.9-7.8,6.1
		c-1.1,1-1.7,2.2-2,3.7c-0.6,2.8-0.9,5.7-0.8,8.6c0,0.6,0.1,1.3,0.8,1.6c0.6,1.1,0.1,2.2,0.4,3.3c-0.1,0.9,0.3,1.8,0.5,2.7
		c0.9,3.8,1.6,7.7,3.5,11.3c1.4,2.8,2.8,5.5,4.2,8.3c0.3,0.5,0.7,0.9,1.2,1c0.3,1.1,0.9,1.8,1.9,2.3c0.3,0.2,0.3,0.7,0.6,1
		c0.4,0.4,0.8,0.7,1.2,1c2.1,1.7,3,1.7,5.3,0.1c1.1-0.8,2.1-1.7,3-2.8c1.2-1.4,2.6-2.6,3.5-4.2c0.2-0.3,0.4-0.6,0.9-0.5
		c0.6,0.2,1.1,0.3,1.7,0.2c0.4-0.1,0.9-0.2,1.1,0.3c0,0.2,0,0.4-0.1,0.5c-0.6,1-0.7,2.2-1.4,3.2c0.2,1.6-1.1,2.3-1.9,3.2
		c-1,1.1-2.1,2.2-3.4,3c-0.6,0.4-1.3,0.4-1.9,0.5c-0.9,1.2-2.3,1.5-3.6,1.9c-1.2,0.2-2.2,0-3.3-0.6c-3.2-1.7-5.7-4.1-7.5-7.2
		c-0.4-0.7-0.9-1.3-1.4-2c-1.4-1.9-2.5-3.8-3.4-6c-1.6-4.1-3.6-8-4.6-12.2c-0.4-1.7-0.8-3.6-0.6-5.4c0.1-1.2-0.2-2.4-0.2-3.6
		c-0.1-2.7-0.1-5.5,0.5-8.1C65.9,73.4,65.9,72.7,65.9,72.1z"/>
	<path class="st7" d="M60.2,77.4c1.1-1.1,2.5-1.6,4-2c0.2,0.2,0.3,0.5,0.2,0.7c-0.8,1.4-0.4,3.3-1.7,4.6c-0.3,0.3-0.5,0.7-0.6,1.1
		c-0.2,0.6-0.7,0.9-1.2,1.3c-1.9,1.5-4,2.6-5.8,4.1c-3.9,3.2-5.7,7.2-5.9,12.1c0,0.6,0,1.2-0.4,1.7c-0.6,1-0.2,2.1,0,3.1
		c0.2,1,0.4,2,0.5,3c0.9,4.9,2.9,9.4,5.9,13.5c1.2,1.6,2.1,3.5,3.4,5.1c0.1,0.1,0.1,0.2,0.1,0.3c0.1,0.4,0.3,0.6,0.7,0.6
		c1.2,0,1.4,0.8,1.3,1.7c0.2,0.6,0.7,1,1.1,1.4c1.8,1.4,3.5,2.9,5.5,4c1,0.6,2.1,0.5,3.1,0.1c5.2-2,9-5.7,12-10.2
		c0.4-0.6,0.5-1.5,1.1-1.9c0.7-0.3,1.4-0.6,2.2-0.2c0.5,0.3,0.7,0.5,0.8,1c-0.7,1.3-1.2,2.8-2,4.1c-0.5,0.8,0.4,0.9,0.8,1.2
		c0.2,0.3,0,0.6-0.1,0.8c-2.4,0.7-3.3,3.1-5,4.5c-0.4,0.3-0.3,0.5,0,0.8c0.5,0.4,1,0.7,1.7,0.9c0.5,0.2,1,0.3,1,1
		c-0.2,0.8-0.7,0.8-1.3,0.6c-1.2-0.6-2.4-1.1-3.4-2c-0.3-0.3-0.6-0.3-0.9,0c-0.8,0.7-1.6,1.2-2.4,1.9c-1.8,1.3-3.8,2-6,2.2
		c-0.8-0.1-1.3-0.8-2-1.3c-3.1-2-6.4-3.8-8.6-7c-0.8-1.1-1.9-2-2.8-2.9c-3-3-5.3-6.5-7.4-10.1c-1-1.6-1.4-3.6-1.8-5.4
		c-0.1-0.7-0.3-1.3-0.4-2c-0.4-1.6-0.9-3.2-0.2-4.8c0.2-0.6-0.1-1.2-0.1-1.8c-0.1-2.6-0.1-5.3,0.5-7.8c0.1-0.5-0.2-1.1,0.2-1.6
		c0.4-1.1,0.2-2.3,0.8-3.3c1.1-1.9,2-4,3.7-5.6c-0.7-0.6-1.4-1.3-2.1-1.9c-0.1-0.4,0.2-0.7,0.5-0.8c0.4-0.1,0.7,0.1,1,0.2
		c1.4,0.7,2.4,0.5,3.3-0.8c0.1-0.2,0.2-0.4,0.4-0.6c0.8-0.7,1.6-1.4,0-2.2c-0.1-0.1-0.1-0.3-0.1-0.5c0.4-0.7,0.9-1.1,1.8-0.9
		c0.2,0.2,0.5,0.4,0.5,0.6c0.4,1.4,1.2,0.9,2,0.4C58.8,78.5,59.6,78,60.2,77.4z"/>
	<path class="st40" d="M61.8,81.7c0.1-0.3,0.1-0.7,0.3-0.9c1.5-1.3,1.1-3.3,2-4.8c0.1-0.1,0-0.4,0-0.6c0.9-0.1,1.4-0.6,1.7-1.4
		c0.2,1.5,0.1,3.2-0.1,4.6c-0.3,2.3,0.4,4.5,0.1,6.8c-0.1,1.1,0.2,2.2,0.3,3.2c0.5,6.2,3.8,11.4,5.9,17.1c0.5,1.2,1.4,2.2,2.1,3.3
		c1.7,2.3,2.9,5,5.2,6.8c1.9,1.4,3.6,3.2,6.2,3.1c0.2,0,0.4,0.1,0.6,0.2c0.1,1.2,0.1,2.4,0.2,3.6c-0.5-0.8-1.4-1.1-2.4-0.6
		c-0.1,0-0.3-0.1-0.4-0.1c-0.2-0.3-0.3-0.6-0.7-0.7c-0.8-0.2-1.3-0.7-1.7-1.4c-0.3-0.6-0.8-0.8-1.5-0.5c-0.9,0.5-1.6,0.1-2.2-0.7
		c-0.9-1.1-1.9-2.1-3.1-2.8c-0.4-1.2-1.5-1.9-2.3-2.8c0-0.1,0-0.2,0-0.3c0.1-0.5,0.2-1.1-0.2-1.5c-0.4-0.5-0.9-1-1.4-1.5
		c-0.4-0.4-0.7-0.9-0.7-1.5c0-0.6-0.5-0.8-0.8-1.2c-0.9-1.3-1.8-2.7-2.5-4.1c-0.3-0.5,0.1-1.1,0.2-1.6c0.2-1,0-2-0.7-2.8
		c-1-1.2-1.9-2.3-1.5-4.1c0.1-0.5-0.1-1.3-0.6-1.8c-0.2-0.1-0.4-0.2-0.4-0.4c0-0.8,0-1.4-0.7-1.9c-0.3-0.2-0.1-0.6,0.1-0.9
		c0.4-0.4,0.4-0.7,0.4-1.3c-0.1-1.5-0.2-3-0.2-4.6C63.2,82.6,62.9,81.9,61.8,81.7z"/>
	<path class="st32" d="M81.5,136.7c0.6,0.1,1-0.1,1.2-0.7c0.5-0.8,1.1-1.5,1.7-2.3c1.2-1.5,1.7-3.1,0.7-4.9c0.1-0.2,0.1-0.5,0.2-0.7
		c0.5-0.1,0.8,0.1,1.1,0.5c0.8,0.9,1.8,1.7,2.5,2.8c-0.2,0.4-0.5,0.8-0.6,1.3c-0.4,1.8-1.2,3.1-3,3.9c-0.4,0.2-0.5,0.6-0.8,0.9
		c0,0,0,0.1,0,0.1C83.6,137,82.4,137.2,81.5,136.7z"/>
	<path class="st32" d="M98,111.9c0.8,1,0.9,2.2,1.4,3.4c-1.6,1.6-2.9,3.5-5,4.6c-1.1-0.3-2.3-0.5-3.1-1.5c0.6-0.7,1.6-0.9,2.3-1.4
		c1.4-0.9,2.7-1.7,3.2-3.5C97,112.9,97.6,112.4,98,111.9z"/>
	<path class="st41" d="M98,111.9c-0.9,2.8-2.5,5-5.4,6c-0.4,0.2-0.7,0.7-1.3,0.5c-0.5-0.4-1-0.8-1.5-1.2c1.6-0.6,3-1.5,4.2-2.8
		c1.1-1.2,2.6-2.2,3-3.9C96.8,111.3,97.8,111.4,98,111.9z"/>
	<path class="st45" d="M84.6,137.4c0-0.4-0.1-0.9,0.5-1.1c2-0.6,2.6-2.2,3-3.9c0.1-0.5,0.2-1,0.8-1c0.3,0.3,0.3,0.9,0.7,1.2
		c0.1,1.1-0.1,2.1,0.2,3.2c0.2,1-0.4,1.5-1.4,1.6C87.1,137.4,85.9,137.4,84.6,137.4z"/>
	<path class="st46" d="M94.4,119.9c1.8-1.4,3.1-3.3,5-4.6c0.5,1.1,0.3,2.3,0.3,3.5c0,0.8-0.7,1-1.2,1.3
		C97.1,120,95.7,120.4,94.4,119.9z"/>
	<path class="st30" d="M98.5,107.3c0-0.1,0-0.3,0-0.4c0.2-0.3-0.2-0.9,0.5-1c0.4,0.1,0.8,0.2,1.2,0.3c0.6,0.2,1.3,0.2,1.9,0
		c0.2,0,0.3,0,0.5,0c0.4,0.2,0.8,0.2,1.2,0c0.3,0,0.6,0,0.9-0.2c1.2-0.4,1.4-0.2,1.6,0.9c0,0.2,0,0.5,0.1,0.7
		c0.1,0.6,0.4,1.2,0.8,1.8c0.2,0.5,0.9,0.7,0.8,1.4c-0.5,0.6-0.3,1.4,0.2,1.6c1.3,0.6,1.4,1.9,2.1,2.8c0.4,0.5,0.9,0.7,1.4,1.1
		c0.7,0.6,0.4,1.7,1.4,2.1c1.6,0.5,2,2.4,3.2,3.2c1.4,0.9,2.1,2.7,3.8,3.2c0.7,0.2,1,0.9,1.3,1.3c1.4,2.4,3,4.6,5.3,6.1
		c0.4,1.7,2.7,2.1,2.9,4c0,0.4,0.2,0.4,0.5,0.2c0.2-0.1,0.5-0.2,0.5,0c0.4,1.3,2,1.6,2.4,3c0.2,0.8,1.1,1,1.7,1.6
		c0.6,0.7,1,1.5,1.2,2.4c0.1,0.5,0.2,0.7,0.8,0.8c1.1,0.3,2.1,1,2.4,2.2c0.2,0.8,1,1,1.5,1.5c0.8,0.9,2,1.5,2.3,2.9
		c0.1,0.4,0.5,0.4,0.8,0.6c0.8,0.4,1.5,0.7,1.7,1.8c0.2,1.1,1.5,1.6,1.9,2.7c0.1,0.2,0.6,0.5,0.9,0.1c0.4-0.4,0.7,0,1.1,0
		c0.1,0.3,0,0.5-0.2,0.8c-1.1,1.3-1.1,2.8-0.7,4.4c0.1,0.4,0.3,0.8,0,1.1c-0.7,0.7-1.4,0.7-1.6-0.3c-0.4-1.5-1.6-2.1-2.6-3
		c-0.9-0.9-2-1.6-2.5-2.9c-0.4-0.9-1.5-1.3-2.2-2c-0.4-0.4-1-0.7-0.9-1.3c0.1-1-0.5-1.4-1.2-1.7c-0.7-0.3-1-0.7-1.3-1.4
		c-0.4-1-1-1.8-2.3-1.8c-0.9,0-1.1-0.8-1.3-1.5c-0.3-1-1-1.4-1.7-2c-1-0.8-2.2-1.5-2.5-3c-0.1-0.6-0.5-1.2-1.3-1.2
		c-0.3,0-0.6-0.1-0.6-0.4c-0.1-1.2-1.5-1.6-1.7-2.8c0-0.1-0.2-0.4-0.3-0.2c-1,1.1-1-0.2-1.2-0.5c-0.4-0.6-0.5-1.3-1.3-1.6
		c-0.2-0.1-0.4-0.6-0.4-0.9c0-1.2-0.6-1.7-1.7-1.9c-0.9-0.1-1.3-0.8-1.5-1.7c-0.1-0.7-0.3-1.2-1.2-1.1c-0.5,0.1-0.7-0.2-0.7-0.7
		c0-0.8-0.4-1.3-1.3-1.4c-0.2,0-0.3,0-0.4-0.2c-0.8-1.5-2.7-2.2-3.1-4c-0.2-0.8-1-0.8-1.5-1.2c-1.6-1.5-2.8-3.4-4.6-4.8
		c-0.4-0.3-0.8-0.8-0.8-1.5c0-0.5-0.2-1.5-1.3-1.2c-0.3,0.1-0.8-0.2-0.8-0.5c-0.1-1.4-1.3-2-2.1-2.8
		C99.1,109.7,98.9,108.5,98.5,107.3z"/>
	<path class="st47" d="M148.2,162.1c0.1-0.8-0.5-1.4-0.5-2.2c-0.1-1.6,0.3-3,1.5-4.1c2.9-2.2,6.6-1.3,7.7,2.1c0.6,1.6,0.3,3.8-2,5.6
		c-1.6,0.7-3.2,0.6-4.8,0.2C149.5,163.2,148.8,162.7,148.2,162.1z"/>
	<path class="st7" d="M153.7,116.3c1.1-1,2.3-1.7,3.8-1.5c0.7,1.4,1.7,2.7,2.3,4.2c2.1,4.7,4.3,9.3,6.2,14c0.9,2.2,1.6,4.5,2.1,6.8
		c0.3,1.2,0.6,2.6-0.4,3.8c-2.6,1.3-2.5,1.2-4.1-1.3c-1.3-2-2-4.3-3.1-6.4c-0.3-0.6,0-1.2-0.4-1.7c-1-0.9-1-2.3-1.5-3.5
		c-1.8-4.3-3.3-8.7-4.9-13C153.6,117.3,153.3,116.8,153.7,116.3z"/>
	<path class="st48" d="M131.1,189.5c-2.3,0-4.6,0-7,0c-0.2-0.5-0.2-1,0-1.4c0.3-1.6,1.8-2.2,2.9-3.1c0.1,0,0.2,0,0.2,0
		c0.9-0.2,1.8-0.2,2.6,0c1.7,0.5,2.9,1.6,3.4,3.4c0.2,0.4,0.2,0.8,0,1.2C132.6,189.5,131.9,189.5,131.1,189.5z"/>
	<path class="st13" d="M129.9,184.9c-0.9,0-1.8,0-2.6,0C128.2,184.5,129.1,184.5,129.9,184.9z"/>
	<path class="st13" d="M133.3,189.5c0-0.4,0-0.8,0-1.2C133.6,188.7,133.6,189.1,133.3,189.5z"/>
	<path class="st14" d="M115.3,102.1c2.4-1,1.8-1.1,3.5,1c1.3,1.6,3,2.4,4.7,3.3c0.3,0.5,0.2,1,0.1,1.5c-0.3,1-0.8,1.9-0.6,2.9
		c0,0.5,0.1,1.1-0.3,1.6c-0.2-0.2-0.2-0.4-0.2-0.6c0-0.5,0.3-1.1-0.7-1.1c-0.4,0-0.7-1.2-1.1-1.8c-0.4-0.6-1.1-1-1.2-1.9
		c0-0.1-0.5-0.1-0.8-0.1c-0.2,0-0.4,0.1-0.5,0c-0.4-0.8-1.1-1.4-1.8-1.9c-0.1-0.1,0-0.6-0.4-0.6c-0.4,0.1-0.2,0.5-0.2,0.8
		c0,0.2,0.3,0.5-0.1,0.7c-0.9-0.6-0.4-1.6-0.6-2.4C115,103.1,114.7,102.5,115.3,102.1z"/>
	<path class="st45" d="M107.8,110.7c-0.3-0.4-0.6-0.8-0.9-1.2c0.3-0.6,0.8-0.6,1.3-0.6c1.8,0,3.6,0.2,5.2-0.8
		c0.4-0.2,0.9-0.2,1.3,0.2c-0.1,0.2-0.2,0.5,0,0.7c-1.2,1-1.5,2.5-2.5,3.6c-0.6,0.7-1.1,0.6-1.7,0.3
		C109.5,112.3,108.7,111.5,107.8,110.7z"/>
	<path class="st49" d="M114.8,108.3c-0.4,0-0.9-0.1-1.2,0.1c-1.7,1.1-3.7,0.8-5.6,0.8c-0.4,0-0.8,0-1.1,0.2c-0.4-0.5-0.8-1-0.8-1.7
		c-0.2-0.4-0.1-0.8-0.1-1.2c1.5-0.3,3.1,0,4.6-0.3c1.1-0.2,2.1-0.7,3.1-1.1c0.9-0.3,0.7-1.3,1.2-1.8c0.5,0.7-0.1,1.7,0.4,2.4
		c0,0,0,0,0,0c-0.2,0.8-0.2,1.6-0.5,2.4l-0.1,0L114.8,108.3z"/>
	<path class="st32" d="M122.5,110.7c-0.2-1.1,0.3-2,0.7-2.9c0.5,0.1,0.9,0.3,1.3,0.5c1.8,1.2,3.9,1.7,5.9,2.2
		c-0.1,0.6-0.5,0.9-0.8,1.4c-0.4,0.4-0.2,1.2-0.9,1.4c-1.1-0.1-2.1-0.5-3-1C124.7,111.8,123.5,111.4,122.5,110.7z"/>
	<path class="st46" d="M122.5,110.7c0.5,0.1,1.1,0.1,1.5,0.4c1.5,1.1,3.3,1.3,4.8,2.2c-1.1,1.1-2.5,1.7-4,1.9
		c-1.1,0.1-1.8-0.3-2-1.4c-0.3-0.4,0.1-1-0.2-1.4c0,0,0,0,0,0C122.5,111.9,122.5,111.3,122.5,110.7z"/>
	<path class="st14" d="M115,108.3c0.1-0.8,0.1-1.6,0.5-2.4C115.6,106.8,115.6,107.6,115,108.3z"/>
	<path class="st14" d="M122.5,112.4c0.4,0.4,0.2,1,0.2,1.4C122.3,113.4,122.6,112.9,122.5,112.4z"/>
	<path class="st40" d="M46.2,94.2c0.2,2.3-0.5,4.5-0.6,6.8c0,0.8,0.1,1.5,0.1,2.2c0.3,2.2-0.5,4.4,0.2,6.7c0.7,2.3,1.1,4.7,2,7
		c0.5,1.2,1.2,2.5,2,3.5c1.6,1.9,2.7,4.2,4.4,5.9c2,2,4,4.1,5.9,6.2c1.2,1.4,2.7,2.5,4.4,3.3c1.5,0.7,2.8,1.9,4.1,2.8
		c0.2,0.6-0.2,0.8-0.6,1.1c-0.1,0-0.1,0-0.2,0c-0.9-0.3-1.8-0.6-2.6-1.1c-0.3-0.2-0.5-0.2-0.8-0.1c-1.7-0.3-3-1.2-4.5-2
		c-0.3-0.2-0.8-0.3-1-0.7c-1.2-2-3.1-3.1-5-4.3c-0.6-0.8-1.4-1.6-1.9-2.5c0,0,0-0.1,0-0.1c-1.5-0.2-1.7-1.7-2.4-2.7
		c-0.4-0.6-0.9-1.2-1.6-1.6c-1.3-0.7-1.8-1.8-1.8-3.1c0-0.9-0.3-1.5-1.1-2c-0.9-0.5-1.4-1.3-1.3-2.4c0.1-1.2-0.8-2.1-1.1-3.2
		c-0.8-2.7-1.1-5.4,0-8.1c0.3-0.4,0.3-0.8,0.1-1.4c-0.2-0.6-0.6-1.2-0.3-1.9c0.4-1,0.6-1.9,0.1-3.1c-0.4-0.9-0.4-2.1-0.9-3
		c0.4,0,0.7-0.1,0.9-0.5c0.4-1,1.2-1.8,1.8-2.6C45.2,93.7,45.6,94.2,46.2,94.2z"/>
	<path class="st50" d="M81.7,144.8c-1.1,2.6-3.1,3.4-5.8,3.1c-1.7-0.6-3.1-1.4-3.4-3.4c-0.3-1.6-0.6-3.1,0.6-4.5
		c0.8-0.8,1.6-1.5,2.7-1.5c2.2-0.2,4.1,0.3,5.4,2.4C82,142.2,82.1,143.5,81.7,144.8z"/>
	<path class="st15" d="M75.9,138.6c-2.8,1.1-3.8,3.1-3.4,6c-0.4-1.3-1.5-2.2-1.9-3.5c0-0.1-0.2-0.3-0.2-0.3c-1,0.2-1.4-0.8-2.2-1.1
		c0.2-0.4,0.4-0.8,0.6-1.1c2.1-0.3,4-1.3,5.9-2c-0.1,0.3-0.3,0.7,0.2,0.8C75.6,137.6,75.6,138.2,75.9,138.6z"/>
	<path class="st9" d="M64.6,143.6c0.4-0.4,0.8-0.8,1.3-1.2C65.7,143.1,65.3,143.5,64.6,143.6z"/>
	<path class="st9" d="M103.7,187.8c-0.1,0.1-0.2,0.2-0.3,0.2c-0.2,0-0.3-0.1-0.2-0.3c0-0.1,0.2-0.1,0.3-0.1
		C103.5,187.6,103.6,187.7,103.7,187.8z"/>
	<path class="st22" d="M153.7,116.3c0.5,2.3,1.5,4.4,2.3,6.5c1.2,3.2,2.3,6.3,3.5,9.5c0.2,0.6,0.7,1.2,0.7,1.9
		c-0.1,0.3,0.2,0.8-0.3,0.9c-0.4,0.1-0.7-0.2-0.9-0.6c-0.6-1-0.8-2.4-1.9-2.9c-1.3-0.5-2.3-1-2.6-2.6c-0.1-0.4-0.8-0.8-1-1.4
		c-0.1-0.3-0.4-0.7-0.7-0.7c-1.1,0-1.5-0.7-1.8-1.6c-0.2-0.5-0.5-0.8-0.9-1.1c-2-1.7-3.6-3.7-5.3-5.7c-0.3-0.4-0.4-0.7,0.2-0.8
		c1.3,0.2,2.6,0,3.9,0c0.8-0.5,2-0.3,2.6-1.2C152.3,116.7,152.9,115.7,153.7,116.3z"/>
	<path class="st41" d="M130.4,110.5c-0.8,0.4-1.5-0.1-2.3-0.3c-1.6-0.4-3-1.2-4.4-1.9c-0.3-0.1-0.5-0.2-0.5-0.5
		c0.1-0.5,0.4-0.9,0.2-1.4c1,1.2,2.6,1,3.8,1.6c0.3,0.1,0.7,0.1,1,0.1c0.4-0.1,0.7,0,1,0.3c0.6,0.3,1.2,1.1,2,0.2
		C131,109.3,130.9,110,130.4,110.5z"/>
	<path class="st8" d="M151,49.3c0.3,0.1,0.6,0.3,0.6,0.6c0.1,0.2-0.2,0.3-0.4,0.3c-0.3-0.1-0.6-0.3-0.6-0.6
		C150.7,49.4,150.8,49.3,151,49.3z"/>
	<path class="st32" d="M119.6,44.7c0.1-0.5,0.2-1,0.3-1.4c0.5-0.2,0.4-0.8,0.7-1.2c2.3-1.7,6.3-1.4,7.9,0.7c0.4,1.2,0.1,2.4-0.3,3.6
		c-0.2,0-0.3,0-0.4-0.2c-1.1-1.5-2.8-1.7-4.4-1.8c-0.9-0.1-1.7-0.1-2.5,0.3C120.4,44.9,120,45.1,119.6,44.7z"/>
	<path class="st46" d="M128.5,42.8c-0.6-0.3-1.2-0.5-1.7-0.9c-1-0.7-2.1-0.9-3.1-0.5c-1,0.4-2.1,0.4-3.1,0.7
		c-0.4-0.5,0.2-0.5,0.4-0.8c0.6-1.1,1.6-1.8,2.5-2.6c2.8-1,2.8-1,4.4,1.7C128.3,41.1,128.9,41.9,128.5,42.8z"/>
	<path class="st15" d="M124.2,188c0,0.5,0,1,0,1.4C123.8,189,123.8,188.5,124.2,188z"/>
	<path class="st51" d="M31.8,74.7c-1.3,1.3-2.7,1.9-4.6,1.7c-2-0.2-3.9-1.9-4.1-3.9c-0.2-2.2,0.8-3.7,2.4-5c1.3-0.2,2.7-0.5,4,0
		c2.4,0.8,3.7,3.8,2.7,6.1C32,74,31.9,74.4,31.8,74.7z"/>
	<path class="st45" d="M47.6,75.5c2.4-0.5,4.7-0.3,6.7,1.2c0,0.6-0.4,0.7-0.9,0.7c-1,0-1.6,0.5-2.2,1.2c-0.7,0.7-1.3,1.4-2,2
		c-0.5,0.4-0.9,0.9-1.6,0.9c-0.9-1.3-0.4-2.9-0.4-4.3C47.2,76.6,47.2,76,47.6,75.5z"/>
	<path class="st32" d="M47.6,81.5c1.3-0.8,2.3-2,3.4-3.1c0.7-0.7,1.4-1.4,2.6-1.3c0.3,0,0.6-0.2,0.8-0.5c0.4,0.4,0.8,0.8,1.2,1.2
		c-0.6,0.2-1.3,0.3-1.7,0.9c-0.5,0.7-1.4,1-2,1.4c-1.1,0.7-1.6,1.9-2.7,2.5c-0.2,0.2-0.3,0.5-0.5,0.7C48.2,82.7,47.9,82.1,47.6,81.5
		z"/>
	<path class="st29" d="M101.4,51.2c-0.7,1-1.6,1.8-2.5,2.6c-0.3,0.2-0.6,0.3-0.7-0.2c-0.2-0.3-0.6-0.3-0.9-0.3c-2-0.1-3-1.4-3.5-3.1
		c-0.1-0.4-0.5-0.7-0.8-0.8c-1-0.2-1.4-1-2-1.7c-0.7-1-1.7-1.8-1.9-3.1c0-0.3-0.4-0.3-0.7-0.4c-0.8-0.2-1.5-0.5-1.8-1.4
		c-0.2-0.5-0.9-0.4-1-0.7c-0.3-1.3-1.7-1.6-2.3-2.6c-0.5-0.7-0.9-1.2-1-2.2c-0.1-0.6-1.4-0.7-1.9-1.4c-0.6-0.9-1.9-1.3-2.2-2.6
		c0-0.2-0.2-0.3-0.4-0.4c-1.4-0.6-2.4-1.5-2.8-3c-0.1-0.3-0.5-0.6-0.8-0.8c-1.2-0.5-1.7-1.5-2.4-2.6c-0.4-0.7-1.1-1.4-1.8-1.9
		c-1.1-0.9-1.5-2-1.8-3.2c1.1-0.7,2.2-1.4,3.1-2.4c1,0.2,0.7,1.3,1.3,1.8c1.4,1.4,2.4,3,4.1,4.1c0.5,0.3,1,0.5,1.5,0.6
		c0.5,0.1,1.3,1.7,0.9,2c-0.7,0.5-0.3,1-0.2,1.5c0.6,0.1,0.4-1.5,1.4-0.5c0.5,0.5,0.1,1.3,0.5,1.7c0.5,0.1,0.2-0.9,0.8-0.6
		c0.5,0.2,0.6,0.6,0.5,1.1c-0.1,0.7,0.3,0.9,0.9,1c1.1,0.2,1.5,1,1.4,2.1c-0.1,0.9,0.6,1.5,1.4,1.1c0.6-0.3,0.9-0.3,0.7,0.5
		c-0.1,0.5,0.2,0.9,0.7,0.7c0.6-0.1,0.9,0.3,1.2,0.7c0.8,1.4,1.5,2.8,3,3.7c0.2,0.1,0.4,0.4,0.3,0.6c-0.5,1.5,0.8,1.7,1.6,1.9
		c0.7,0.2,1,0.4,1.1,1.1c0.1,0.7,0.4,1.4,1.4,1.4c0.6,0,0.8,0.4,0.9,0.8c0.3,0.9,0.6,1.7,1.5,2.3c0.4,0.2,0.7,0.7,0.9,1.1
		C99.6,51,100.5,51.1,101.4,51.2z"/>
	<path class="st40" d="M98.2,53.6c0.2,0.3,0.5,0.2,0.7,0.2c-1.4,2.5-2.8,5-3.6,7.8c-1.6,5.2-2,10.7-2.4,16.1
		c-0.5,5.6,0.3,11.1,1.3,16.6c0.6,3.4,1.6,6.7,3.3,9.7c0.4,0.7,0.8,1.3,1.5,1.9c-0.4,0.2-0.1,0.8-0.5,1c-0.3-0.4-0.7-0.2-1.1-0.1
		c-0.7,0.2-1.3,0.2-1.8-0.4c-0.6-2.4-1.9-4.6-2.6-7.1c-0.8-1.1-1.5-2.1-1.1-3.6c0.1-0.3-0.1-0.5-0.2-0.8c-0.8-1.8-1.7-3.6-1.3-5.7
		c0.1-0.7,0-1.4-0.4-2.1c-0.5-0.8-0.5-1.6-0.1-2.5c0.2-0.5,0.4-1.1,0.2-1.6c-0.5-1.4-0.1-2.7,0.2-4c0-0.2,0.1-0.3,0.1-0.5
		c-0.6-1.8,0.4-3.7-0.4-5.4c-0.3-0.7-0.3-1.5,0-2.2c0.2-0.4,0.4-0.8,0.1-1.3c0.7-1.2,0.1-2.4,0-3.6c0.1-0.4,0.4-0.7,0.7-1
		c1.1-0.9,1.3-2.3,1.6-3.6c0.2-1,0.6-1.7,1.3-2.4c0.9-0.7,0.9-1.4,0.2-2.2c0.9-0.7,1.8-1.4,2.4-2.4c-0.1-0.2-0.1-0.3,0.1-0.4
		c0.3-0.5-0.1-0.5-0.4-0.5c-0.9,0-1.8,0-2.7,0c1.1-0.5,2.3-0.3,3.4-0.2C97.1,53.5,97.7,53.6,98.2,53.6z"/>
	<path class="st52" d="M71.4,19.1c-0.6,1.3-1.7,2.1-3.1,2.4c-2.5,0.4-4.3-0.4-5.1-2.3c0.8-0.4,1.2,0.3,1.7,0.6
		c1.8,1.2,3.3,1.2,4.9-0.3C70.3,19.1,70.8,19.1,71.4,19.1z"/>
	<path class="st53" d="M48.1,39.7c-0.2-2.1,0.3-4,2.2-5.3c1.6-1.1,3.2-1,4.8-0.1c1.5,0.9,2.5,2,2.4,3.9c-0.1,2.7-0.9,4-3.4,4.8
		c-1.9,0.2-3.7,0-5-1.8C48.7,40.8,48.5,40.2,48.1,39.7z"/>
	<path class="st41" d="M83.6,56.3c-2,0.3-3.5,1.4-5.1,2.4c-1.1,0.6-2.1,1.4-3.1,2.2c0.3-1.1-0.5-1.9-0.7-2.8
		c-0.1-1.3,0.8-1.9,1.6-2.7c0.3-0.3,0.7-0.5,1.1-0.6c1.6-0.3,3.1-0.6,4.7-0.7c0.2,0,0.4,0,0.5,0.2C83.3,54.7,82.9,55.7,83.6,56.3z"
		/>
	<path class="st46" d="M74.2,51.9c0.4-0.8,0.7-1.6,1.1-2.3c0.2-0.4,0.4-0.6,0.8-0.5c1.8,0.5,3.6,1.1,5,2.5c0.1,0.1,0.1,0.2,0.1,0.3
		c0,0.6-0.5,0.7-0.9,0.7c-1.8,0-3.3,1-5,1.6c-0.4,0.1-0.8,0.5-1.3,0.3C73.4,53.7,74.2,52.8,74.2,51.9z"/>
	<path class="st54" d="M74,54.6c2-0.9,3.9-2.1,6.2-2.2c0.4,0,0.8-0.2,1.1-0.5c0.5,0.7,1.2,1.3,1.4,2.2c-1.5,0.2-2.9,0.5-4.4,0.7
		c-0.7,0.1-1.3,0.2-1.8,0.7c-0.8,0.5-1.5,1.1-2.2,1.7C73.8,56.4,74.1,55.5,74,54.6z"/>
	<path class="st55" d="M74.2,57.2c0.3-1.1,1.2-1.4,2.2-1.7c-0.8,0.7-1.2,1.6-1.7,2.5C74.5,57.7,74.4,57.5,74.2,57.2z"/>
	<path class="st40" d="M144.3,57.2c-2.8,1.3-4.9,3.4-7.1,5.3c-1.3,1.2-2.7,2.2-4,3.4c-2.2,1.9-3.9,4.2-5.7,6.4
		c-1,1.2-1.5,2.7-2.3,4.1c-1.6,2.9-3.3,5.7-4.1,9c-0.6,2.4-1.4,4.8-1.7,7.3c-0.3,2.2-0.3,4.5-0.8,6.7c-0.1,0.5-0.2,1-0.7,1.2
		c-0.3,0.1-0.5,0-0.7-0.2c-0.5-0.4-0.2-0.9,0-1.2c0.5-0.8,0.2-1.7,0.2-2.5c-1.2-0.6-1.6-1.8-1.1-3.1c0.3-0.8,0.9-1.5,1.2-2.3
		c0.6-1.5-0.2-3.1,0.3-4.6c0-0.2,0.1-0.5,0.2-0.7c0.9-1.2,1.1-2.6,0.7-4.1c-0.3-1.2,0.5-2,1.3-2.7c0.7-0.6,1-1.2,0.9-2.1
		c0-0.1-0.1-0.3,0-0.4c1.2-1.4,1.2-3.7,3-4.8c1.3-0.8,1.4-2.1,1.5-3.3c0.1-1.1,0.5-1.6,1.4-1.7c0.8-0.1,1.3-0.5,1.7-1.2
		c0.3-0.5,0.6-1,1.1-1.3c0.8-0.6,1.5-1.3,1.9-2.3c0.2-0.4,0.5-0.7,0.9-1c0.9-0.9,1.8-1.9,2.9-2.6c1.5,0.1,2.5-0.9,3.7-1.5
		c0.5,0.2,1.1,0,1.6-0.1c0.7-0.1,1.4-0.5,2.2-0.2c0.2,0.1,0.4-0.2,0.5-0.4C143.4,56.7,143.5,57.5,144.3,57.2z"/>
	<path class="st41" d="M119.6,44.7c0.9,0.1,1.4-0.7,2.3-0.7c1.4,0,2.8,0.2,4.1,0.5c1.1,0.2,1.6,1.2,2.3,1.9
		c-0.4,0.8-0.7,1.5,0.5,1.7c-0.5,0-0.9-0.2-1.4-0.5c-0.9-0.7-2.2-0.5-3.4-0.7c-1.6-0.2-3.3,0.1-4.8-0.5
		C119.4,45.9,119.2,45.2,119.6,44.7z"/>
	<path class="st46" d="M30,88.4c0.4-1.9,0.9-3.7,2.7-4.8c0.7-0.5,1.3-0.5,2.1-0.2c1.6,0.7,4.2,3.5,3.7,5.3c-0.6,0.3-0.8-0.5-1.3-0.5
		c-2-0.3-4-1.4-5.9,0.1C30.9,88.5,30.5,88.6,30,88.4L30,88.4z"/>
	<path class="st32" d="M30.1,88.4c0.5-0.2,1-0.4,1.4-0.7c1.4-1.2,2.9-0.4,4.4-0.2c1,0.1,1.9,0.4,2.6,1.1c-0.2,0.9,0.6,1.8,0,2.7
		c-0.1-0.3,0.1-0.7-0.3-1c-0.5,0.2-1,0.1-1.5-0.2c-0.7-0.5-1.4-0.7-2.2-0.8c-0.4-0.1-0.7-0.2-1.1,0c-1.1,0-1.7,1.1-2.6,1.2
		c-0.4,0-0.6,0.3-0.9,0.5C30,90.2,30.1,89.3,30.1,88.4z"/>
	<path class="st56" d="M104.5,41.4c-2.4,0.6-3.9,0.1-4.6-1.8c-0.4-1-0.1-2,0.3-3c0.9-1.6,3.7-1.6,4.9-0.5c1.2,1.1,1.1,3.4-0.1,4.7
		C104.8,41,104.6,41.2,104.5,41.4z"/>
	<path class="st57" d="M118.4,46.4c0.1,0.1,0.2,0.2,0.3,0.4c-0.1,0-0.3,0.1-0.4,0.1c-0.3-0.1-0.2-0.3-0.1-0.4
		C118.3,46.4,118.3,46.4,118.4,46.4z"/>
	<path class="st23" d="M60.5,73.5c-0.3,0-0.4-0.2-0.4-0.5c0-0.3,0.2-0.4,0.5-0.4c0.2,0,0.4,0.1,0.4,0.3C61,73.3,60.8,73.4,60.5,73.5
		z"/>
	<path class="st45" d="M18.1,83.4c-1.1-0.2-1.7-1.3-2.7-1.7c-1.2-0.5-2.4-0.5-3.6-0.7c0.4-0.6,0.9-1.2,1.6-1.5
		c0.8-0.3,1-1.2,1.5-1.7c0.4-0.1,0.8-0.1,1.2,0c1.3,1,1.9,2.4,2.3,3.9C18.7,82.3,18.5,82.9,18.1,83.4z"/>
	<path class="st25" d="M16.2,77.8c-0.4,0-0.8,0-1.2,0C15.4,77.5,15.8,77.5,16.2,77.8z"/>
	<path class="st58" d="M19.5,102.3c-0.1-0.4,0.3-0.5,0.2-1C20.1,102,19.9,102.2,19.5,102.3z"/>
	<path class="st35" d="M132.6,61.3c-0.4,0.3-0.8,0.6-1,1.2c-0.3,0.8-0.9,1.5-1.7,2c-0.4,0.2-0.7,0.5-0.9,0.9c-0.5,1-1.1,1.9-2.4,1.9
		c-0.6,0-0.8,0.4-0.8,1.2c-0.1,1.5-0.2,3.2-2,3.9c-0.3,0.1-0.6,0.4-0.7,0.7c-0.4,1.2-0.8,2.4-1.7,3.3c-0.1,0.1-0.1,0.2-0.1,0.2
		c0.6,1.5-0.4,2.3-1.4,3.2c-0.6,0.5-1,1.2-0.7,2.1c0.5,1.4,0.3,2.7-0.7,3.9c-0.1,0.2-0.2,0.4-0.2,0.7c-0.3,1-0.6,1.1-1.4,0.5
		c-1.6-1.2-3.5-1.7-5.4-1.8c-1.8-0.1-3.5,0.6-4.9,1.7c-1.3,1-2.2,2.3-3,3.7c-0.8,1.7-1.8,3.3-3.7,3.9c-0.4,0.1-0.7,0.3-1.2,0.1
		c-0.7-1-0.8-2.2-1.1-3.4c-0.4-1.6-0.7-3.3-1.1-4.9c-0.3-1.1,0.1-2.1,0.1-3.2c0-2.4,0-4.8,0.1-7.2c0.2-3.5,0.6-6.9,1.6-10.2
		c0.1-0.4,0.3-0.7,0.7-0.7c2-3.3,5-4.2,8.5-2.7c3.5,1.5,6.6,0.5,9.5-1.7c1-0.8,1.9-1.6,2.9-2.3c2.6-1.8,5.3-2.4,8.4-1.2
		c1.8,0.7,3,2.2,4.3,3.6C132.6,60.9,132.6,61.1,132.6,61.3z"/>
	<path class="st35" d="M155.1,79.3c-1.4,1-2.8,1.9-4.2,2.9c-0.5,0.4-1.1,0.3-1.6,0.6c-1.4,0.9-2.5,2-3.5,3.4c-1.1,1.6-2.8,2.6-4,4.2
		c-1.5,2.1-3.3,4.1-4.1,6.6c0,0.1-0.2,0.2-0.4,0.3c-0.1,0-0.3-0.1-0.3-0.1c-1.7-1.8-3.7-1.5-5.8-0.9c-2,0.6-3,0.3-4.3-1.4
		c-1-1.3-2-2.4-3.8-2.4c-0.3,0-0.6-0.2-0.7-0.5c0.2-1.5,0.9-3,1-4.5c0.1-0.8,0.6-1.6,1-2.4c1.7-3.1,3.1-6.5,5.1-9.4
		c1.5-2.2,3-4.4,4.8-6.2c1.2-1.2,1.8-2.8,3.4-3.6c0.4,0,0.4,0.3,0.4,0.6c0.3,1.9,1.6,3.2,2.8,4.5c1.1,1.1,2.7,1.3,4.2,1.4
		c1.4,0.1,2.7,0,4.1,0c3.2,0,5.4,1.8,6.1,4.8C155.8,77.9,155.8,78.6,155.1,79.3z"/>
	<path class="st6" d="M138.8,57c-0.9,1.1-2,1.9-3.6,1.7c-0.3-0.1-0.6-0.3-0.8-0.5c-2.4-2.8-5.8-3.4-9.3-3.9c-0.8-0.1-1.6,0-2.4,0
		c-1.8-0.1-3.3,0.5-4.7,1.5c-0.9,0.7-1.8,1.4-2.5,2.2c-1.6,1.9-3.7,2.1-5.9,1.6c-0.8-0.2-1.6-0.4-2.5-0.6c-1.7-0.3-3.4-0.2-5.1,0.5
		c-0.8,0.3-0.8,0.3-1-0.4c1.2-2.1,2.4-4.1,4.2-5.8c0.3-0.3,0.6-0.6,1-0.8c3.9-1.9,7.7-3.7,12.4-3.1c3.5,0.4,6.9,1.1,10.3,1.9
		c3.4,0.9,6.5,2.7,9.2,4.9C138.5,56.4,138.6,56.7,138.8,57z"/>
	<path class="st6" d="M162.1,75.9c0.1,0.6-0.2,0.9-0.8,1c-1,0.2-2,0.5-3,0.9c-0.7,0.3-0.6-0.3-0.7-0.6c-0.3-0.9-0.3-1.8-0.6-2.7
		c-1.2-3.2-3.8-4.4-6.9-4.7c-1.5-0.2-3.1-0.2-4.7-0.1c-2.5,0.2-5-2.3-5-4.8c0-1.4,0.2-1.6,1.5-2c1.4-0.7,2.8-1.6,4.3-2.2
		c1.1-0.4,2.4-0.1,3.3-1.1c0.1-0.1,0.5,0,0.7,0.1c2.8,1.3,5.6,2.6,7.8,4.9C160.9,67.8,162,71.7,162.1,75.9z"/>
	<path class="st6" d="M117.9,91.3c-0.3,0.6-0.7,1.2-1,1.8c-0.7,1.5-0.6,2.4,0.5,3.5c-0.7,0-1,0.5-1.5,0.8c-3.9,2.3-8,4-12.5,4.6
		c-1.1,0.1-1.9-0.1-2.3-1.2c-0.4-1.1-1-2.2-1.4-3.3c0-0.7,0.6-0.7,1-0.8c2.6-0.8,4.5-2.4,5.4-5.1c0.7-2,2.3-3,4.5-3.1
		c2.4-0.1,4.6,0.6,6.5,2C117.5,90.8,117.8,91,117.9,91.3z"/>
	<path class="st32" d="M101.1,59.1c0.1,0.5,0.4,0.3,0.6,0.2c2.4-1.1,4.8-1,7.2-0.2c1.2,0.4,2.4,0.3,3.7,0.3c1.3-0.1,2.1-1.1,2.9-1.9
		c1.8-1.7,3.6-3.3,6.2-3.6c3.4-0.3,6.7,0.2,9.8,1.6c1.6,0.7,2.8,1.7,3.7,3.2c-0.9,0.9-1.9,1.6-2.7,2.6c-1.5-1.6-2.8-3.4-5-4.1
		c-2.7-0.9-5.1-0.3-7.3,1.2c-2.1,1.4-3.7,3.6-6.3,4.4c-2.3,0.8-4.5,0.8-6.7-0.2c-2.1-1-5.1-1-6.7,1.1c-0.4,0.5-0.9,1-1.5,1.4
		c0-0.2,0-0.5,0-0.7c-0.1-0.1-0.1-0.3,0-0.5C98.8,62,99.3,60.3,101.1,59.1z"/>
	<path class="st32" d="M117.9,91.3c-1.6-0.8-3-2-4.8-2.3c-2.8-0.5-5.2,0.2-6.4,2.1c-0.1,0.2-0.3,0.5-0.4,0.7
		c-0.8,2.8-2.8,4.3-5.4,5.2c-0.4,0.1-0.9,0.2-1.3,0.5c-0.6-0.9-0.7-1.9-1-2.9c2.5-0.5,3.8-2.3,4.8-4.4c1.5-3.1,4-4.9,7.3-5.3
		c2.1-0.2,4.3,0.3,6,1.7c0.6,0.4,1,0.7,1.4-0.2C117.7,88.1,118.5,89.7,117.9,91.3z"/>
	<path class="st32" d="M141.9,63c-1.4,0.7-1.7,2.6-0.7,3.9c1.4,2,3.2,2.8,5.7,2.5c2.5-0.2,5,0,7.2,1.3c1.9,1.1,3,2.7,3.4,4.9
		c0.2,0.8,0.1,1.6,0.7,2.2c-1,0.6-2,1.1-3.1,1.4c0.9-3.6-1.8-6.4-5.2-6.7c-2.1-0.2-4.2,0.2-6.3-0.2c-1.6-0.3-2.7-1.1-3.8-2.3
		c-1.1-1.3-1.8-2.6-2.1-4.3c0.9-0.8,1.8-1.7,2.7-2.5C140.9,63,141.4,62.9,141.9,63z"/>
	<path class="st6" d="M136,101.1c-0.3,1.1-0.7,2.3-1,3.4c-0.1,0.3-0.1,0.6-0.5,0.7c-3.9-0.5-7.7-1.3-11.3-2.9
		c-1.3-0.6-1.6-1.8-1.5-3.1c-0.2-1-0.2-2-0.1-2.9c0.2-1.1,0.5-1.2,1.4-0.8c1.4,0.6,2.7,1.3,3.6,2.5c1,1.4,2.3,1.5,3.8,1
		c0.4-0.1,0.7-0.3,1.1-0.4C133.7,98.1,135.1,98.6,136,101.1z"/>
	<path class="st32" d="M136,101.1c-0.2-0.3-0.6-0.4-0.8-0.8c-0.8-1.5-2-2-3.6-1.4c-0.7,0.3-1.4,0.4-2.2,0.6c-0.9,0.3-1.6,0-2.3-0.6
		c-1.2-1.3-2.4-2.5-4.1-3.2c-1-0.4-1.2-0.4-1.2,0.7c-0.1,0.9,0,1.8,0,2.7c-0.3-0.9-0.6-1.9-0.2-2.9c0.5-1.4-0.2-3.1,1-4.3
		c0.8,0.5,1.9,0,2.7,0.7c1,0.7,1.7,1.5,2.4,2.5c0.8,1,1.7,1.3,2.9,1c1-0.3,2.1-0.6,3.1-0.7c1.6-0.2,2.8,0.5,3.7,1.8
		c-0.7,0.9-0.7,2-0.9,3C136.3,100.6,136.3,101,136,101.1z"/>
	<path class="st59" d="M115.1,103.5c0.3,1.4-0.6,2-1.7,2.4c-2.3,0.9-4.7,1.3-7.2,0.8c0-1-0.8-0.8-1.4-0.9c1.5-1,3.1-1.6,4.9-1.7
		c0.4,0,0.7-0.3,1.1-0.4c0.9-0.3,1.8-1,2.9-0.5c0.4,0.2,1.2,0.3,1.2-0.7c0-0.2,0.2-0.3,0.4-0.3C114.9,102.5,115,103,115.1,103.5z"/>
	<path class="st11" d="M104.8,105.7c0.8-0.1,1.6-0.3,1.4,0.9c0,0.4,0,0.8,0,1.2c-0.3-0.2-0.3-0.5-0.2-0.7c0.2-1-0.3-1.3-1.2-1.2
		C104.7,105.9,104.7,105.8,104.8,105.7z"/>
	<path class="st11" d="M102.1,106.2c-0.6,0.4-1.3,0.4-1.9,0C100.8,106.2,101.5,106.2,102.1,106.2z"/>
	<path class="st60" d="M129.2,108.4c-0.3-0.1-0.6-0.2-1-0.3C128.7,107.7,129,107.9,129.2,108.4z"/>
	<path class="st11" d="M103.8,106.2c-0.4,0.4-0.8,0.4-1.2,0C103,106.2,103.4,106.2,103.8,106.2z"/>
	<path class="st61" d="M98.9,64c0,0.2,0,0.3,0,0.5c-0.2,0-0.4,0.2-0.4-0.1C98.5,64.1,98.7,64,98.9,64z"/>
	<path class="st62" d="M170.4,93.1c0,1.3-0.6,2-0.9,2.9C169.6,95,169.8,94.2,170.4,93.1z"/>
	<path class="st63" d="M170.3,92.9c-0.1-0.4,0.1-0.7,0.3-0.9C170.8,92.3,170.6,92.6,170.3,92.9z"/>
	<path class="st64" d="M136.4,107.7c0,0.2-0.1,0.4-0.3,0.3c-0.1-0.1-0.1-0.3-0.2-0.4c0-0.1,0.1-0.3,0.2-0.2
		C136.3,107.4,136.3,107.6,136.4,107.7z"/>
	<path class="st65" d="M147.3,89.2c-0.1,0.4-0.4,0.5-0.7,0.5C146.7,89.2,146.9,89.1,147.3,89.2z"/>
	<path class="st66" d="M128.5,30.7c-0.2-2.4,2-3.8,3.7-3.9c1.9-0.1,3.9,1.9,4,3.9c0,2-1.9,4-3.8,4C130.2,34.7,128.5,32.9,128.5,30.7
		z"/>
	<path class="st35" d="M43.3,105.9c-0.3,1.1-0.3,2.4-0.9,3.4c-0.1,0.1-0.1,0.3-0.1,0.5c1,1.9,0.4,4.3,1.9,6.1
		c0.3,0.4,0.3,0.8,0.2,1.3c-0.2,1.2,0.5,1.9,1.4,2.4c0.6,0.3,1,0.7,0.9,1.4c-0.1,1.8,0.5,3.2,2.3,3.9c1.2,0.5,1.6,1.8,1.9,2.6
		c0.4,1.1,0.9,1,1.7,1.1c0.2,0,0.4,0,0.5,0.2c-0.1,0.4-0.5,0.4-0.8,0.5c-0.4,0.8-1.2,1-1.9,0.8c-2.6-0.7-4.6,0.6-6.4,2.1
		c-1.3,1.1-2.4,2.5-3.1,4.2c-1.4,3.2-3.9,3.9-7.2,3.6c-0.6-0.1-1.2-0.4-1.7-0.8c-0.3-0.3-0.7-0.6-0.9-0.9c-1.9-2.6-4.5-2.9-7.4-2
		c-0.5,0.2-1.1,0.4-1.6-0.1c-0.7-1.3-0.7-2.8-0.9-4.3c-0.6-4.2-1-8.4-0.7-12.6c0.2-3.3,0.3-6.7,1.3-9.9c0.2-0.6,0.2-1.2,1.1-1.1
		c0.7,0,1.1,0.4,1.6,0.8c0.9,0.9,1.9,1.5,3,2.2c1.6,1.2,5.3,1,7-0.2c1.5-1.1,2.9-2.3,4.1-3.6c1-1.1,2.1-2.2,3.8-2.1
		C42.7,105.5,43.2,105.3,43.3,105.9z"/>
	<path class="st6" d="M54.4,131.4c1,0.4,1.8,1.2,2.9,1.6c0.8,0.3,1.4,1.5,2,2.4c0.3,0.6,0.7,1.1,1.5,0.8c0.5-0.2,0.6,0.3,0.8,0.6
		c0.5,0.9,1.2,1.3,2.2,1c0.8-0.2,0.9,0.2,1,0.7c-3.5,3.2-7.5,5.7-11.6,7.8c-2.1,1-4.3,1.6-6.6,2.1c-1.6,0.3-3.1,0.8-4.7,1
		c-0.9,0.1-1.9-0.4-2.8,0.2c-0.3,0.2-0.6,0.2-0.9,0c-1.2-0.3-2.4-0.5-3.5-0.4c-3.3,0.1-6.2-1-9-2.3c-0.5-0.2-0.9-0.6-1.1-1.1
		c-0.8-2.1-1.6-4.2-1.7-6.5c2.1-1.4,4.3-1,5.6,1.1c1.5,2.4,4.6,3.7,7.4,3.2c5.1-0.9,8.4-4,10.6-8.4c0.8-1.5,1.9-2.4,3.6-2.8
		C51.4,132.2,52.9,131.9,54.4,131.4z"/>
	<path class="st6" d="M42.1,96.6c0.9,0.1,0.8,0.9,0.9,1.5c0.2,1.5,1,2.9,0.4,4.4c-0.1,0.1-0.2,0.2-0.3,0.3c-2.7-0.4-4.7,0.9-6.6,2.6
		c-4.1,3.8-5.2,3.9-10,1.1c-0.9-0.5-2.1-0.8-2.5-1.9c1.2-3.5,2.7-6.5,6.6-7.8c3.3-1.1,6.6-0.7,9.9-0.3
		C41.1,96.4,41.6,96.5,42.1,96.6z"/>
	<path class="st32" d="M54.4,131.4c-1,0.9-2.2,1-3.4,1.2c-2.1,0.3-3.7,1.1-4.6,3.3c-1.7,4.4-7.5,8.3-12.2,8.2
		c-2.5-0.1-4.5-1.2-6-3.3c-1.4-2-2.1-2.3-4.5-1.8c-0.3,0.1-0.7,0.2-1,0.3c0-0.1,0.1-0.2,0.1-0.2c-0.8-0.9-0.4-1.9-0.6-2.9
		c1.1,0.2,2-0.4,3-0.5c2.2-0.4,4-0.1,5.5,1.7c0.2,0.2,0.4,0.4,0.6,0.6c2.3,2.3,5,2.5,7.7,0.6c0.9-0.6,1.3-1.6,1.8-2.5
		c1.6-3.1,3.9-5.6,7.5-6.5c0.5-0.1,1-0.1,1.4,0c1,0.3,1.9,0.1,2.8-0.4C53.4,129.6,53.7,130.7,54.4,131.4z"/>
	<path class="st32" d="M24.1,104.5c1.9,1.5,4,2.6,6.2,3.5c1.3,0.5,2.8,0,3.9-1c1.2-1,2.3-2.1,3.5-3c1.6-1.1,3.3-2.2,5.3-1.2
		c-0.1,0.7,0.1,1.3,0.4,1.8c0.4,0.6,0.2,0.9-0.2,1.3c-2-0.8-3.4,0.4-4.5,1.7c-1.4,1.5-2.9,2.9-4.6,4c-1.3,0.9-2.9,0.8-4.4,0.7
		c-2.3-0.1-3.7-1.6-5.3-2.9c-0.5-0.4-1.1-0.7-1.6-1.2c0.1-0.5-0.2-0.9-0.2-1.4c0.1-0.6,0.1-1.3,0.9-1.5
		C24.1,105.3,24.1,104.9,24.1,104.5z"/>
	<path class="st41" d="M50.5,153.2c-0.7,1.8-1.5,2.4-3.5,2.4c-1.4,0-2.9,0.3-4.2-0.7c0.2,0,0.4,0,0.5-0.1c0.8-1.4,2.3-1.4,3.6-1.7
		c0.3-0.1,0.6-0.1,0.8-0.3C48.7,152.3,49.7,152.1,50.5,153.2z"/>
	<path class="st41" d="M30.8,90.6c0.8-0.6,1.4-1.6,2.6-1.4c0.3,0,0.7,0,1,0c1,0,1.9,0.2,2.6,0.9c0.4,0.3,0.8,0.3,1.2,0.3
		c-1.8,1.5-4.1,0.9-6.1,1.6c-0.4,0.2-0.8-0.1-0.8-0.6C31.3,91,31.3,90.6,30.8,90.6z"/>
	<path class="st67" d="M38,149.6c0.3,0,0.6,0,0.9,0C38.6,150.2,38.3,150.3,38,149.6z"/>
	<path class="st68" d="M44.7,157.8c0.4,0,0.7,0.1,1,0.5C45.3,158.3,44.9,158.2,44.7,157.8z"/>
	<path class="st35" d="M90.3,69.7c0.9,0.2,0.4,0.8,0.2,1.1c-0.6,1-0.5,1.9,0.1,2.8c0.2,0.4,0.3,0.8,0.2,1.2c-0.2,1.1-0.4,2,0.1,3.1
		c0.3,0.7-0.3,1.9-0.6,2.8c-0.1,0.3-0.3,0.5-0.2,0.8c0.6,1.4,0.5,2.8-0.2,4.1c-0.2,0.3-0.1,0.7,0.2,1c0.7,0.8,0.9,1.8,0.7,2.8
		c-0.5,2,0.5,3.7,1.2,5.4c0.3,0.6,0.1,1-0.6,1.2c-0.6,0.1-1.2,0.3-1.7,0.4c-1.9,0.5-3.3,1.6-3.7,3.7c-0.2,1.1-0.4,2.1-0.4,3.2
		c-0.1,2.2-1.4,3.8-3.1,5c-0.9,0.6-1.7,1.5-3,1.2c-0.6,0.3-1,0-1.3-0.6c-2.2-4.3-4.8-8.4-6.2-13c-1-3.2-1.8-6.4-2.3-9.7
		c0.5-0.8,1.2-1.2,1.9-1.5c4.6-2.3,7.3-6.2,8.6-11.1c0.4-1.7,2.4-3.3,4.3-3.1c1.9,0.2,3.7,0,5.4-0.8C90,69.7,90.2,69.7,90.3,69.7z"
		/>
	<path class="st6" d="M93.9,57c1,0.1,1.2,0.9,0.5,1.9c-0.2,0.3-0.5,0.5-0.8,0.7c-0.4,0.3-0.9,0.6-0.8,1c0.2,1.1-0.6,1.9-0.7,2.9
		c-0.1,1.2-1.2,1.8-1.9,2.6c-0.3,0.5-0.9,0.8-1.5,1c-1.6,0.4-3.3,0.7-5,0.8c-3.6,0.2-6.4,2.3-7.6,5.7c-0.3,0.9-0.6,1.9-0.8,2.9
		c-0.4,1.7-1.2,3.2-2.7,4.2c-1.1,0.8-2.1,1.7-3.4,2.2c-0.7,0.3-0.7-0.1-0.8-0.6c-0.4-2.3-0.1-4.5,0.2-6.8c0.1-0.7,0.3-1.3,0.3-2
		c0.1-2.5,1.6-4.2,3.4-5.8c3-2.7,6.3-5,9.8-6.9c3.1-1.6,6.3-2.9,9.7-3.7C92.6,57,93.3,57,93.9,57z"/>
	<path class="st32" d="M69.5,82.9c0.9-1.1,2.2-1.7,3.3-2.5c1.4-1,2.1-2.4,2.5-4c0.4-1.5,0.7-2.9,1.4-4.3c1.6-2.8,3.8-4.5,7.2-4.6
		c2.2-0.1,4.4-0.3,6.4-1.4c0.2,0.7,0.4,1.4,0.7,2c0.4,0.8-0.6,1-0.6,1.6c-1.6,1-3.4,1.4-5.2,1.2c-2.3-0.3-4.1,1-4.7,3.2
		c-1.3,4.6-3.7,8.3-8.1,10.6c-0.9,0.5-1.7,1.1-2.7,1.6C69.3,85.2,70,84,69.5,82.9z"/>
	<path class="st6" d="M93.2,99.2c0.1,0,0.3,0.1,0.3,0.1c-0.2,1.4,1.1,2.4,1.2,3.8c0,0.4,0.1,0.9,0.4,1.1c1,0.6,0.8,1.3,0.5,2.2
		c-1.3,2-3.1,3.8-4.7,5.6c-1.4,1.6-3.1,2.7-5.1,3.4c-0.5,0.2-0.8,0-1.1-0.2c-1-0.8-2-1.5-3-2.3c-0.4-0.7,0.1-0.9,0.6-1.1
		c1.2-0.6,2.4-1.2,3.4-2.2c1.1-1,1.7-2.3,2.1-3.7c0.3-1.2,0.6-2.5,0.9-3.7c0.6-2.3,1.4-2.9,3.7-2.9C92.7,99.3,93,99.4,93.2,99.2z"/>
	<path class="st32" d="M93.2,99.2c-0.5,0.9-1.3,0.3-1.9,0.4c-1.3,0.2-1.8,0.9-2.1,1.9c-0.5,1.8-0.9,3.6-1.3,5.3
		c-0.5,2-2.1,3.2-3.7,4.3c-0.6,0.4-1.3,0.7-1.9,0.9c-0.4,0.2-0.5,0.4-0.4,0.7c-0.3-0.8-0.7-1.4-1.6-1.6c-1.1-0.2-0.1-1.2-0.6-1.7
		c2.2-0.7,3.9-2,5.2-3.9c0.4-0.6,0.6-1.3,0.6-2c0-1.2,0.2-2.3,0.4-3.4c0.5-2.3,2-3.8,4.3-4c0.6-0.1,1.1-0.4,1.7-0.5
		c0.5,0,0.2-0.5,0.3-0.8c0.1,0.2,0.3,0.4,0.2,0.5C91.9,96.9,92.3,98.1,93.2,99.2z"/>
	<path class="st69" d="M96.4,54.1c0,0.1,0,0.3-0.1,0.4c-0.2,0-0.5,0-0.3-0.4C96,54,96.2,53.9,96.4,54.1z"/>
	<path class="st35" d="M64.2,92.5c0.7,0.7,0.9,1.6,0.7,2.4c-0.3,1.2,0.1,2.1,0.8,2.8c1.3,1.3,1.8,2.8,1.2,4.6c-0.3,0.8,0,1.6,0.9,2
		c0.4,0.2,0.7,0.5,0.7,1c0.1,0.8,0.2,1.7,1.3,1.8c0.2,0,0.4,0.2,0.4,0.4c-0.3,1.7,1.1,2.4,1.9,3.3c0.1,0.1,0.2,0.3,0.3,0.4
		c0.2,0.6,0.2,1.1,0,1.7l0,0c-0.2,0.5-0.7,0.7-1.2,0.8c-0.6,0.1-1.2,0.3-1.7,0.4c-3.1,0.6-4.7,2.7-5.2,5.7c-0.3,2-0.9,3.9-2.5,5.3
		c-0.6,0.5-1.3,0.9-2,1.3c-0.5,0.2-0.9,0.2-1.3-0.2c-2.8-3.5-5.3-7.3-7.2-11.3c-1.1-2.3-1.9-4.8-2.2-7.4c-0.2-0.4,0-0.8-0.1-1.2
		c-0.2-1.1,0.4-1.7,1.4-2c1.5-0.4,2.9-0.7,4.4-1c1-0.2,1.7-0.6,2.2-1.5c0.9-1.5,1.9-3,2.4-4.7c0.4-1.1,1-2.2,1.8-3.1
		C62,93.2,63,92.6,64.2,92.5z"/>
	<path class="st6" d="M74.5,115.8c1.5,0.4,2.3,1.6,3.2,2.6c0.7,0.8,1.2,1.3,2.2,0.6c0.9-0.6,1.2,0.2,1.5,0.7
		c0.4,0.8,0.9,1.3,1.9,1.4c0.8,0.1,0.4,0.6,0.3,1c-1.7,3.8-4.4,6.8-7.6,9.2c-2.2,1.7-4.5,3.2-7.5,3.4c-0.3,0-0.5,0-0.8-0.1
		c-2.6-1.5-5.1-3.3-7.2-5.4c-0.2-0.2-0.2-0.3-0.2-0.5c2.1-0.7,3.7-2.2,5.4-3.7c1.1-1,1.6-2.2,1.7-3.6c0.2-3.3,2.3-4.3,4.6-5.1
		C72.8,115.8,73.6,115.6,74.5,115.8z"/>
	<path class="st6" d="M61.8,81.7c0.4-0.1,1-0.6,1-0.3c0.1,0.8,1.2,1.2,0.8,2.1c-0.1,0.2-0.4,0.5-0.3,0.6c1.2,1.4-0.4,3.1,0.7,4.5
		c0.4,0.5-0.3,0.8-0.7,1c-0.9,0.6-1.9,1-2.9,1.5c-1.6,0.9-2.6,2.3-3.1,4.1c-0.8,2.6-2.2,4.5-5,5.2c-0.9,0.2-1.7,0.8-2.5,1.1
		c-0.8,0.3-1,0.2-1.2-0.6c0.6-1.5,0.5-3.1,0.6-4.6c0.4-3.6,2.4-6.2,4.8-8.6c2-2,4.5-3.3,6.8-4.9C61.2,82.5,61.6,82.2,61.8,81.7z"/>
	<path class="st32" d="M48.6,100.9c0.1,0.7,0.6,0.6,1,0.3c1.3-0.7,2.6-1.1,4-1.7c1.9-0.8,2.8-2.5,3.4-4.4c0.9-3.3,3.3-4.8,6.3-5.6
		c-0.1,0.4-0.5,0.8,0.3,1c0.6,0.2,0.8,0.7,0.4,1.3c-0.3,0.4-0.1,0.6,0.3,0.6c-2.6,1-4,3-4.8,5.6c-0.5,1.6-1.5,3-2.4,4.4
		c-0.4,0.7-1.1,1-2,1.1c-1.5,0.2-2.9,0.6-4.3,0.9c-1.3,0.2-1.8,0.9-1.6,2.2c0,0.2,0,0.5,0,0.7c-0.3-1.8-0.9-3.6-0.9-5.5
		C48.1,101.5,48.1,101.1,48.6,100.9z"/>
	<path class="st32" d="M74.5,115.8c-1.7,0.5-3.5,0.7-5,1.9c-1.1,0.8-1.7,1.8-1.7,3.1c-0.1,2.5-1.4,4.2-3.3,5.6
		c-0.7,0.4-1.3,1-1.9,1.5c-0.6,0.5-1.4,0.8-2.2,0.7c0-0.8,0-1.6-1.2-1.5c-0.3-0.2-0.6-0.4-0.8-0.7c0-0.1,0-0.2,0-0.2
		c2.1,0.1,3.3-1.3,4.4-2.8c0.8-1.1,1-2.4,1.1-3.7c0.1-1.2,0.7-2.3,1.3-3.3c0.8-1.5,2.3-2,3.8-2.5c1.1-0.3,2.3-0.3,3.3-0.9
		c0.1,0.2,0.1,0.5,0.2,0.5C73.8,113.7,74.3,114.6,74.5,115.8z"/>
	<path class="st41" d="M85.1,128.7c1,0.5,1,1.5,0.8,2.2c-0.4,2.1-1.6,3.8-3.2,5.1c-1-0.9-2.6-1-3.4-2.2c1.1-1.4,2.8-2.5,3.7-4.3
		C83.5,128.7,84.5,129.2,85.1,128.7z"/>
	<path class="st41" d="M49.1,82.7c1.2-1.8,2.8-3.1,4.8-3.9c0.1,0.1,0.1,0.3,0.2,0.4c1.5,0.7,1.5,0.8,0.3,1.9
		c-0.7,0.7-1.1,1.7-2.2,2.2c-0.7,0.3-1,0.5-1.6,0.1C50.1,83.1,49.7,82.7,49.1,82.7z"/>
	<path class="st70" d="M58.4,126.3c0.3,0.2,0.7,0.3,0.8,0.7C58.7,127.1,58.5,126.8,58.4,126.3z"/>
	<path class="st71" d="M73.4,112.8c-0.5-0.5-0.4-0.8-0.1-1.4C73.6,111.9,73.6,112.3,73.4,112.8z"/>
	<path class="st72" d="M82.6,120c-0.5-0.2-0.7-0.5-0.6-1C82.4,119.2,82.5,119.5,82.6,120z"/>
	<path class="st32" d="M72.3,112.9c0-0.6,0-1.1,0-1.7C72.7,111.8,72.7,112.3,72.3,112.9z"/>
	<path class="st73" d="M107.3,107.6c2.6,0.5,4.8,0.1,7-1.2C112.7,108.8,109.8,109.3,107.3,107.6z"/>
	<path class="st74" d="M94.7,60c0,0.6-0.3,0.8-0.8,1.1C93.7,60.3,94.3,60.2,94.7,60z"/>
	<path class="st75" d="M93.6,97.9c-0.7-0.4-0.7-0.7-0.5-1.2C93.6,96.9,93.6,97.3,93.6,97.9z"/>
	<path class="st76" d="M134.5,60.5c0.1-0.4,0.3-0.7,0.9-0.8C135.3,60.3,134.9,60.4,134.5,60.5z"/>
	<path class="st77" d="M128.1,67.9c0.1-0.1,0.2-0.2,0.3-0.2c0.1-0.1,0.3,0,0.2,0.1c0,0.1-0.2,0.2-0.3,0.3
		C128.2,68.2,128.1,68.2,128.1,67.9z"/>
	<path class="st78" d="M34.4,89.1c-0.3,0.4-0.7,0.4-1,0C33.8,88.8,34.1,88.8,34.4,89.1z"/>
	<path class="st79" d="M48.7,102.4c0.5,0.7,0.3,1,0.2,1.6C48.4,103.6,48.6,103.1,48.7,102.4z"/>
</g>
</svg>
