<?xml version="1.0" encoding="utf-8"?>
<!-- Generator: Adobe Illustrator 21.0.0, SVG Export Plug-In . SVG Version: 6.00 Build 0)  -->
<svg version="1.1" id="Layer_1" xmlns="http://www.w3.org/2000/svg" xmlns:xlink="http://www.w3.org/1999/xlink" x="0px" y="0px"
	 viewBox="0 0 413.5 1536" style="enable-background:new 0 0 413.5 1536;" xml:space="preserve">
<style type="text/css">
	.st0{fill:#388258;}
	.st1{fill:#333333;}
	.st2{fill:#4BBD7D;}
	.st3{fill:#1F1F1F;}
	.st4{fill:#8E8E8E;}
	.st5{fill:#39855B;}
	.st6{fill:#BFBFBF;}
	.st7{fill:#242424;}
	.st8{fill:#388358;}
	.st9{fill:#A0A0A0;}
	.st10{fill:#3A885C;}
	.st11{fill:#A2A2A2;}
	.st12{fill:#CBCBCB;}
	.st13{fill:#949494;}
	.st14{fill:#CDCDCD;}
	.st15{fill:#929292;}
	.st16{fill:#C8C8C8;}
	.st17{fill:#8F8F8F;}
	.st18{fill:#989898;}
	.st19{fill:#388257;}
	.st20{fill:#252525;}
	.st21{fill:#3B8B5E;}
	.st22{fill:#3F9967;}
	.st23{fill:#3F9966;}
	.st24{fill:#3D9363;}
	.st25{fill:#3D9364;}
	.st26{fill:#3E9665;}
	.st27{fill:#3F9765;}
	.st28{fill:#3F9A67;}
	.st29{fill:#419C69;}
	.st30{fill:#222222;}
	.st31{fill:#3B8E60;}
	.st32{fill:#3D9162;}
	.st33{fill:#41A06B;}
	.st34{fill:#42A46D;}
	.st35{fill:#9D9D9D;}
	.st36{fill:#232323;}
	.st37{fill:#202020;}
	.st38{fill:#212121;}
	.st39{fill:#9A9A9A;}
	.st40{fill:#959595;}
	.st41{fill:#42A26C;}
	.st42{fill:#B8B8B8;}
</style>
<g>
	<path class="st0" d="M366,1537c-0.2-2.2-2.2-3.2-3.5-4.6c-40.4-41.8-80.8-83.5-121.2-125.3c-3.9-4-7.2-4-12-0.3
		c-7.2,5.6-13,12.7-20,18.5c-14.5,12.2-28.5,24.9-42.6,37.5c-8.4,7.5-16.6,15.3-25,22.9c-14.8,13.5-29.2,27.3-43.5,41.4
		c-3.7,3.6-8.1,6.5-12.2,9.8c-15.7,0-31.3,0-47,0c0.6-2,2.4-3,3.9-4.1c8.5-0.7,14.3-6.3,20.1-11.4c11.2-9.9,22.9-19.1,34.4-28.6
		c15.3-12.5,30.1-25.6,45.6-37.9c22.7-18,44.3-37.2,67-55.2c9.2-7.3,18-15.3,27.1-22.8c9.1-7.5,18.4-14.8,27.5-22.2
		c16.1-13.1,31.9-26.7,44-43.9c8.1-11.4,16.9-22.3,25.8-33c8.5-10.2,16.8-20.6,25-31c0.6-0.8,1.4-1.4,2.6-1.1
		c5.4,3.7,11,1.7,16.5,0.3c2-0.5,3.7-0.7,5.7-0.6c4.7,0.4,9.3-1.2,14-1.2c2.1,0,4.5-0.7,4.7,2.6c-1.1,1-2.1,2.1-3.2,3.1
		c-3.9,1.6-6.4,4.7-8.8,7.9c-17.3,15.8-34.9,31.3-51.3,48c-0.9,0.2-2.1,0.1-2.6,1.2c-3.4,4.2-7.6,7.7-11.9,10.9
		c-0.5,0.8-2.9-0.1-2.1,2.1c-0.1,2.5-2.8,2.5-3.9,3.9c-3.5-0.9-4.9,0.8-5.1,4.1c-2.8,4.8-8.1,7.4-11.3,11.9c-0.8,1-3.5,0.1-2.8,2.7
		c-2.3,1.8-4.6,3.6-6.9,5.4c-2.5-0.4-4.3-2.3-6.8-3c1.5,2.1,4.3,2.2,5.9,3.9c-9.5,8.7-19.1,17.4-28.6,26.1c-1.1,1-2.2,2-3.2,3
		c9,9.3,18,18.5,26.8,27.8c12.2,12.7,24.2,25.5,36.4,38.2c28.1,29.5,56.3,59,84.5,88.5c1.2,1.2,2.3,2.4,2,4.3
		C395.3,1537,380.7,1537,366,1537z"/>
	<path class="st1" d="M1,1434c0-42.3,0-84.7,0-127c2.4-0.8,3.4,1.1,4.7,2.4c11.8,12.2,23.8,24.2,35.9,36c8.3,7.8,14.9,17.3,24,24.3
		c2.4,1.8,2.5,4.1,0.3,6.4c-2.7,2.9-5.6,5.6-8.4,8.5c-15.8,16.2-32.9,30.9-50,45.7C5.8,1432,4.1,1434.3,1,1434z"/>
	<path class="st2" d="M1,115c7-4.9,12-12,18.5-17.2c8.4-6.9,16.2-14.4,24.2-21.8c5.6-5.2,11.8-8.7,19.6-7.9
		c10.1,1.1,18,7.7,15.5,18.9c-0.8,3.6-2,7.6-5.8,10.6c-9.3,7.4-18.2,15.6-26.8,23.9c-5.3,5-11.3,9-16.7,13.8
		c-1.9,1.6-3.8,3.3-5.3,5.2c-6.7,8.3-14.8,14.9-23,21.5C1,146.3,1,130.7,1,115z"/>
	<path class="st3" d="M1,1434c12.3-9.9,24-20.4,35.7-30.9c6.9-6.2,13.1-13.2,20.3-19.1c0.8-0.5,1.7-1,2.3-1.8
		c5.2-7.1,12.4-7.2,20.1-5.8c2.6,0.5,5.2-0.6,7.8-0.9c3.8-0.3,7.6-0.6,11.4,0c2.3,0.4,4.6,0.9,5.4,3.6c-10.7,11.1-22.4,21.3-34,31.4
		c-4.5,3.9-8.5,8.2-13,12.1c-10.4,9.1-20.3,18.9-30.5,28.3c-8.5,7.8-17.1,15.4-25.6,23.1C1,1460.7,1,1447.3,1,1434z"/>
	<path class="st4" d="M91,257.1c6.3,7.7,12.5,15.5,19,23.1c1.9,2.2,2,3.5-0.2,5.6c-28.6,27.7-57,55.4-85.4,83.2
		c-2.1,2.1-3.2,1.9-5.1-0.2c-6-6.7-12.1-13.2-18.2-19.8c0-3,0-6,0-9c1.3-2.6,3.2-4.6,5.4-6.5c8.9-7.7,17.4-16,25.9-24
		c17.4-16.4,35.1-32.5,52.3-49.1C86.3,258.7,88.2,256.9,91,257.1z"/>
	<path class="st5" d="M49.9,1210c-16-14.3-30.4-30.3-45.2-45.8c-1.1-1.2-2.5-2.1-3.7-3.2c0-1.7,0-3.3,0-5c3.5-1.2,6.5-5.5,10.7-1.2
		c1.9,1.9,3.5,0.5,5.2-0.8c3.8-3.1,9.8-2.8,13.2,0.8c1.6,1.7,2.7,3.1,5.1,0.7c3-2.9,5.4,0.8,8.1,1.4c16.6,16.2,33,32.7,48.9,49.6
		c0.2,0.8,0.2,1.6,0,2.5c-0.7,2.3-0.2,5.3-3.2,6.3c-3.2,1.1-3.3-2.7-5.2-3.7c-2.9,3.8-10,6.1-14.2,4.5c-0.7-0.3-1.6-1-2.1,0.1
		c-0.9,1.9-2,2.7-3.9,1.5c-2-1.4-1.3-3.2-0.5-4.9c0.2-0.5,0.3-1-0.4-1.8C58.2,1214.9,54.1,1212.6,49.9,1210z"/>
	<path class="st4" d="M212,1c-7.3,8.8-16.5,15.6-24.8,23.3c-3.7,3.5-7.7,6.8-11.3,10.4c-2.8,2.8-5.5,5.2-9.8,4.8
		c-2-0.2-2.5,1.6-3.5,3c-2.1,3.1-5.1,3.1-7.3,0.4c-8.2-10.3-16.5-20.7-26-29.9C125.6,9.3,122,5.3,119,1C150,1,181,1,212,1z"/>
	<path class="st6" d="M91,257.1c-9.9,7.5-18.4,16.7-27.5,25C42.5,301.2,22.3,321.2,1,340c0-7,0-14,0-21c5.4-4.9,10.8-9.8,16.1-14.8
		c19.6-18.5,39.1-37,58.6-55.5c4.7-4.4,4.8-4.4,9,0.7C86.9,251.9,88.9,254.5,91,257.1z"/>
	<path class="st7" d="M5,1310c-1.2-1.2-2.3-2.5-4-3c0-16,0-32,0-48c8.7,7.3,15.7,16.3,23.3,24.6c4.6,5.1,9.8,9.8,14.2,15.1
		c3.1,3.8,7.1,6.8,9.6,11.1c0.3,2.6-1.4,3.8-3.5,3.7c-6.7-0.2-13.5,0.2-20.2-1.2c-3.4-0.7-6.8-1.3-10.2,0.1
		C10.5,1314,7.9,1311.3,5,1310z"/>
	<path class="st8" d="M403,1246.9c-0.6-1.1-1.8-2.3-2.7-1.7c-3.7,2.3-7.9-0.7-11.6,1.6c-1.3,0.8-3.7,1.8-5.4-0.3
		c-0.3-0.4-1.6-0.5-1.8-0.3c-3,3.8-8.4,0.2-11.5,3.8c-0.8,0.9-1.8,0-2-0.6c-1.1-2.8-6.5,2.1-5.9-3.4c-0.9-2.9,1.6-4.3,2.9-6.2
		c1.1-1.6,2.6-2.8,3.2-4.8c7.2-6.8,14.4-13.7,21.6-20.5c6.9-6.4,16.3-4.3,20.4,4c1.2,2.5,1.5,5.5,3.8,7.5c0,3,0,6,0,9
		c-2.9-0.2-1.3,2.7-2.5,3.9C408.8,1241.9,406.4,1244.8,403,1246.9z"/>
	<path class="st9" d="M36.9,768.2c3.6,4,7.1,8.1,10.5,12.4c3,3.9,7.1,7,10.7,10.4c-4.4,2.4-9.2,2-13.9,2c-8,0-16.1-0.1-24.1,0
		c-1.6,0-2.9-0.7-4-1.8C10.8,785.7,5.4,780.2,1,774c0-1.7,0-3.3,0-5c1.2-1.1,2.6-1.5,4.1-1.5C15.7,767.6,26.4,766.7,36.9,768.2z"/>
	<path class="st10" d="M43.2,1156.9c-1.5,0-3,0.4-4.2-0.9c-1.5-1.5-3.4-0.4-3.8,0.6c-2.3,4.8-4.6,1-5.6-0.4
		c-1.3-1.8-2.7-1.8-4.3-2.6c-4.6-2.2-6.7,0.2-9.6,2.9c-2.1,1.9-4.3,0.6-5.7-1.5c-1.1-1.6-2-2.8-3.2,0.1c-1.2,2.8-4.2-1.8-5.8,0.9
		c0-14,0-28,0-42C15.5,1127.9,29.4,1142.3,43.2,1156.9z"/>
	<path class="st11" d="M36.9,768.2c-2.4,1.7-5.1,0.8-7.7,0.8c-9.4,0.1-18.8,0-28.3,0c0-13,0-26,0-39c6.9,5.1,11.8,12,17.5,18.2
		C24.7,754.8,31.6,760.8,36.9,768.2z"/>
	<path class="st12" d="M1,774c7,5,11,12.9,17.9,18c3.8,1.5,5.4,5.3,8.2,7.9c4.5,4.2,8.4,9,11.9,14.1c0.2,0.3,0.4,0.5,0.6,0.8
		c4.8,6.5,3.7,9.9-4.2,13.2c-10.2,0.8-20.5-0.4-30.7,0.2C3.3,828.3,2,827.9,1,827c0-5.3,0-10.7,0-16c1.8-1.7,4-1.2,6.2-1.2
		c7.6-0.1,15.1,0.2,22.7,0.7c0.5-2.1-0.9-3-1.8-4c-8-8.4-15.6-17.1-23.5-25.6C3.1,779.3,2,777.7,1,776C1,775.3,1,774.7,1,774z"/>
	<path class="st13" d="M57.1,855c-4.2,4.8-8.9,9.2-14.2,12.8c-10.7,0.3-21.4,0.8-32.1,0.6c-3.5-0.1-7,0-9.9-2.4c0-2,0-4,0-6
		c2-3.9,4.4-7.2,9.2-7.7c5.6,1.2,11.1,1.3,16.8,0.5c8.5-1.2,17.1,1.1,25.7,0.4C54.2,853.1,55.9,853.6,57.1,855z"/>
	<path class="st14" d="M1,776c7.6,6,13.1,14.1,19.9,20.8c3.5,3.5,6.8,7.3,10,11.1c0.7,0.8,1.9,1.7,1.3,3c-0.7,1.5-2.3,1.2-3.6,1.1
		c-9.2-1.3-18.4-0.9-27.6-1C1,799.3,1,787.7,1,776z"/>
	<path class="st15" d="M1,866c10.9,2.1,21.9,0.2,32.9,1c3,0.2,6.4-3.1,9.1,0.8c-4.9,6.2-11.5,10.6-16.8,16.2c-8.4,0.7-16.7,1-25.1,0
		C1,878,1,872,1,866z"/>
	<path class="st16" d="M1,827c11.7-0.7,23.4-0.3,35.1,0c0.3,0.4,0.4,0.8,0.4,1.3c-4,5.3-9.8,8.6-14.3,13.3C15.1,847,8.6,853.2,1,858
		C1,847.7,1,837.3,1,827z"/>
	<path class="st17" d="M1,884c8.4-1.4,16.7-1.7,25.1,0C17.9,891.5,10,899.5,1,906C1,898.7,1,891.3,1,884z"/>
	<path class="st18" d="M1,858c7-5.7,13.1-12.4,21-17c0.1,0.2,0.2,0.4,0.2,0.7C19,846.8,14.4,850.4,9,853c-2.7,2.3-5.3,4.7-8,7
		C1,859.3,1,858.7,1,858z"/>
	<path class="st0" d="M49.9,1210c1.6,0.3,3.4,0.4,4.8,1.1c2.2,1,4,2.1,5.8-0.8c1-1.6,3.1-1.2,4.4-0.1c1.8,1.4-0.2,2.2-0.8,3.2
		c-0.7,1-1.5,1.9-0.7,3.1c0.4,0.5,1.1,1,1.7,1c2.6-0.2,0.1-1.7,0.5-2.3c1-1.6,2.2-2.6,3.8-0.5c2.1,2.6,4.5,1.8,6.7,0.1
		c1.2-0.9,2.1-2.1,3.9-1.2c0.9,0.4,1.7,0.1,1.5-1.1c-0.2-1.6,0.3-3.7,1.7-3.4c1.2,0.2,2.7,2.1,3.2,3.6c0.4,1.2,0.4,2.4,1.9,2
		c1.1-0.3,2.4-1.3,2.2-2.4c-0.4-2.2,0.8-3.8,1.6-5.6c24.3,24.6,48.5,49.3,72.8,73.9c7.3,7.4,14.9,14.7,22.1,22.3
		c10,10.7,21,20.5,30.7,31.4c5.8,6.6,12.9,12,18.4,18.8c-7.2,7.2-14.9,13.9-22.4,20.7c-1.3,1.2-2.8,2.4-4.7,2.4
		c-7.6-7.8-15.3-15.5-22.8-23.5c-5.5-5.9-10.5-12.2-16.1-18c-10.4-10.7-21.1-21-31.5-31.7c-5.7-5.9-10.5-12.9-16.6-18.3
		c-8-7-15.9-14.2-22.6-22.3c-6.1-7.4-12.6-14.5-19.6-20.9c-6.6-6-12.8-12.4-19.2-18.7C56.5,1218.8,54.2,1213.6,49.9,1210z"/>
	<path class="st19" d="M209,1376.1c7.8-7,15.6-14,23.4-21c1.1-1,2.1-2.2,3.8-2.2c2.6,3.5,4.7,2.4,7.5-0.3
		c40.7-38.7,81.4-77.3,122.2-115.9c0.7-0.7,1.5-1.2,2.3-1.7c1.3,2.8-1.2,4.1-2.4,5.7c-1.3,1.7-2.8,3.3-3.6,5.3
		c-5.4,7.2-11.9,13.6-16.6,21.3c-1.2,1.9-3,3.1-4.3,4.7c-9.5,11.7-18.8,23.4-28,35.3c-8.5,10.9-16.5,22.6-27.3,31.4
		c-7.9,6.5-15.8,13-23.6,19.6c-5.8,4.9-11.8,9.6-17.7,14.3c-7.3,5.9-14.1,12.4-21.6,18.1c-7.6,5.8-15.1,11.7-22.2,18.1
		c-7.9,7.2-16.8,13-24.7,20.1c-5.4,4.9-11,9.5-16.3,14.5c-3.8,3.5-7.8,7-12.1,10.1c-10.9,7.8-20.6,17.2-31.2,25.1
		c-6.1,4.6-11.1,10.4-17.6,14.7c-5.5,3.8-10.9,8.5-15.8,13.5c-3.7,3.8-8.7,6.3-12.8,10c-5.7,5.2-11.6,10.5-18.4,14.4
		c-2.7,1.5-5.5,4.1-9,1.6c15.9-14.9,31.8-29.8,47.7-44.7c35.8-33.3,71.7-66.6,107.6-99.9c3.3-3,6.6-6.1,10-9
		C209.3,1378.3,210.1,1377.5,209,1376.1z"/>
	<path class="st20" d="M151,308c12,11.4,22.5,24.2,33.9,36.2c7.1,7.4,13.9,15.1,20.8,22.7c13.4,14.7,26.7,29.4,40,44.1
		c-1,2.2-3,3.5-5.2,3.1c-8.4-1.4-17.3,0.7-25.4-2.8c-5.1-1.8-7.8-6.5-11.6-9.8c-1.4-1.2-2.6-2.5-3.9-3.8c-2-2.1-3.7-2-6-0.2
		c-3.5,2.8-6.3,6.4-10.5,8.2c-6.3,3.1-13.1,2.2-19.7,2c-2-0.1-4.4-0.1-5.7-2.2c-0.2-1.4,0.4-2.3,1.7-2.8c1.8,0.3,2.5-0.5,2.4-2.2
		c5.2-6.1,11.3-11.2,17.6-16.1c5.1-4,5.5-5.3,1-9.8c-6.4-6.3-12-13.4-18.6-19.4c-3.5-3.1-5.6-7.4-9-10.6c-2.6-2.4-4.6-2.8-7.3-0.4
		c-10.6,9.6-21.5,18.8-32.3,28.1c-11,9.4-21.2,19.6-33.1,28c-5.8,5.4-13,4.2-20,4c-3.8-0.1-6.4-1.7-5.6-6.2
		c2.7-6.3,8.7-9.5,13.5-13.7c3-2.7,6-5.3,8.8-8.1c21-20.7,42.8-40.5,64.7-60.2c2.1-1.9,4.3-3.7,6-6C148.2,308.8,149.1,307.5,151,308
		z"/>
	<path class="st3" d="M291.9,462c1.2,1.2,3.3,1.5,3.8,3.5c-10.4,9.5-20.8,19-31.2,28.5c-16.2,14.8-32.3,29.5-48.5,44.3
		c-6.2,5.7-12.7,11.2-18.5,17.3c-2.2,2.3-5.6,2.8-7.3,6c-1,1.8-2.5-0.5-3.4-1.5c-7.7-8.1-15.3-16.1-22.8-24.3
		c-7.8-8.4-15.4-16.9-23.2-25.3c-13.6-14.7-27.2-29.5-40.8-44.2c-1-3.2,1.3-3.2,3.3-3.3c4.5-0.2,8.9-0.7,13.4-0.3
		c3.5,0.3,6.9-0.1,10.2-1.3c2.5,0.1,3.7,2,5.2,3.5c17,16.4,33,33.8,48.6,51.5c2.9,3.2,6.1,6.1,9.1,9.3c1.9,2,3.4,1.9,5.5,0.2
		c12.3-10,23.9-20.6,35.9-31c12.2-10.6,23.7-21.8,35.3-33.1C274.9,460.2,283.4,460.1,291.9,462z"/>
	<path class="st1" d="M151,308c-10.7,11.2-22.9,21-34.1,31.7c-14.9,14.2-30.2,27.9-44.8,42.5c-5.5,5.5-12.3,9.5-17.1,15.8
		c-1.3,3-3.8,5-5.9,7.3c-1.2,1.4-2.6,2-4.3,0.8c-2.4-2.5-4.9-5-7.2-7.5c-4.9-5.2-4.9-5.2,0.3-9.7c24.7-21.6,49.4-43.2,74.1-64.8
		c8.4-7.4,16.9-14.6,25.1-22.1c3.5-3.2,6.1-3.4,8.9,0.6C147.4,304.5,149.3,306.2,151,308z"/>
	<path class="st21" d="M177,1065c-14.4,15.4-30.1,29.6-45.1,44.5c-4,4-8.1,7.8-12.2,11.7c-1.2,1.1-2,2.1-4.2,1.1
		c-3-1.4-6.7,0.8-9.7-1.1c-5.7-3.7-7.2-14.3-2.3-19.2c13.8-13.8,27.8-27.3,41.7-41c2.6-1.1,5.8-4.5,6.3,1.8c0.1,1.5,1.3,1,2.3,0.6
		c4.6-1.9,9.6-2,14.4-3.3c4.1-1.1,6.4,1.7,9.2,3.4C177.7,1063.9,177.4,1064.6,177,1065z"/>
	<path class="st22" d="M127,928.5c-0.9-3.8,2-6,4.3-8.3c9-8.9,18.2-17.6,27.1-26.5c2.6-2.6,5.8-5.2,9-3.9c4.7,2,9.9,4.2,11.4,10.2
		c1.3,5.4-1.7,10.9-6.4,14.4c-4.3,3.1-7.9,7.1-11.7,10.8c-5.1,4.8-10.4,9.4-15.1,14.6c-3.7,4.1-7.8,3.5-11.1,1.3
		C130.5,938.2,126.2,934.8,127,928.5z"/>
	<path class="st23" d="M278.1,930c11.9-12.4,24.2-24.3,36.7-36.1c2.1-0.7,4.2-1.1,6.2,0.2c0.7,0.4,1.8,0.9,2.4,0.4
		c3.5-3,7.7,0.7,11.3-1.1c0.9-0.4,2,0,2.6,1c1.1,2,2.6,1.3,4.3,1c3.1-0.5,6.4-0.8,7.5,3.4c-4.4,5.8-10.1,10.4-15.2,15.4
		c-6.5,6.3-13.1,12.5-19.7,18.7c-2.8-0.9-6.5,1.1-8.3-2.7c-0.1-0.2-0.6-0.3-0.9-0.1c-6,3.1-12.6,0.5-18.8,2.3
		C283,933.4,280.1,932.8,278.1,930z"/>
	<path class="st24" d="M209,998c11.6-11.4,23.2-22.7,34.8-34.1c2.6-0.2,5.3-0.1,7.7-1.3c1.2-0.6,3-0.8,3.7,0.4
		c2.6,4.4,5.7,2.3,8.9,1c4.3-1.8,11.8-0.3,14.9,2.8c-11.4,11.2-22.8,22.5-34.3,33.7c-1.4,1.4-3,2.6-4.5,3.9
		c-4.2-1.2-8.1-3.5-12.7-1.4c-1,0.4-2.3-0.1-3.3-0.8c-2.4-1.6-4.1-1-6,1.1c-3.3,3.6-4.8,3.2-6.9-1.5
		C210.7,1000.4,209.3,999.5,209,998z"/>
	<path class="st25" d="M111,966.2c0.5,4.2-1.3,7.7-4.7,10.9c-9.3,8.5-18.1,17.6-27.7,25.9c-4.5,3.9-10.7,4.9-16.2-1.9
		c-3.8-4.7-2.9-11.4,1.6-15.5c10-9.3,19.7-18.9,29.4-28.5c3-2.9,5.4-5,10.3-3.3c5.4,2,7.6,5.1,7.3,10.5
		C111,964.8,111,965.3,111,966.2z"/>
	<path class="st26" d="M278.9,966.7c-6.9-3.2-13.8-2.6-20.6,0.4c-1.9,0.9-3.1,0.4-3-1.5c0-3.7-1.9-2.8-3.8-1.9
		c-2.6,1.2-5.1,2.5-7.7,0.1c11.1-11.6,22.5-22.9,34.3-33.9c4.3,2.6,8.9,1.3,13.3,0.6c2.6-0.4,5.1-0.9,7.7-0.1c2,0.7,3.8,0.1,4.6-1.7
		c1.1-2.3,2.8-1.8,3.1-0.3c0.8,3.7,2.8,3.2,5.4,2.6c1.2-0.3,1.7,0.8,1.8,1.9C302.6,944.6,291,955.9,278.9,966.7z"/>
	<path class="st27" d="M77,932.1c-11.6,12.2-23.6,24-36.9,34.4c-2,1.6-3.7,3.5-5.5,5.4c-1.1,1.2-2.3,1.3-3.6,1
		c-5.8-1.5-10.2-8.5-12.3-14.5c-1.9-5.5,1.2-7.1,4-9.7c5.7-5.3,11.5-10.5,17.2-15.8c2.6-3.9,8.2-2.4,11-6c0.3-0.4,1.2-0.5,1.3-0.2
		c1.9,4.4,5.6,0.5,8.3,1.9c2.9,1.5,6.5-0.3,9.7,0C72.7,928.7,77,926.9,77,932.1z"/>
	<path class="st28" d="M77,932.1c-1.5-3.8-5.4-2.8-7.5-2.4c-3.9,0.8-7.4,1.2-11.1-0.4c-1.2-0.5-2.7-0.6-3.3,1.1
		c-0.3,0.8,0,2.2-1.6,1.7c-1.2-0.4-1.3-1.3-0.9-2.4c0.4-1,0.6-2.2-0.8-2.3c-1.2-0.1-1.2,1.2-1.4,2.2c-0.2,1.1-1.3,2.9-2,2.1
		c-3.6-3.8-5.7,1.3-8.5,1.2c12.9-12.7,26.2-25.1,39.7-37.1c3-2.1,6-3.3,9.4-0.6c1,0.8,2.3,0.1,3.2-0.6c4.3-3.5,8.9-3.7,13.9-1.5
		c1.7,0.7,3.5-0.7,5.3-0.8c2.4,0,4.2,0.5,2.6,3.4c-11.1,11-22.2,22-33.3,33.1C79.6,930,78.3,931,77,932.1z"/>
	<path class="st29" d="M349,898.8c-2.4-2.2-4.9-3.9-8.2-1.6c-0.4,0.3-1.2,0.5-1.3,0.4c-2.9-3.4-7.1-1.5-10.5-2.7
		c-0.6-0.2-1-0.8-1.5-1.1c-4.2,5.4-8.5-0.5-12.8,0.2c4.2-4.9,8.6-9.5,12.7-14.4c1.7-2,1.1-2.5-0.1-3.7c-2.8-2.6-5.7-5.2-8.5-7.8
		c1.6-5.9,4.5-7.6,10.2-5.2c4.3,1.8,8.8,0.1,13,1.9c1.3,0.6,2.3-0.9,3.3-1.9c1.7-1.7,3.5-3.8,5,0.2c0.5,1.2,1.3,0.4,2.1,0.3
		c3-0.3,5.9,0,8.6,1.5c7.1,10.2,6.7,11.4-0.7,21.5C357,891.1,353.5,895.4,349,898.8z"/>
	<path class="st30" d="M83,448.1c-6.8-7.3-13.5-14.6-20.3-21.9c0.6-1.6,2-2.3,3.5-2.3c5.6-0.1,11.2-1.4,16.7-0.8
		c4.4,0.4,8.5,0.3,12.6-1c2-0.1,3.4,1,4.6,2.5c3.4,4.1,7.3,7.6,11,11.4c3.8,3.8,4.4,3.8,8.5,0.2c3.5-3,7.2-5.8,10.3-9.2
		c1.2-1.3,2.6-2.6,4.6-2.6c4.4,3.9,9.5,1.4,14.3,1.7c3.4,0.2,7-2.7,10.2,0.4c-4.5,6.8-10.7,11.9-17.4,16.4
		c-4.7,3.5-10.4,3.3-15.8,3.6c-10.6,0.5-21.2,0.5-31.8,0C90.4,446.2,86.7,447.2,83,448.1z"/>
	<path class="st29" d="M114,895.7c0-1.7-0.3-2.7-2.5-2.5c-2.7,0.2-6,4.6-8.3-0.8c-0.6,0.2-1.2,0.4-1.7,0.7c-0.5,0.3-1,0.8-1.4,1.2
		c-2.9-4.5-5.4-0.2-6.7,1c-2.9,2.6-4.8,1.7-7-0.3c-2.5-2.3-4.4,1.8-6.7,0.7c14-13.2,28-26.5,42.1-39.7c2.5-2.3,5.4-4.1,9.4-2.7
		c5.1,1.8,8.2,5.2,8.8,10.4c0.5,3.9,0.1,7.5-3.6,10.6C128.5,881.2,122,889.2,114,895.7z"/>
	<path class="st31" d="M177,1065c-2.6-1.9-4.9-4.4-8.7-3.4c-4.9,1.2-10.2,0.8-14.7,4c-1.1,0.8-2.2,0.1-3.2-0.5
		c-2.8-1.6,1.2-3-0.1-4.7c-1.7-0.9-3.3,1-5.1,0.7c9.5-9.4,19.1-18.8,28.6-28.1c2.7-1.3,5.6-2.1,7.7-4.4c0.7-0.7,1.6-1.4,2.6-1.3
		c7.5,1,15.5-0.3,22.1,4.7c1.1,0.8,2.3,1.5,1.7,3.2C198.3,1045.6,188.1,1055.8,177,1065z"/>
	<path class="st32" d="M208,1035c-3.6-1.8-6.4-4.3-10.8-5.4c-3.8-0.9-7.9,2.3-11.2-1.4c-0.9-1-3-0.1-3.9,1.2c-2,3-5,3.6-8.3,3.4
		c11.7-11.6,23.4-23.3,35.2-34.9c1.9,1.1,4.6,1.5,3.7,4.9c-0.3,1.1,0.8,1.3,1.5,1.6c1.4,0.6,2.1-0.3,2.8-1.3c2-3.4,4.2-5.5,7.9-1.9
		c1,1,2.8,1.2,3.8,0.5c4.9-3.3,8.1,0,11.6,2.5c-10.5,8.2-18.2,19.2-28.3,27.7C210.6,1033.1,209.9,1034.8,208,1035z"/>
	<path class="st33" d="M361.1,865c-3.7,1.1-8.1-3.2-11.1,1.7c-1.9-1.6-0.2-3.4-0.6-4.6c-1-0.7-1.6-0.5-1.9,0.2
		c-2.1,4.4-5.4,3.1-9.4,3.2c-4.8,0.1-8.8-1.9-13.2-2.5c-4-0.5-3.8,3.6-6,5.1c-4.6-4.4-7.7-9.6-7.9-16c-0.5-14.7,9.8-17.7,19.8-14.2
		c11.2,4,21,11,26.8,22.3C358.5,861.9,360.7,862.8,361.1,865z"/>
	<path class="st34" d="M247,809.1c-5.8-4.7-9.1-10.5-8-18.3c0.4-2.7,2.4-4.2,4.2-5.2c7.9-4.9,21.5-2.7,28.7,3.6
		c4.8,4.2,9.9,7.8,13.3,13.4c1,1.7,2,3.3,2,5.4c-2.2,2.5-4.5,3.4-7,0.4c-0.5-0.6-1.2-1.5-2-1.4c-6.1,1-12.6-0.9-18.4,1.6
		c-3.5,1.5-6.4,2.4-9.7,0.3C249,808.2,248,808.3,247,809.1z"/>
	<path class="st35" d="M38,814c-6.4-7.3-12.8-14.6-19.1-21.9c5.4-0.9,10.9-0.6,16.4-0.5c7.6,0.1,15.2-0.3,22.9-0.6
		c6.4,6.3,12.6,12.7,17.9,19.9c-0.6,3.1-3.2,2.5-5.1,2.5c-6.7,0.2-13.3,0.3-20,0C46.6,813.3,42.3,813.3,38,814z"/>
	<path class="st7" d="M97,423c-9,3.6-18.4,0.5-27.6,1.9c-2.3,0.3-4.6-0.1-6.7,1.2c-5.9-6.7-12.9-12.5-17.9-20.1c3.4,0.4,4-3,6.1-4.5
		c1.5-1.1,2.8-2.4,4.1-3.6c-0.2,3.8,1.8,4.9,5.3,5.1c3.7,0.2,7.5-1.3,11.3,0.5c1.4,0.7,2.3-1,3.2-1.9c1.5-1.4,3.1-2.5,5.2-2.7
		c-0.6,3.9,1.3,6.5,4.1,9c3.7,3.3,7.1,6.9,10.5,10.5C95.8,419.7,97.6,420.8,97,423z"/>
	<path class="st36" d="M214,410c8.1,3.5,17,0.8,25.3,3c2.6,0.7,4.2-1.5,6.4-2c8.2,8.4,16.4,16.7,23.7,25.9
		c-3.3,3.3-7.5,2.8-11.6,2.6c-4.7-0.3-9.5-1.2-14.2,0.6c-4,0.6-5.9-2.8-8-5c-5.8-6.1-11.9-11.9-17.6-18.1
		C216.2,415,213.7,413.2,214,410z"/>
	<path class="st37" d="M83,448.1c0.1-1.1,0.6-1.9,1.8-2c6.8-1,13.5-2.6,20.3-0.5c3.6,1.1,6.8-0.5,10.2-0.6
		c6.4-0.2,12.8,0.3,19.2-0.8c3-0.5,5.2-1.5,7.4-3.2c1.5,3-1.1,4.2-2.7,5.6c-2.9,2.4-5.5,5.2-8.5,7.6c-2.7,2.2-4,4.5-2.9,7.9
		c-4.3,3.3-9.4,2.2-14.2,1.9c-4-0.2-7.8,1.1-11.8,0.2c-1.4-0.3-2,0.9-2.1,2.2C93.8,460.7,88.3,454.5,83,448.1z"/>
	<path class="st38" d="M243,440c0.1-1.5,0.8-3.1,2.2-2.7c3.6,1,7.4-0.3,10.7,0.5c4.8,1.1,9.1,0.1,13.5-0.9
		c7.3,7.8,14.7,15.5,22,23.3c0.4,0.4,0.4,1.2,0.5,1.8c-6.5,0-13.1,0-19.6,0c-2.2,0-4.3-0.2-6.3,1c-2.3,0.5-3.8-1-5.2-2.3
		c-6.3-5.4-11.1-12.3-17-18C243,442,242.5,441.1,243,440z"/>
	<path class="st39" d="M38,814c2.2-3.3,5.6-2.2,8.6-2.2c9.3,0.1,18.5,0.1,27.8,0.1c0.5,0,1.1-0.6,1.6-1c4.1,1.1,5,5.5,7.9,7.8
		c0.6,0.5,0.7,1.6,1.3,1.9c4.3,2.1,2.8,4.7,0.8,7.4c-1.3,0.7-2.7,1.4-4.2,1.3c-14.5-0.4-29.1,0.6-43.6-0.5c-0.8-0.1-1.6-0.3-2.3-0.9
		c0-0.3,0-0.7,0-1c1-0.8,2-1.7,3-2.5c2.9-2.4,4.1-4.8,0.4-7.5C38.6,816.3,38,815.2,38,814z"/>
	<path class="st18" d="M36,828c5.8-1.4,11.8-0.5,17.5-0.4c10.8,0.2,21.7-0.3,32.5,0.5c-4.4,5.8-10.8,9.1-16,14
		c-10.1,0.4-20.2,1.1-30.3,0.8c-4.3-0.1-8.6-0.6-12.9-0.2c-1.9,0.2-3.7,0.2-4.9-1.6c0,0,0-0.1,0-0.1C25.7,835.6,31.5,832.4,36,828z"
		/>
	<path class="st40" d="M22,841c7.7,0.1,15.4,0.2,23.1,0.5c8.3,0.3,16.7-2.1,25,0.6c-4.1,4.6-8.4,8.9-13,13
		c-9.7-0.3-19.4-1.3-29.1-0.8c-6.5,0.3-12.8,1.5-19-1.2C13.2,848.8,18.4,845.8,22,841z"/>
	<path class="st41" d="M247,809.1c-0.2-2.4,0.7-3,2.8-1.7c3.5,2.2,6.5,2.8,10-0.8c2.4-2.4,6.2,0.6,9.5-0.4c2.2-0.7,4.7,0.4,7.1-1
		c1.3-0.8,3.4,0.1,3.9,1.3c1.7,4.1,4.3,2.1,6.8,1.5c3.5,8.1-1,14.6-9.7,15.1c-10.9,0.7-19.2-3.9-26.7-10.9
		C249.5,811.1,248.2,810.1,247,809.1z"/>
	<path class="st37" d="M104.1,1379c-7.3-4.7-15.1-2.4-22.7-1.2c-1.3,0.2-2.7,1.8-3.6-0.7c-0.1-0.4-0.9-1-1-0.9
		c-4.4,3.1-10.9-1.5-14.8,4.1c-1.1,1.7-2.6,3.6-5.1,3.7c2.5-2.7,4.8-5.5,7.5-7.9c2.8-2.5,2.5-4.3-0.3-6.3
		c-9.1-6.6-15.6-15.8-23.2-23.8c-0.3-2.5,1.5-2.7,3.1-2.8c6.7-0.4,13.4-1.8,20.2-1.6c4.3,0.1,8.6-2.1,12.8,0.4
		c4.4,4.3,9.3,8.1,13,12.9c4.6,6,10.6,10.7,15.2,16.7C109,1376.4,109.4,1376,104.1,1379z"/>
	<path class="st30" d="M77.1,1342c-1.4,0.6-2.7,1.6-4.2,0.4c-1.9-1.7-3.5-1.4-5.2,0.4c-0.7,0.7-1.6,1.5-2.6,1.1
		c-7.6-3-15,1.5-22.5,0.6c-0.5-0.1-1.1,1.1-1.7,1.6c-12.6-11.4-24.4-23.6-36-36c1.7,0,3.3-0.1,4.7,1.1c1.1,1,2.6,1.4,3.7,0.5
		c3.9-3.1,7.8-1.3,11.7-0.4c6.7,1.4,13.5,0.4,20.2,1.4c1.2,0.2,2.1-1.4,2.7-2.7c10.5,9.4,18.9,20.7,28.8,30.6
		C77.2,1340.8,77,1341.5,77.1,1342z"/>
	<path class="st8" d="M292.1,1349c-4,0.4-6.3-2.3-8.7-4.8c-0.1-0.1,0.6-1,0.7-1c3.4,0.7,6.6,1.9,8.9,4.8
		C292.7,1348.4,292.4,1348.7,292.1,1349z"/>
	<path class="st8" d="M314,1328.1c-0.9-1.8-1.9-3.8,0-5.4c2.1-1.8,3.6,0,5,1.3C317.7,1325.7,316.6,1327.9,314,1328.1z"/>
	<path class="st8" d="M391,1257.9c1.9-3.7,2.7-8.7,8.8-7.9C397.4,1253.2,394.5,1255.9,391,1257.9z"/>
	<path class="st8" d="M300,1342.7c-1.2-3.1,0.9-2.8,2.8-2.7C302.4,1341.4,301.3,1342.3,300,1342.7z"/>
	<path class="st8" d="M337,1307.1c0-2.3,1.2-2.1,2.6-1.2C339.3,1307.3,338,1306.8,337,1307.1z"/>
	<path class="st8" d="M323,1320.1c-1.2-2.5,0.7-2.1,2.1-2.1C325.2,1319.5,324.5,1320.2,323,1320.1z"/>
	<path class="st8" d="M355.5,1274.7c-1.8-3.1-4.7-5.6-3.3-8.5c0.9-1.8,5.5-0.9,6.2,0.1C361.2,1269.7,356.3,1271.2,355.5,1274.7z"/>
	<path class="st8" d="M362.7,1263c-1.9-3.2-4.8-5.5-3.2-8.3c0.9-1.6,5.1-1.4,5.9-0.4C368.5,1258,362.9,1259.2,362.7,1263z"/>
	<path class="st8" d="M352.2,1278c0,4.5-2.6,3.7-5.1,3c-1.5-0.4-4.1,2.4-4.4-0.4c-0.3-2.4,2.7-2.8,5-2.7
		C349.2,1278,350.6,1278,352.2,1278z"/>
	<path class="st8" d="M323.2,1315c-1.6,0-3-0.6-3-2.5c0-1.8,1.3-2.5,3-2.4c1.8,0.1,2.7,1.1,2.7,2.9
		C325.9,1314.8,324.7,1315,323.2,1315z"/>
	<path class="st8" d="M339.9,1288.2c-0.1,1.8-1,2.6-2.5,2.7c-1.7,0.1-3-0.5-3.2-2.3c-0.1-1.6,1-2.4,2.5-2.5
		C338.4,1285.9,339.5,1286.7,339.9,1288.2z"/>
	<path class="st8" d="M332.9,1300.6c-0.3,1.8-1.5,2.5-3.2,2.4c-1.5-0.1-2.6-0.9-2.5-2.5c0.1-1.8,1.4-2.5,3.1-2.4
		C331.8,1298.2,332.7,1299,332.9,1300.6z"/>
	<path class="st8" d="M384.8,1257.4c-1.6-0.1-1.7-1.3-1.8-2.4c-0.1-1.3,0-2.7,1.8-2.8c1.7-0.1,3,0.6,2.9,2.4
		C387.7,1256.2,385.9,1256.5,384.8,1257.4z"/>
	<path class="st8" d="M295.9,1342.5c-2.5-0.5-4.2-1.3-4.6-3.8c0-0.3,0.7-1,0.9-1C294.4,1338.3,295.7,1339.7,295.9,1342.5z"/>
	<path class="st8" d="M301.6,1330.2c-0.9-0.4-2-0.6-2-1.9c0-0.7,0.7-1.1,1.4-1c1.1,0.1,1.7,1,1.8,2
		C303,1330.3,302.4,1330.4,301.6,1330.2z"/>
	<path class="st8" d="M349.5,1271.5c-0.4,0.2-0.9,0.6-1.4,0.8c-0.6,0.2-1-0.3-0.7-0.8c0.3-0.5,0.9-0.9,1.4-1.1
		C349.3,1270.2,349.7,1270.6,349.5,1271.5z"/>
	<path class="st8" d="M340.6,1298.4c0.4,0.5,0.9,0.8,0.9,1.2c0,0.3-0.4,0.6-0.6,1c-0.3-0.3-0.7-0.5-0.8-0.9
		C340.1,1299.4,340.4,1299,340.6,1298.4z"/>
	<path class="st8" d="M309.3,1316.4c0.2,0.3,0.5,0.7,0.6,1.1c0,0.5-0.3,1-0.9,0.7c-0.3-0.1-0.5-0.5-0.6-0.8
		C308.3,1316.9,308.5,1316.5,309.3,1316.4z"/>
	<path class="st6" d="M58.9,301.9c6.7-7.1,14.1-13.5,21.5-19.9c0.4-0.3,0.8-1,1.1-1c4.5,0.4,6,4.5,8.7,7.1c1.2,1.2,3.5,2.9,0.9,5.4
		c-10.3,9.7-20.2,19.8-30.8,29.1c-7,6.2-12.9,13.4-20.3,19.1c-2.2,1.8-3.4,1.7-5.2-0.3c-2.5-2.7-5-5.3-7.8-7.7
		c-2.9-2.4-1.9-3.7,0.9-4.8c5.7-1.7,8.6-7.1,13-10.4c4.1-3,7.5-6.9,10.9-10.7c0.7-1.3,1.7-2.3,3-2.9C56.4,304.1,57.7,303,58.9,301.9
		z"/>
	<path class="st42" d="M52,307.9c-1.3,4.6-5.5,6.8-8.5,10c-3.5,3.7-7.5,6.9-11.2,10.4c-1.4,1.3-2.6,1.9-4.3,0.7
		C35.8,321.8,43.4,314.2,52,307.9z"/>
	<path class="st42" d="M58.9,301.9c-0.8,1.8-1.9,3-4,3.1C55.9,303.4,57,302.2,58.9,301.9z"/>
	<path class="st1" d="M243,440c7.7,7.6,13.6,17,23,23c-9,10.5-19.4,19.5-29.6,28.8c-6.7,6.1-13.7,12-20.6,18
		c-7.3,6.3-14.6,12.5-21.8,18.8c-2.2,1.9-2.9-0.2-4-1.2c-8.7-8.5-16.6-17.7-24.8-26.6c-10.5-11.4-21.4-22.3-32.2-33.4
		c-1.7-1.8-3.4-3.7-5-5.5c-2.8-2.8-2.7-4.4,0.6-7.5c4.6-4.3,10.8-7.2,13.4-13.4c5.1-2.7,9-6.8,12.9-10.9c1.2-1.3,2-3,4.1-3.1
		c0.2-0.4,0.3-1,0.6-1.3c7.8-6.9,14.3-15.3,23.4-20.6c3.4-2.9,7-5.6,10.1-8.8c2.7-2.8,4.5-2.3,7,0.2c4.5,4.7,9.3,9,13.9,13.5
		C222.6,421,232.7,430.6,243,440z"/>
	<path class="st1" d="M97,423c-5.3-5.5-10.5-11.1-16-16.3c-2.7-2.6-4-4.7-1-7.7c12-9.9,23.5-20.4,35.3-30.5
		c10-8.6,19.9-17.5,29.9-26.1c2.7-2.3,4.7-2.3,7.4,0.5c9.5,10.1,18,21.1,28.5,30.3c1.5,1.3,2.1,3.6,3.7,5.2c1.8,1.7-0.3,2.7-1.3,3.5
		c-7.1,6.4-14.3,12.7-21.5,19.1c-0.2,1.1-0.9,1.8-2,2c-0.7,0.7-1.3,1.3-2,2c-6.5,6.6-13.5,12.5-20.4,18.5c-1.1,0.9-2.5,0.7-3.6,1.5
		c-4.7,4.2-9.4,8.3-14.1,12.6c-3.2,2.9-5.8,4-9.3-0.2C106.5,432.2,101.6,427.8,97,423z"/>
	<path class="st36" d="M134,425c6.8-5.9,13.5-11.9,20.3-17.8c1.1-1,2-2.2,3.7-2.2c7.8,2.5,15.6,2.9,23.3-0.6c0.7-0.3,1.3,0,1.7,0.6
		c-8,7.4-15.5,15.2-24,22c-1.8-2-3.7-0.4-5.5,0c-5.1,1.1-10.3-0.3-15.4,1.7C135.2,429.9,136.9,424.6,134,425z"/>
	<path class="st36" d="M160,403c0.7-0.7,1.3-1.3,2-2c1.2,1,1.5,2.4,0.5,3.3C161.2,405.4,160.6,403.9,160,403z"/>
</g>
</svg>
