<?xml version="1.0" encoding="utf-8"?>
<!-- Generator: Adobe Illustrator 21.0.0, SVG Export Plug-In . SVG Version: 6.00 Build 0)  -->
<svg version="1.1" id="Layer_1" xmlns="http://www.w3.org/2000/svg" xmlns:xlink="http://www.w3.org/1999/xlink" x="0px" y="0px"
	 viewBox="0 0 410 1536" style="enable-background:new 0 0 410 1536;" xml:space="preserve">
<style type="text/css">
	.st0{fill:#388258;}
	.st1{fill:#4BBD7D;}
	.st2{fill:#252525;}
	.st3{fill:#388257;}
	.st4{fill:#333333;}
	.st5{fill:#1F1F1F;}
	.st6{fill:#39855B;}
	.st7{fill:#232323;}
	.st8{fill:#8E8E8E;}
	.st9{fill:#388358;}
	.st10{fill:#A0A0A0;}
	.st11{fill:#3A885C;}
	.st12{fill:#A2A2A2;}
	.st13{fill:#969696;}
	.st14{fill:#949393;}
	.st15{fill:#919191;}
	.st16{fill:#CDCDCD;}
	.st17{fill:#CBCBCB;}
	.st18{fill:#C9C9C9;}
	.st19{fill:#BEBEBE;}
	.st20{fill:#3B8B5E;}
	.st21{fill:#3F9967;}
	.st22{fill:#3D9363;}
	.st23{fill:#3F9966;}
	.st24{fill:#3E9665;}
	.st25{fill:#3D9364;}
	.st26{fill:#3F9765;}
	.st27{fill:#3F9A67;}
	.st28{fill:#419C69;}
	.st29{fill:#3B8E60;}
	.st30{fill:#419F6B;}
	.st31{fill:#3C9162;}
	.st32{fill:#42A46D;}
	.st33{fill:#9C9D9D;}
	.st34{fill:#9A9A9A;}
	.st35{fill:#989898;}
	.st36{fill:#42A26C;}
	.st37{fill:#D8EAE0;}
	.st38{fill:#202020;}
</style>
<g>
	<path class="st0" d="M311.9,1530c-6.6-6.1-13.1-12.2-19.7-18.4c-1-1-2.5-1.8-2.3-3.6c-1-1.7-2.4-3.1-4.1-4.1
		c-7.8-3.8-12.9-10.8-19.3-16.3c-8.9-7.6-17.2-15.8-25.8-23.7c1.7-3.1-1.6-1-2-2c-5.6-2.9-8.9-8.5-13.9-12.2c-1.7-3-4.1-5.2-7.1-6.8
		c-7.8-5.8-15.5-11.7-22-19c0.4-3.6-4.3-5.6-2.2-9.5c-2.8-0.2-2.9,2.4-4.7,2.5c-1.3-1.1-2.7-2.3-4-3.3c-2-1.6-4.1-2.9-6.5-0.7
		c-1.4,1.3-1.5,0.1-1.7-0.9c-0.2-1.1,0.8-2.2-0.1-3.4c-0.4,1.3-0.9,2.8-2.2,2.7c-5.6-0.4-4.5,2.9-3.5,6.1
		c-38.3,39.8-76.6,79.6-114.9,119.3c-15,0-30,0-45,0c12.9-13.7,25.7-27.4,38.6-41c23.3-24.5,46.6-48.9,69.9-73.3
		c11.1-11.6,22.3-23.1,33.4-34.7c2.7,2.7,6.6,3.1,9.9,4.7c-2.3-2.7-5.8-3.9-8-6.7c-1.6-1.3-3.3-2.6-4.9-3.9c1.6-3.5,1.7-3.5,6.4-1
		c-3.4-3-5.9-6.5-10.3-3c-3-2.8-6-5.5-9-8.3c-0.8-1.2-1.8-2.2-3.1-2.8c-3.6-3.4-8.1-5.8-11-10c1.6-1.7,4.3-1.7,6.1-3.8
		c-2.8,0.5-4.6,2.5-7.1,2.9c-2.2-1.8-4.2-4-7-5.1c0.8-2.8-2-2-3.1-3c-2.9-4.6-8.2-7.1-11-11.9c-0.3-3-0.9-5.7-5-4
		c-1.2-1.5-3.8-1.5-4-4c0.8-2.2-1.5-1.2-2.1-2.1c-4.3-3.2-8.5-6.7-11.9-10.9c-0.6-1.3-2-0.7-2.9-1.1c-10.8-10.3-21.7-20.5-32.2-31.1
		c-6-6-13.6-9.9-18.9-16.6c-1.8-4-4.7-6.9-9-8.2c-1-0.3-1.6-1-2-1.9c-1.3-2.5-0.3-4.4,2.3-3.9c3.7,0.7,7.6-0.7,11.2,1.1
		c0.6,0.3,1.3,0.6,1.9,0.4c6.1-1.8,11.3,1.5,16.9,2.6c2.7,0.5,5.3-0.9,7.6-2.6c4.5,1.4,5.8,6,8.6,9c6,6.4,11.2,13.6,16.6,20.4
		c7.9,10,16.1,19.8,23.9,29.9c11.7,14.9,23,30,38.7,41.3c9.9,7.1,18.7,15.9,28.4,23.5c8.9,6.9,17.3,14.6,25.9,21.8
		c15.3,12.8,31.1,25,46.3,38c14.9,12.7,30.1,25.1,45.2,37.6c8.4,7,16.9,13.9,25.1,21.3c5,4.5,10.4,8.7,15.7,12.8
		c9.7,7.5,19.1,15.5,28.4,23.4c1.2,1,2.7,2.1,2.1,4.1c-6.3,0-12.7,0-19,0c-1-1.1-2-1.1-3,0c-3.7,0-7.3,0-11,0
		c-2.2-5.2,2.7-7.5,4.7-11.8c-2.3,1.5-4.4,1.1-6.6,1c0.4,3.9,0.9,7.5-1.2,10.8c-1.3,0-2.7,0-4,0c-0.7-1-1.4-1.9-2-2.9
		C316.1,1531.2,313.7,1531,311.9,1530z"/>
	<path class="st1" d="M76,1c3.4,1.3,5.5,4.3,8,6.6c6.1,5.6,11.9,11.6,18.1,17c16.5,14.1,31.6,29.7,48.6,43.3
		c10.8,8.7,21,18.2,31.8,27c15.5,12.6,29.4,27,44.8,39.7c5.7,4.7,11.6,9.3,17.3,14.2c3.5,3.1,5.6,7.4,10.1,9.6c3.3,1.6,0.5,5,1,7.6
		c2.5,12.3-4.6,22-17,22.7c-6,0.3-10.9-4.1-14.9-8.5c-1.8-2-3.8-3.8-5.7-5.8c-8.8-9-19.5-16-27.9-25.5c-6.4-7.2-14.7-12.7-21.8-19.3
		c-7.5-7-15.8-13-22.9-20.5c-7-7.4-16.1-12.4-23.5-19.2c-6.6-6.1-14-11.5-19.7-18.7c-3.5-4.5-7.9-8.7-12.8-11.6
		c-6.4-3.8-10.8-9.6-16.5-14.1C66.7,40.3,61.4,33.9,55,28.7C44.1,19.9,44.7,8.1,53,1C60.7,1,68.3,1,76,1z"/>
	<path class="st1" d="M411,215c-5.1,5.6-10.5,10.9-15.1,16.8c-4,5.3-9,9.6-13.2,14.7c-9.2,11.2-19.1,21.8-28.5,32.8
		c-9.2,10.8-18.6,21.3-27.9,32c-4.1,4.7-8.4,9.1-12.1,14.3c-3.4,4.8-8.1,8.8-12,13.5c-2.3,2.8-5.1,5.3-7,8.3
		c-4.4,7.2-11.6,6.1-17.8,5.1c-5.4-0.9-8.8-5.8-10.4-11.2c-1.4-4.6-1.1-9.4,0-14.1c0.9-4,3.6-6.7,7-8.3c6.9-3.3,10.4-9.5,14.2-15.5
		c1.9-3,4.4-5.6,6.9-8.2c6-6.4,11.9-12.9,18.1-19.1c7.7-7.6,13.3-17,20.6-25.1c10-11.2,19.2-23.1,29-34.5
		c10.4-12.1,21-24.1,31.9-35.9c5.5-6,10-12.7,16.3-17.9C411,180.3,411,197.7,411,215z"/>
	<path class="st2" d="M411,503c-6.3-5.8-12.3-12-19-17.3c-9.8-7.8-17.8-17.2-27-25.6c-11.1-10.2-22.6-20.1-33-31.2
		c-2.8-3-5.7-5.7-3.6-9.3c2.1-3.6,4.4-7.3,7.6-10.2c6.8-6.2,12.8-13.3,18.8-20.2c12.6-14.6,25-29.5,38.1-43.7
		c6-6.5,11.1-13.8,18.1-19.4c0,4,0,8,0,12c-4.2,7.5-10.7,13.2-16.4,19.3c-15.6,16.7-29.6,34.6-45,51.5c-3.5,3.9-6.7,8.1-9.4,12.7
		c3.6-1.7,5.4-5.1,7.9-7.8c19.4-21.5,37.9-43.8,57.3-65.2c1.5-1.6,2.6-4,5.5-3.5c0,21.7,0,43.3,0,65c-3.1,0.4-4.5-2.4-6.6-3.8
		c-4.7-3.1-10.9-2.3-15.4,2.2c-4.1,4-4.6,8.8-1.5,13.5c3.4,5.1,13.7,6.3,18.9,2.3c1.5-1.1,2.2-3.5,4.7-3.2
		C411,448.3,411,475.7,411,503z"/>
	<path class="st1" d="M257,1c1.1,2.6,3.7,3.7,5.8,5.2c11.3,8.4,21.2,18.5,31.8,27.7c9.3,8,19.2,15.3,28.6,23.2
		c5.8,5,11.7,9.9,17.2,15.4c5,5,11.2,9,17,13.1c7.1,5.1,13.7,11,21.2,15.6c2.7,1.7,5.4,3.6,4.6,7.8c-0.3,1.3,0.7,2.8,0.9,4.3
		c1.7,11.2-4,17.4-15.5,17.8c-6,0.2-10.2-1.1-13.7-6.5c-2.3-3.6-6.3-6.2-9.8-9c-10.3-8.4-20.7-16.8-31.1-25.2
		c-17.4-14.1-33.7-29.4-51.2-43.4c-12.5-10-24.2-21-36.6-31.3c-6-5-11.4-10.8-18.1-14.8C224.3,1,240.7,1,257,1z"/>
	<path class="st3" d="M358,1537c-7.6-7.3-15.5-14.2-24.1-20.4c-4.9-3.6-9.7-7.8-14.3-11.9c-5.5-4.8-10.8-9.8-16.5-14.3
		c-8.1-6.5-15.8-13.6-24.1-19.9c-7.4-5.6-15.1-11-21.9-17.3c-6.3-5.9-12.7-11.6-19.4-16.9c-12.6-10.1-24.9-20.7-37.8-30.5
		c-7.2-5.4-13.5-11.9-20.4-17.7c-6.9-5.8-14.2-11.2-21.2-17c-3-2.5-6.5-4.7-9.1-7.5c-8-8.6-18.5-14.4-26.5-23
		c-6.2-6.7-11.5-14.1-17.4-21c-7.1-8.2-13.3-17.2-20.2-25.6c-9.6-11.8-19.3-23.5-29-35.1c-1.3-1.5-0.9-4.1-3.2-4.8
		c-3.6-2.3-5.7-5.9-8.1-9.3c-0.7-1-0.9-2.2,0.2-3.1c18,16.9,36.1,33.9,54.1,50.8c24.1,22.7,48.2,45.4,72.2,68.3
		c2.8,2.7,4.8,3.7,7.5,0.3c2.1-1.3,3.4,0.3,4.8,1.5c3.3,2.8,6.7,5.5,9.7,8.5c3.7,3.6,7.3,7.2,11.4,10.3c0.9,0.7,1.8,1.5,1.2,2.9
		c-1.8,2.4,0.7,3.2,1.8,4.2c15,13.9,30.1,27.8,45.1,41.7c38.1,35.3,76.1,70.6,114.2,105.9c0.4,0.3,0.6,0.8,0.9,1.1
		C364.7,1537,361.3,1537,358,1537z"/>
	<path class="st4" d="M411,1318c0,40.3,0,80.7,0,121c-1.7,1.3-2.9,0.1-3.9-0.9c-8.4-7.6-17.3-14.6-25.5-22.4
		c-8.1-7.6-16.5-15-24.2-23.1c-2.6-2.8-5.4-5.5-8.1-8.2c-2.3-2.3-2.6-4.7,0.1-6.8c11.9-9.5,20.7-22.1,32-32.2
		c8.5-7.7,16-16.4,24.4-24.3C407.2,1319.7,408.3,1317.5,411,1318z"/>
	<path class="st5" d="M358,1392c7.7,7.3,15.4,14.6,23.3,21.7c9.1,8.2,18.3,16.3,27.5,24.4c0.6,0.5,1.5,0.6,2.3,0.9
		c0,13.3,0,26.7,0,40c-7.7-6.9-15.5-13.7-23.2-20.7c-14.1-13-28-26.2-42.2-39c-11.7-10.6-23.8-20.8-34.8-32.2
		c1.1-3.2,3.8-3.9,6.7-4.2c3.2-0.3,6.3,0.2,9.4,0.4c3.6,0.3,6.9,1.3,11-0.1c3.6-1.2,9.7-0.4,13.7,3.2
		C353.9,1388.2,355.6,1390.5,358,1392z"/>
	<path class="st6" d="M411,1172c-9.6,9.9-19.1,19.9-28.7,29.7c-5.6,5.6-11.4,10.9-17.1,16.4c-0.8,0.5-1.9,0.7-2.7,1.3
		c-3.5,2.7-7,2-10.6-0.8c-0.8,2.8,2.9,5.7-1,7.3c-2.8,1.2-2.4-2.1-3.8-2.8c-5,3.1-12.5,1.3-15.8-3.8c-0.9,0.2-1.3,1-1.6,1.7
		c-0.6,1.4-1.4,2.8-3.3,2.4c-1.8-0.4-2.9-1.7-3.1-3.5c-0.2-1.8-1.1-3.5-0.6-5.4c15.9-16.9,32.3-33.4,48.9-49.6
		c3.2-0.9,6.5-5.5,9.5,0.5c0.3,0.6,1.8-0.7,2.4-1.4c1.8-2.4,4.2-3.2,7.1-3.9c3.2-0.8,5.4-0.4,7.5,1.9c1.1,1.2,2.3,2.3,4.3,1.3
		c5.7-2.7,5.7-2.6,8.4,2.6C411,1168,411,1170,411,1172z"/>
	<path class="st7" d="M411,1318c-7.2,6.2-13.7,13.1-20.2,20c-2.8,2.9-5.7,5.5-8.8,8c-3.3,1.1-6.6-0.2-9.8-0.3
		c-8.2-0.2-16.5,1.3-24.7-0.3c-1.6-0.3-3.4-0.1-4.6-1.5c7.8-9.6,16.5-18.4,24.9-27.4c13.5-14.4,26.6-29.2,39.9-43.7
		c1-1.1,2.2-1.9,3.3-2.9C411,1286,411,1302,411,1318z"/>
	<path class="st8" d="M411,60c-11.3-8.6-21.5-18.6-31.9-28.2C367.4,21.1,355.1,11.2,343,1c18.7,0,37.3,0,56,0c4.4,3.2,9.2,6,12,11
		C411,28,411,44,411,60z"/>
	<path class="st9" d="M45.1,1241.6c0.1,3.4,2.9,5.3,4.7,7.6c1.2,1.6,2.4,3,3.2,4.8c-0.1,1.3,0.2,3.1-1.8,2.8c-2-0.3-3.6,0-4.8,1.6
		c-0.8,1.1-1.1,0.7-1.5-0.3c-0.8-2.2-3.2-1.2-4.4-1.9c-5.2-2.8-10.8,0.1-16-2.1c-3-1.3-6.5,0.5-9.8-0.9c-1.5-0.6-1.6,1.6-1.7,2.9
		c-3.5-3.1-7-6.1-10-9.9c-0.8-1.1,1.3-4.1-2-3.3c0-3,0-6,0-9c1.3-2.6,2.8-5.2,4-8c3.2-7.4,13.1-9.9,19.2-4.5
		C31.4,1228,38.2,1234.9,45.1,1241.6z"/>
	<path class="st10" d="M353.9,801.9c3.5-4.6,8.7-7.4,12.2-11.8c2.8-3.6,5.9-6.7,8.8-10.1c10.5-0.6,21-3,31.5-0.7
		c1.6,0.4,3.3,0.5,4.6,1.7c0,1.3,0,2.7,0,4c-4.3,6.4-9.5,11.9-15.1,17.2c-1.2,1.2-2.7,1.9-4.4,2.1c-10.8,0.1-21.6,0.3-32.4,0.1
		C357.1,804.4,354.5,805,353.9,801.9z"/>
	<path class="st11" d="M411,1166c-0.7-0.5-1.6-0.9-1.9-1.5c-1.4-3.4-2.6-3.9-5-0.5c-1.6,2.2-4.1,1.7-6.3-0.6
		c-3.2-3.5-8.8-2.7-12.2,0.7c-1.3,1.3-3.4,4.7-5.8,0.5c-0.6-1-2.4-2.1-3.8-0.6c-1.2,1.3-2.7,0.9-4.2,0.9
		c12.8-13.6,25.8-27,39.2-39.9C411,1138.7,411,1152.3,411,1166z"/>
	<path class="st12" d="M411,781c-7.6-1.3-15.3-1.4-23-0.9c-4.4,0.3-8.7,2.1-13.1-0.1c4.6-6.3,10-11.8,15.4-17.4
		c7.1-7.3,14-14.9,20.7-22.6C411,753.7,411,767.3,411,781z"/>
	<path class="st13" d="M357.9,863.1c-5-4.4-9.6-9.1-14-14c0.8-4,4-3.3,6.7-3.1c13,1,26,0.4,38.9,0c0.5,0,1.1-0.1,1.5,0.2
		c7.4,4.7,14.3,10,20,16.8c0,0.7,0,1.3,0,2c-11-3.8-22.4-1.2-33.6-1.7C370.9,863,364.4,863.6,357.9,863.1z"/>
	<path class="st14" d="M357.9,863.1c1.4-1.7,3.4-1.1,5.1-1.1c11,0,22-0.7,33.1-0.1c2.5,0.2,4.9,0,7.3-1.1c4.1-1.9,4.7,3.4,7.6,4.1
		c0,4,0,8,0,12c-0.7,0.5-1.3,1.1-2.2,1.1c-11.9,0.3-23.8,1.5-35.7-1.1C367.8,872.7,362.4,868.4,357.9,863.1z"/>
	<path class="st15" d="M373.2,877c3.4-1.9,6.7,0.1,10.1,0c9.2-0.1,18.5,0,27.7,0c0,11.7,0,23.3,0,35c-9.7-8.9-20.1-17-29-26.6
		C379.2,882.4,374.9,881,373.2,877z"/>
	<path class="st16" d="M411,787c0,11.7,0,23.3,0,35c-4.2,2.5-8.7-0.1-13.1,0.5c-3.5,0.5-7.2,0-10.8,0.5c-2.3,0.4-4.9,0.1-6.2-2.2
		c-1.3-2.2,0.8-3.7,1.9-5.2c3-4.4,7.2-7.8,10.8-11.7c4.1-4.5,8.9-8.4,12.5-13.4C407.2,789,408.4,786.9,411,787z"/>
	<path class="st17" d="M411,787c-5.6,5.8-11.5,11.4-16.6,17.6c-3.6,4.4-8.4,7.6-11.2,12.6c-0.6,1.1-2.5,1.8-1.6,3.2
		c0.9,1.4,2.8,1.8,4.5,1.6c3.7-0.4,7.5-0.6,11.2-0.7c4.7-0.2,9.1,0.8,13.7,0.7c0,4.3,0,8.7,0,13c-1.1,0.9-2.4,1.1-3.7,1
		c-9.2-0.5-18.3,0.9-27.5,0.1c-7.1-3.1-8.7-6.3-5.8-11.4c5.7-7.9,11.7-15.5,19.2-21.8c7-5,11.1-12.8,17.9-18.1
		C411,785.7,411,786.3,411,787z"/>
	<path class="st4" d="M411,345c-8.6,7.8-15.7,17-23.6,25.5c-6.7,7.3-12.7,15.3-19.2,22.7c-8.3,9.5-16.7,18.8-25.2,28.1
		c-1,1.1-2,3.9-4,2.3c-2.2-1.8,0.2-3.7,1.3-5.1c8-10.3,16.8-20,25.3-29.9c10.2-12,20.5-23.8,31-35.6c4.6-5.2,9.6-10.1,14.4-15.1
		C411,340.3,411,342.7,411,345z"/>
	<path class="st18" d="M378.9,835c10.7,0,21.4-0.9,32.1,0c0,9.3,0,18.7,0,28c-6.7-5.3-13.3-10.7-20-16c-4.1-3.6-9.2-6-12.5-10.7
		C378.5,835.8,378.6,835.4,378.9,835z"/>
	<path class="st4" d="M411,421c-7.1,9.5-12.9,8.2-22.1,4.2c-3.4-1.5-4.7-5.5-4.8-9.2c-0.1-5.2,3-8.6,7.2-11
		c5.6-3.2,10.6-2.6,15.5,1.6c1.4,1.2,2.8,2.3,4.2,3.5C411,413.7,411,417.3,411,421z"/>
	<path class="st9" d="M322,1537c-1.1-3.4,2.3-7.2-1.2-10.7c-1-0.9,1.2-2,2.5-1.6c2.3,0.6,4.5,1.2,6.3-1.1c0.6-0.7,1.6-0.6,2.1,0.2
		c0.7,1.2-0.2,2.2-1,3c-2.9,2.8-5.5,5.8-5.6,10.2C324,1537,323,1537,322,1537z"/>
	<path class="st19" d="M411,12c-4-3.7-8.9-6.4-12-11c0.3,0,0.7,0,1,0c3.7,0,8.8-1.4,10.6,0.4C412.4,3.2,411,8.3,411,12z"/>
	<path class="st9" d="M336,1537c0.1-1,0.4-2,1.7-1.8c1,0.1,1.1,1,1.3,1.8C338,1537,337,1537,336,1537z"/>
	<path class="st0" d="M322.8,1214.5c0.7,1.7,2.5,3,1.6,5.4c-0.5,1.2,1,2.5,2.4,2.7c1.7,0.2,1.2-1.3,1.6-2.3c0.6-1.4,1.9-3.3,3.1-3.5
		c1.6-0.2,1.9,1.8,1.9,3.4c0,0.4,0.2,0.9,0.4,1.3c3.8-2.1,5.4,2,8.1,3c1.4,0.5,2.8-0.9,3.3-1.8c2.1-3.7,3-1,4.3,0.5
		c0.5,0.6-1.4,3,1.4,1.8c1.4-0.6,1.4-1.7,0.6-2.9c-0.8-1.3-4.1-1.9-1.2-4c1.6-1.2,3.6-1.2,5.1,1c1.1,1.8,2.6,1.4,4.2,0.2
		c1.6-1.3,3.6-1.5,5.7-1.3c-7.6,8.5-14.7,17.5-23,25.4c-2.3,2.1-4.8,4-7.1,6.1c-11.8,10.5-20.5,24-32.4,34.3
		c-15.4,13.4-27.9,29.5-42.6,43.6c-9.9,9.5-19.5,19.7-28.6,30.2c-6.3,7.3-12.2,15.4-20.5,21.1c-2,1.3-3.3,3.6-4.9,5.5
		c-8.3-7.4-16.6-14.9-24.9-22.3c-0.6-0.5-1.5-0.6-2.3-0.8c3.8-3.8,7.2-8.3,11.5-11.4c4.8-3.4,7.1-8.8,11.5-12.5
		c6.8-5.7,13-12.1,19-18.6c6.7-7.3,13.6-14.3,20.5-21.3c25.2-25.7,50.4-51.4,75.7-77C319,1218.2,320.9,1216.4,322.8,1214.5z"/>
	<path class="st20" d="M269.8,1069.1c13.9,13.6,27.9,27.1,41.7,40.9c5,5,3.6,15.3-2.1,19.2c-2.8,1.9-6.4-0.2-9.1,1
		c-4.2,1.9-5.1-1.7-7-3.5c-17.8-17-35.6-34-53.3-51.1c-0.7-0.7-1.3-1.5-2-2.2c0.2-4.9,4.8-3.2,7.3-4.6c1.1-0.6,2.9,0.2,4.3,0.9
		c1.1,0.5,2.2,1.2,1.9,2.6c-0.3,1.6-1.7,1.5-3.2,1.6c1.1,0.5,1.9,0.7,2.6,0c1.2-1.3,0.5-4.2,3-4.1c2.4,0.1,4.9,0.8,7.1,1.9
		c2.3,1.1,4.9,2.9,2.9-2.1c-0.6-1.4,0.6-2.2,2-2.1C267.2,1067.4,268.6,1068.1,269.8,1069.1z"/>
	<path class="st21" d="M287.9,936.5c1.2,7.2-7.8,14.5-14.1,14.5c-1.2,0-2.5-1.5-3.5-2.6c-8.5-8-16.8-16.1-25.4-24
		c-3-2.8-6.7-4.7-8.3-9c-1.5-4.2-1.2-8.3,1.3-11c3.3-3.6,7.2-7.6,13.2-6.4c1.2,0.3,2.2,0.7,3.1,1.5c10.5,10.2,21.1,20.4,31.4,30.7
		C287.3,931.9,289.3,934,287.9,936.5z"/>
	<path class="st22" d="M174.8,1012.4c-12.9-12.5-25.9-24.9-38.8-37.4c-0.3-1.9,1.4-2.3,2.4-2.4c4.6-0.6,9.1-2.8,13.9-0.1
		c2.3,1.3,5.2,2.5,7.1-1.2c0.8-1.5,2.7-1.4,4.1-0.7c2.5,1.2,5.1,1.1,7.7,1.3c12.1,11.5,24.1,22.9,35.5,35.1
		c-0.8,1.2-2.1,1.9-2.6,3.5c-1.4,3.9-4.4,4.7-6.9,1.6c-1.9-2.4-3.7-3.1-6.3-1.6c-0.7,0.4-1.7,0.7-2.4,0.5
		C183.7,1009.7,179.3,1011.6,174.8,1012.4z"/>
	<path class="st23" d="M101,941c-11.9-11.1-23.8-22.2-35-33.9c-1.3-2.3,0.5-3.4,2-3.5c2.9-0.3,5.3-2.8,8.9-1.2
		c1.3,0.6,5,0.3,6.9-0.4c4.6-1.7,9.2,2.1,13.6-0.6c0.6-0.4,1.9,0.3,2.8,0.6c12.5,11.8,24.8,23.7,36.7,36.1c-0.9,1.6-2.4,2.6-4,2.6
		c-6.9,0-13.7-1-20.6-1.5c-2-0.2-3.3-1.1-5.1,0.8C105.6,941.5,103,940.4,101,941z"/>
	<path class="st24" d="M101,941c0.1-1.1,0.7-2.2,1.8-1.9c2.6,0.8,4.2,0.3,5.2-2.4c0.3-0.8,1.9-2.3,2.6-0.7c1.8,4,4.7,2.3,7.5,2.2
		c2.9-0.1,6,0.2,8.8,1c3.6,1,6.7,0.2,10-1.1c11.8,11,23.2,22.3,34.3,33.9c-2.4,2.2-4.8,1.3-7.3,0.1c-2-1-4.1-2.1-4.3,1.8
		c-0.1,2-1.3,1.8-3.1,1.5c-3.3-0.5-6.1-3.7-9-3c-3.8,0.9-8.2,0-11.6,2.8C124.3,963.7,112.7,952.3,101,941z"/>
	<path class="st25" d="M355,1000.6c0,5.7-3.4,11.7-8.1,12.8c-4.5,1-8.6-0.1-12.3-3.9c-8.5-8.7-17.6-16.7-26.5-25
		c-4.3-4-5.8-14.3-2.9-19.2c2.4-4.1,11.2-5.1,14.7-1.7c9.8,9.5,19.5,19.1,29.4,28.5C352.1,994.6,356,996.3,355,1000.6z"/>
	<path class="st26" d="M375.1,941c7.1,6.5,14.3,12.9,21.2,19.6c2.9,2.9-0.5,6.2-0.9,9.2c-0.9,6.1-7.1,8-11.5,11.2
		c-0.9,0.7-2.4,0.1-3.6-1c-14.4-13-29.3-25.5-42.4-39.8c-1.1-1.7,0-2.5,1.3-2.9c2.1-0.6,4.4-1.5,6.3-0.6c5,2.1,10.1-1.9,15,0.7
		c1,0.5,0.5-0.8,0.8-1.3c0.6-1.3,1.8-2,2.7-1C367,938.4,372.5,937,375.1,941z"/>
	<path class="st27" d="M375.1,941c-2.9,0.1-4.9-5-8.6-1.2c-0.8,0.8-2-1.2-2.1-2.6c-0.1-1-0.4-1.7-1.3-1.7c-1.1,0-1.2,1-1,1.8
		c0.3,1.1,0.9,2.3-0.7,2.8c-2.1,0.7-1.1-1.5-1.8-2.1c-0.5-0.4-1.3-1-1.6-0.8c-6,3-12.3-0.3-18.3,0.9c-1.2,0.2-1.6,1-1.8,2
		c-12.3-12-24.7-24-37-36c-1.4-2.6-0.3-4,2.3-3.7c3.1,0.4,5.9,0.1,9-0.4c2.9-0.5,7.1-1.5,9.8,2.2c0.8,1,2.7,2.1,4,1
		c3.4-2.6,6.3-1.4,9.3,0.7C349,915.9,362.2,928.3,375.1,941z"/>
	<path class="st28" d="M335.4,903.9c-3.4-0.7-6.5-1.6-9.8,1c-1.6,1.2-4.1-1.4-6.1-2.7c-0.3-0.2-0.5-1.7-0.6-1.6
		c-2.3,2.6-6.1-1.5-8.1,1.7c-1.4,2.3-2.6-0.3-3.7,0c-2.1,0.5-5.8-4.3-6.2,1.7c-8.1-7.9-16.3-15.7-24.3-23.7
		c-3.3-3.3-1.7-13.8,2.4-16.3c6.9-4.3,9.8-4.1,15.7,1.5C308.3,878.2,321.9,891.1,335.4,903.9z"/>
	<path class="st29" d="M269.8,1069.1c-1.8,0.4-3.3-1.7-5.2-0.5c-0.2,2.2,2.8,1.6,3,3.5c-3.8,4.9-7.8,0.7-11-0.5
		c-3-1.1-4-1.7-4.6,1.8c-0.3,2.1-1.5,2.8-3.6,1.9c-1.3-0.6-3.6-0.6-2.9-2.6c0.9-2.7,2.3,0.2,3.5,0.1c0.5,0,0.9-0.2,1.4-0.2
		c-3.2-3.9-7.9-3.6-12.6,0.8c-10.7-9.6-21-19.7-31-30c0.9-4.7,5.2-5.1,8.5-6.1c4.4-1.4,9.2-0.6,13.7-1.7c1.3-0.3,2.7,0.1,3.7,1.1
		c2.4,2.3,5.4,3.2,8.3,4.4C250.7,1050.3,260.2,1059.7,269.8,1069.1z"/>
	<path class="st30" d="M52.9,874.9c2.6-5,6.1-9.4,9.5-14c5.3-7.3,13.2-11,20.8-14.8c5.4-2.7,12-2.6,16.8,1.7
		c4.3,3.9,4.7,9.5,3.5,15.5c-1.2,5.7-4,10.1-8.5,13.6c-3-3.1-6.3-3.7-9.5-0.5c-2.1,2-4.6,0.5-7,1.2c-3.7,1.1-8.2,2.8-11.9,0.3
		c-3.2-2.2-5.8-2.9-9.3-0.8C55.8,877.9,53.2,877.9,52.9,874.9z"/>
	<path class="st28" d="M52.9,874.9c2.2,2.6,4.3,1.2,6.5-0.1c2-1.2,3.5-2.2,5.7,0.7c1.3,1.6,5.1,5.4,7.8,0.2c0.1-0.1,0.4-0.3,0.4-0.3
		c2.6,3.6,5.8-1.3,8.5,0.5c1.8,1.2,2.4-0.4,3.6-1.3c4.6-3.5,6.9-2.9,9.5,2.2c-1.4,1.3-2.8,2.6-4.2,3.9c-5.1,4.7-5.1,4.7-0.7,10.3
		c1.1,0.9,2.2,1.8,2.8,3.1c2.4,2.6,4.8,5.2,7.3,7.8c-3-0.2-6.2,2.9-8,1.8c-4-2.5-8.1,1.4-11.9-1.3c-2.6-1.8-0.3,3.6-3.4,3.1
		c-1.7-0.2-0.2-5-3.7-2c-1.9,1.7-6.2-0.6-7.2,3.6c-6.2-4.4-10.2-10.9-14.7-16.8C47.1,884.8,48.1,879.1,52.9,874.9z"/>
	<path class="st31" d="M241.2,1040.9c-3.3,0.8-6-0.3-8.2-2.7c-0.8-0.9-1.6-2-2.8-1.7c-7.5,1.9-15.9,0.3-22.6,5.5
		c-0.4,0.3-0.5,0.8-0.8,1.3c-11.1-9.9-21.6-20.3-32-30.9c3.6-2.2,7.2-4.4,11.8-2.5c1.3,0.5,3.1,0.6,4.3-0.5c3.3-3.2,5.4-1.3,6.9,1.7
		c0.9,1.7,1.8,2.2,3.4,1.8c1.8-0.5,1.5-1.3,1.2-3c-0.4-2.4,2.3-2.6,4.3-2.7c10.3,10,20.5,19.9,30.8,29.9
		C238.8,1038.2,239.9,1039.6,241.2,1040.9z"/>
	<path class="st32" d="M127.9,816c0.6-6,4.9-10.2,8.8-13.6c3.5-3.1,7.3-6.3,11.7-8.6c7.8-4,15.4-3.5,23-0.5
		c5.3,2.1,6.6,14.7,1.7,18.4c-2.1,1.6-2.3,4.7-5.1,5.4c-1.2,0.8,0.5-3.5-2.2-1c-2.8,2.6-6.5,3.4-10,0.6c-1.7-1.3-3.6-1.5-5.7-1.3
		c-3.5,0.4-7,0.3-10.4-0.7c-1.8-0.5-3.4-0.5-4.5,1C132.8,819.2,130.4,818.4,127.9,816z"/>
	<path class="st33" d="M393.1,803.1c-2.7,5.8-8.4,9.2-12.1,14.2c-1.9,2.6-3.2,5.8-6,7.7c-3.2-1.5-6.6-1.8-10.2-1.6
		c-7.6,0.4-15.3,0.2-22.9,0.1c-2.3,0-4.8,0.2-6-2.5c6-6.3,12-12.7,18-19c6.1,2.4,12.3,0.7,18.5,1C379.3,803.3,386.3,803,393.1,803.1
		z"/>
	<path class="st34" d="M335.9,821c1.9,1.2,4.1,1.1,6.2,1.1c9.8,0,19.7,0,29.5,0c2.1,0,3.6,0.5,3.4,3c-4.8,5.7,1.3,7.2,3.9,10.1
		c0,0.3,0.1,0.6,0,1c-2.4,1.5-5.2,1.3-7.7,1.3c-12.4,0-24.8,0-37.1,0.2c-1.9,0-3.6-0.5-5.2-1.4c-5.4-5.8,2-7.6,3.7-11.1
		C333.2,823.6,334.6,822.2,335.9,821z"/>
	<path class="st35" d="M328.9,836c10.8-0.8,21.7-0.3,32.5-0.5c5.7-0.1,11.7-1,17.5,0.4c3.8,3.9,9.2,6,12,11
		c-5.4,2.1-11.1,0.8-16.6,0.9c-8.4,0.1-16.8,1.1-25.2-0.8c-2-0.5-3.9,0.3-5.3,2C338.9,844.7,333,841.4,328.9,836z"/>
	<path class="st36" d="M127.9,816c2.9,1,5.5,1.3,7.5-2c0.8-1.2,2.9-2.4,4.7-0.4c1.7,1.9,3.7,0.1,5.6,0.5c4.4,0.8,9.2-1,13.2,2.9
		c1.9,1.9,4.3-0.6,6.3-1.6c2.2-1.1,3-0.6,2.8,1.8c-4,3-7.7,6.4-11.8,9.4c-6.8,4.8-14.4,5.1-22.1,4.3
		C128.5,830.3,125.3,822,127.9,816z"/>
	<path class="st37" d="M93,894.1c-1.3-0.7-2.5-1.5-2.8-3.1C92.1,891,93,892.2,93,894.1z"/>
	<path class="st38" d="M342.9,1344c8.9,1.4,17.8,0.4,26.8,0.7c4.2,0.2,8.4-0.4,12.4,1.3c-10.7,10.4-19.5,22.5-31.3,31.8
		c-2.7,2.1-3,3.9-0.2,6.3c2.7,2.4,5,5.3,7.5,7.9c-2.1,0-3.1-1.7-4.4-2.9c-2.4-2.5-4.6-5.4-8.8-3.3c-0.7,0.4-2.3-0.4-3.2-1
		c-2.2-1.7-4.1-2.2-5.6,0.7c-0.9,1.8-1.9,0.3-2.9,0.2c-5-0.8-10-1.7-15.1-1.7c-2.9,0-4.9,1.8-7.1,3.1c-5.3-3-5.2-2.9-1.1-7.3
		c9.8-10.6,19.4-21.4,29.2-32.1C340.1,1346.3,341.6,1345.2,342.9,1344z"/>
	<path class="st9" d="M146,1378.1c1.3-1.2,1.5-4.6,3.9-3.4c3,1.5,6.1,3.3,7.9,6.4c0.5,0.9-0.2,2-1.2,2.4c-1.2,0.5-1.9-0.3-2.3-1.2
		c-1.3-3.6-2.8-2.5-4.3-0.2C148.6,1380.8,147.3,1379.4,146,1378.1z"/>
	<path class="st9" d="M154.9,1386c3.8,0.6,6.1,3.8,9.1,5.7c1.3,0.8,1.3,2.4,0.1,3.4c-1.6,1.3-1.8-0.3-2.3-1.3c-0.4-1-1.3-2-2.2-1.6
		c-4.4,1.8-5.3-1.4-6.6-4.2C153,1386.8,154.9,1387.4,154.9,1386z"/>
	<path class="st9" d="M122,1356.1c1.6-2.9,4.8-3.2,7.3-4.7c0.7-0.4,1.7-0.6,2.2,0.2c0.5,0.8-0.1,1.6-0.7,2.1
		c-2.3,1.8-4.6,3.8-7.8,3.3C122.6,1356.7,122.3,1356.4,122,1356.1z"/>
	<path class="st9" d="M14.9,1258c6.5,0.1,7.6,1,9,8.2C20.9,1263.5,17.9,1260.8,14.9,1258z"/>
	<path class="st9" d="M96,1332.1c1.1-2.3,3.2-2.8,4.9-1.7c2.3,1.5,0.9,3.8,0.1,5.7C98.4,1335.9,97.3,1333.8,96,1332.1z"/>
	<path class="st9" d="M111.9,1348c2.3-0.3,4.1-0.1,3.1,3C114,1350,112.9,1349,111.9,1348z"/>
	<path class="st9" d="M133.9,1367c1.9,0,3,0.9,3.1,2.8C135.4,1369.5,134.7,1368.2,133.9,1367z"/>
	<path class="st9" d="M89.9,1326c1.4,0,3.2-0.5,2.1,2.1C90.5,1328.2,89.8,1327.5,89.9,1326z"/>
	<path class="st9" d="M75,1314c1.4-0.6,2.8-1.5,2.9,1.1C76.9,1314.9,75.7,1315.1,75,1314z"/>
	<path class="st9" d="M170.9,1417.7c-0.8-0.9-1.5-1.7-2.3-2.6c-1-1.3-0.5-2.4,0.2-3.7c0.7-1.2,1.6-1.2,2.9-1c4.1,0.5,4.3,0.1,3-4.5
		c2.4,2,5.7,3,2,6.3C174.8,1414,172.9,1415.8,170.9,1417.7z"/>
	<path class="st9" d="M189,1417.1c0.5-1,1-2.1,1.6-3.1c0.5-0.8,0.8-2,2.1-1.6c0.9,0.3,2.4,0.9,2.1,1.7c-1.4,3.4,1.5,5.2,2.6,7.7
		c0.5,1.2-0.5,1.7-1.4,2.2C193.3,1422,191,1419.7,189,1417.1z"/>
	<path class="st9" d="M217.9,1443c4.3,0.3,6.6,2.6,7.1,6.8C222.2,1448,219.7,1445.8,217.9,1443z"/>
	<path class="st9" d="M311.9,1530c2,0.7,7.5-2.1,4.1,4.1C314.6,1532.8,313.2,1531.4,311.9,1530z"/>
	<path class="st9" d="M238.9,1462c1.6-0.2,3.2-3,4.6-0.5c1,1.8-1.1,2.3-2.6,2.5C240.2,1463.4,239.6,1462.7,238.9,1462z"/>
	<path class="st9" d="M285.9,1504c3.2-0.5,4.6,0.8,4.1,4.1C287.6,1507.8,286.2,1506.4,285.9,1504z"/>
	<path class="st9" d="M315,1521.1c0-2.3,1.7-4.6-1.2-6.7c-1.1-0.8,1-1.9,1.9-1.8c2.4,0.4,4.8,1.6,6.8-0.9c0.4-0.6,1.2-0.3,1.7,0.3
		c0.7,0.7,0.7,1.6,0,2.2c-3.2,3-5.6,6.4-6.6,10.9c-0.3,1.4-2,1-2.4-0.5C314.9,1523.5,315,1522.2,315,1521.1z"/>
	<path class="st9" d="M308.7,1500.6c4.6,0,6.3,2.8,4.2,6.7c-0.8,1.4-1.4,3-1.9,4.6c-0.3,1-0.4,2.1-1.8,1.9c-1.3-0.2-1-1.4-1.3-2.3
		c-0.9-2.9,2.4-6.4-1.3-9.1C305.8,1501.6,307.8,1500.7,308.7,1500.6z"/>
	<path class="st9" d="M59.5,1283.4c-1.3-3.5-5.3-5.9-3.2-9.5c0.4-0.7,5.6-1.6,6.6,0.3C64.5,1277.6,62,1280.6,59.5,1283.4z"/>
	<path class="st9" d="M52.4,1271.3c-0.9-3.4-5.7-5.7-2.9-9.5c0.7-0.9,5.9-0.3,6.3,0.7C57.1,1265.6,55.2,1268.6,52.4,1271.3z"/>
	<path class="st9" d="M163.3,1398.3c2.9,2,6.2,3.7,8.4,6.6c0.6,0.8,0,2-0.9,2.5c-1,0.6-1.5,0-1.8-0.9c-0.8-2.6-2.4-2.4-4.7-1.9
		c-1.6,0.4-3.3-0.6-3.2-2.8C161.1,1400.4,161.6,1398.9,163.3,1398.3z"/>
	<path class="st9" d="M142.4,1362.4c3.2,1.8,6,4.1,8.3,6.8c0.5,0.6-0.1,1.6-0.8,2.1c-0.8,0.6-1.6,0.4-1.9-0.6c-0.8-3-2.7-2.5-5-2.1
		c-1.7,0.3-3.3-0.8-3-3C140.3,1364.2,140.5,1362.6,142.4,1362.4z"/>
	<path class="st9" d="M145.6,1422.5c0.6-1.6,1.6-2.6,2.8-3c2.5-0.9,4.4,0.8,6.1,2.3c0.9,0.8,0.7,2.3-0.3,3.2
		c-1.9,1.8-3.2-0.2-4.8-0.9C148.3,1423.5,147.1,1423.1,145.6,1422.5z"/>
	<path class="st9" d="M65.5,1286.3c1.6-0.5,2.4-1,3.2-0.9c2.1,0.1,3.9,1.8,3.8,3.3c-0.2,2.5-2.2,0.6-3.4,0.5c-0.8,0-1.6,0-2.4,0.2
		c-0.9,0.2-1.8,2-2.8,0.1c-0.5-1-1.6-2-1.1-3.2C63.6,1284.5,65.1,1286.4,65.5,1286.3z"/>
	<path class="st9" d="M208.7,1431.9c4.4-1.9,6.2,0.5,8.1,2.5c0.9,1,1.8,2.4,0.1,3.3c-1.2,0.6-3.4,0.9-3.7-1.1
		C213,1434.1,211.1,1433.3,208.7,1431.9z"/>
	<path class="st9" d="M202.1,1419.9c3.5-1.9,5.4-0.1,7.2,1.9c0.9,0.9,2.1,1.8,1.3,3.3c-0.2,0.4-1.1,0.7-1.6,0.8
		c-1.5,0.1-2.7-0.7-2.8-2.1C205.8,1421.5,203.7,1421.3,202.1,1419.9z"/>
	<path class="st9" d="M91.8,1318c1.7,0,3,0,3.1,1.9c0,1.8-0.8,3.4-2.7,3.4c-1.4,0-3.7-0.1-3.8-2.2
		C88.4,1319.1,90.2,1318.2,91.8,1318z"/>
	<path class="st9" d="M301,1497.9c0.2-1.7-0.5-4.1,2-4.4c1.6-0.2,2.3,1.4,1.9,2.7c-0.5,1.9,0.1,5-2.2,5.4
		C300.2,1502,301.4,1499.2,301,1497.9z"/>
	<path class="st9" d="M85.1,1311c-1.5-0.2-3.4-0.4-3.5-2c-0.1-1.9,1.6-2.7,3.3-2.9c1.6-0.1,3.1,0,3,2.2
		C87.8,1310,86.7,1310.8,85.1,1311z"/>
	<path class="st9" d="M77.8,1299c-1.3-0.3-3.3-0.4-3.3-2.2c0-1.8,1.7-2.7,3.5-2.7c1.5,0,2.7,0.7,2.7,2.2
		C80.9,1298.2,79.6,1298.9,77.8,1299z"/>
	<path class="st9" d="M27.1,1262.4c0.3-1.8,1.5-2.5,3.1-2.3c1.4,0.1,2.8,0.7,2.3,2.4c-0.3,1.3-0.6,3.2-2.6,2.8
		C28.5,1265,27.2,1264.2,27.1,1262.4z"/>
	<path class="st9" d="M185.6,1404.9c-1.2-0.2-2.5-0.7-2.2-2.4c0.2-1,0.6-2.4,2.1-2.1c1.2,0.3,2.4,0.9,2.4,2.6
		C187.9,1404.5,187,1405,185.6,1404.9z"/>
	<path class="st9" d="M289.7,1482.9c-0.3,1.4-1.2,2.1-2.5,1.9c-1.2-0.1-2.3-0.9-2.5-2.1c-0.3-1.5,1.3-1.9,2.3-2.1
		C288.6,1480.4,289.2,1481.7,289.7,1482.9z"/>
	<path class="st9" d="M120.5,1350.2c-1.3,0.2-1.5-0.5-1.4-1.4c0.2-2,2-2.5,3.3-3.2c1-0.6,1.5,0.4,1.5,1.2
		C124,1349.2,121.9,1349.4,120.5,1350.2z"/>
	<path class="st9" d="M157.5,1412.8c2.1,1.2,4.4,1.2,3.9,3.7c-0.1,0.4-1,1.1-1.4,1C157.7,1417.2,158,1415.2,157.5,1412.8z"/>
	<path class="st9" d="M256.8,1457.9c-0.3,2.8-1.1,4.4-3,5.5C253.3,1460.3,253.3,1460.3,256.8,1457.9z"/>
	<path class="st9" d="M263.7,1469.9c-0.2,2.9-1.1,4.4-3.3,5.6C259.6,1472.6,260.8,1471.2,263.7,1469.9z"/>
	<path class="st9" d="M115.6,1336.3c-0.4,1.1-1.2,2.1-2.3,2.2c-1,0.1-1.2-0.8-1.2-1.7c0.1-1.2,0.7-1.7,1.8-1.8
		C114.8,1335,115.5,1335.2,115.6,1336.3z"/>
	<path class="st9" d="M178.1,1392.8c-0.9-0.2-1.7-0.7-1.7-1.8c0.1-1.1,0.8-1.8,1.9-1.6c1,0.2,1.6,1.1,1.5,2.1
		C179.8,1392.4,179.2,1392.9,178.1,1392.8z"/>
	<path class="st9" d="M150.9,1401.1c1.5,0.8,3,1.5,4.9,2.5C152.5,1404.5,152.5,1404.5,150.9,1401.1z"/>
	<path class="st9" d="M296.4,1495.4c-0.1,1-0.7,1.4-1.6,1.5c-1.1,0.1-2-0.4-2.3-1.4c-0.3-1.1,0.6-1.3,1.5-1.4
		C295,1494,295.9,1494.2,296.4,1495.4z"/>
	<path class="st9" d="M303.3,1507.9c-0.7,1.1-1.6,1.2-2.6,0.8c-0.8-0.3-1.6-0.9-1.2-1.8c0.5-1.1,1.6-0.9,2.5-0.7
		C302.8,1506.4,303.6,1506.9,303.3,1507.9z"/>
	<path class="st9" d="M308.6,1520.9c-1.2-0.2-2.1-0.6-2.1-1.8c0-1.1,1-1.1,1.8-1.1c1,0,2.1,0.3,2,1.6
		C310.2,1520.6,309.3,1520.8,308.6,1520.9z"/>
	<path class="st9" d="M277.8,1473.6c0.3,1.9,0.4,3.1-1.1,3.8c-0.3,0.1-1-0.3-1.1-0.6C274.9,1474.9,276.1,1474.2,277.8,1473.6z"/>
	<path class="st9" d="M246.5,1451.3c-0.8-1.3-0.8-2.4,0.7-3.1c0.2-0.1,1.1,0.4,1,0.5C248.1,1449.8,247.9,1451,246.5,1451.3z"/>
	<path class="st9" d="M295.6,1489.8c-0.7-0.1-1.3-0.3-1.4-1.1c-0.1-0.7,0.1-1.5,1-1.3c0.5,0.1,1.2,0.6,1.4,1.1
		C296.8,1489.2,296.4,1489.8,295.6,1489.8z"/>
	<path class="st9" d="M66,1278c0.6,0.6,1.2,0.9,1.5,1.4c0.3,0.6,0.1,1.4-0.8,1.2c-0.5-0.1-1-0.7-1.3-1.2
		C65.3,1279.2,65.7,1278.6,66,1278z"/>
	<path class="st9" d="M61.1,1268.1c-0.8,0.2-1.2,0.5-1.5,0.4c-0.8-0.3-1.4-0.9-1-1.8c0.1-0.2,0.9-0.3,1.2-0.2
		C60.2,1266.9,60.5,1267.5,61.1,1268.1z"/>
	<path class="st9" d="M229.8,1438.2c-0.6,0.3-1,0.6-1.4,0.6c-0.7,0-1.2-0.5-0.9-1.2c0.1-0.3,0.8-0.5,1.2-0.4
		C229.1,1437.3,229.4,1437.8,229.8,1438.2z"/>
	<path class="st9" d="M238.2,1443.8c0.3,1-0.3,1.1-0.8,1.1c-0.7,0-1.2-0.5-1.3-1.2c-0.1-0.5,0.1-1.1,0.7-0.9
		C237.4,1443,237.9,1443.5,238.2,1443.8z"/>
	<path class="st9" d="M236.8,1450.1c-0.6,0.3-0.9,0.7-1.3,0.7c-0.7,0-1.2-0.4-1-1.1c0.1-0.3,0.8-0.5,1.2-0.5
		C236,1449.3,236.3,1449.7,236.8,1450.1z"/>
	<path class="st9" d="M245.3,1455.5c-0.1,1.3-0.6,1.4-1.1,1.4c-0.7-0.1-1.1-0.6-1.1-1.4c0-0.5,0.3-1,0.9-0.7
		C244.6,1455,245.2,1455.4,245.3,1455.5z"/>
	<path class="st9" d="M251,1465.4c0.7,1.3,1,1.9,1.2,2.5c0.2,0.6-0.1,0.9-0.6,1c-0.7,0-1.3-0.3-1.4-1
		C250.1,1467.4,250.4,1467,251,1465.4z"/>
	<path class="st9" d="M282.8,1493.2c-0.6,0.3-1,0.6-1.4,0.6c-0.7,0-1.1-0.5-0.8-1.2c0.2-0.3,0.8-0.4,1.2-0.3
		C282.1,1492.3,282.4,1492.8,282.8,1493.2z"/>
	<path class="st9" d="M73.8,1309c-0.2-0.7-0.5-1.1-0.4-1.4c0.1-0.4,0.6-0.6,1-0.8c0.2,0.4,0.5,0.8,0.4,1.1
		C74.7,1308.2,74.3,1308.4,73.8,1309z"/>
	<path class="st9" d="M135.7,1356.2c-0.4,0-0.8,0.1-1.2,0c-0.4-0.2-0.9-0.5-1-0.9c-0.1-0.6,0.4-0.7,0.9-0.5
		C134.9,1355,135.6,1355.2,135.7,1356.2z"/>
	<path class="st9" d="M68,1295.5c-0.3,0.3-0.5,0.9-0.8,1c-0.6,0.2-0.9-0.4-0.8-0.9c0.1-0.4,0.6-0.6,1-1
		C67.5,1294.9,67.7,1295.2,68,1295.5z"/>
	<path class="st9" d="M105.5,1326.7c-0.1-0.8-0.4-1.3-0.2-1.6c0.1-0.3,0.7-0.3,1.1-0.5c0.1,0.3,0.4,0.7,0.3,0.8
		C106.4,1325.8,106,1326.1,105.5,1326.7z"/>
	<path class="st9" d="M162.9,1383.7c-0.5,0.9-0.9,0.6-1.3,0.3c-0.3-0.3-0.8-0.7-0.8-1.1c-0.1-0.7,0.5-0.7,0.9-0.4
		C162.1,1382.8,162.5,1383.3,162.9,1383.7z"/>
	<path class="st9" d="M167.1,1395.2c0.7-0.6,1.1-0.9,1.1-0.9c0.5,0.4,1.1,0.7,1.4,1.2c0.3,0.5,0,1-0.7,0.7
		C168.3,1396,167.8,1395.6,167.1,1395.2z"/>
	<path class="st5" d="M398.7,407c5.7,0.1,9.3,3.9,9.3,9.9c0,4.8-2.9,7.2-8.7,7.1c-6.8-0.1-11.3-3.5-11.3-8.4
		C388,410.6,392.6,406.9,398.7,407z"/>
</g>
</svg>
