<?xml version="1.0" encoding="utf-8"?>
<!-- Generator: Adobe Illustrator 21.0.0, SVG Export Plug-In . SVG Version: 6.00 Build 0)  -->
<svg version="1.1" id="Layer_1" xmlns="http://www.w3.org/2000/svg" xmlns:xlink="http://www.w3.org/1999/xlink" x="0px" y="0px"
	 viewBox="0 0 1115 336" style="enable-background:new 0 0 1115 336;" xml:space="preserve">
<style type="text/css">
	.st0{fill:#8E8E8E;}
	.st1{fill:#A2A2A2;}
	.st2{fill:#3D9262;}
	.st3{fill:#419C68;}
	.st4{fill:#3B8E60;}
	.st5{fill:#8F8F8F;}
	.st6{fill:#3B8F60;}
	.st7{fill:#BFBFBF;}
	.st8{fill:#93A893;}
	.st9{fill:#919191;}
	.st10{fill:#E9E7E7;}
	.st11{fill:#3D9364;}
	.st12{fill:#3F9765;}
	.st13{fill:#3F9A67;}
	.st14{fill:#3C9162;}
	.st15{fill:#3F9966;}
	.st16{fill:#3D9363;}
	.st17{fill:#419C69;}
	.st18{fill:#41A06B;}
	.st19{fill:#3D9162;}
	.st20{fill:#409A67;}
	.st21{fill:#42A46D;}
	.st22{fill:#A1A1A1;}
	.st23{fill:#3E9664;}
	.st24{fill:#9B9B9B;}
	.st25{fill:#9A9A9A;}
	.st26{fill:#9D9D9D;}
	.st27{fill:#979797;}
	.st28{fill:#949494;}
	.st29{fill:#959595;}
	.st30{fill:#9F9F9F;}
	.st31{fill:#A0A0A0;}
	.st32{fill:#929292;}
	.st33{fill:#999999;}
	.st34{fill:#42A26C;}
	.st35{fill:#3F9865;}
	.st36{fill:#D1D0CF;}
	.st37{fill:#D8D7D7;}
	.st38{fill:#9CA99C;}
	.st39{fill:#A0AAA0;}
	.st40{fill:#9CA89C;}
	.st41{fill:#9DA99D;}
	.st42{fill:#A2ABA2;}
	.st43{fill:#CACACA;}
	.st44{fill:#CDCDCD;}
	.st45{fill:#C7C7C7;}
	.st46{fill:#C5C5C5;}
	.st47{fill:#C3C3C3;}
	.st48{fill:#CFCFCF;}
	.st49{fill:#D1D1D1;}
</style>
<g>
	<path class="st0" d="M877.2,322.3c-3.9,4.7-7.9,9.4-11.2,14.7c-5.3,0-10.7,0-16,0c-6.9-8.4-16-14.4-23.7-21.8
		c-7.6-7.4-15.6-14.3-23.8-20.9c-20.4-16.6-39.3-34.9-58.7-52.6c-11.3-10.3-23.2-19.9-34.8-30c-10.3-9-21-17.7-31.1-27
		c-2-1.9-2-4.5-1.8-7c0.2-2.7,2.5-1.5,3.8-2c4.3-1.5,6.4-5.6,9.1-8.8c2.5-2.9,4.8-5.8,7.9-8.1c2.8-0.8,5.2,0.7,7.7,1.4
		c2.6,2.1,4.3,5.2,7.4,6.9c0.6,0.4,1.1,0.8,1.6,1.3c1.4,1.4,2.8,2.8,4.2,4.2c0.9,1.2,2.1,2.2,3.5,2.8c2.2,1.5,3.8,3.7,6.2,5
		c3,2.8,6,5.5,9.2,7.9c3.9,3.7,7.8,7.4,12.5,10.1c1.2,0.7,1.8,1.9,2.7,2.9c1.7,2.1,3.7,3.8,5.9,5.3c17,14.2,32.6,29.8,49.2,44.4
		c14.7,12.9,29.7,25.6,44.3,38.8c7.8,7,15.7,13.8,23.6,20.7C879.5,314.7,879.7,316.8,877.2,322.3z"/>
	<path class="st1" d="M439.9,57c0.7-3.2,3.3-5.3,5.5-7.3c8.7-8.3,16.5-17.5,24.6-26.3c5.5-6,11.4-11.7,16.4-18.2
		c1-1.3,1.8-2.7,2.6-4.1c2,0,4,0,6,0c20,16.9,38.7,35.2,58.1,52.9c0,3.1-2.4,3.5-4.4,3.4c-8.4-0.4-16.7,1.5-25.2,0.3
		c-6.1-0.8-12.2-0.5-18.2,0.6c-4.1,0.7-6.3-2.5-8.8-4.7c-5.8-5-6.4-5.1-12.2,0.6c-2.1,2-3.6,5-7.3,4.5c-10.5,0.2-21,1-31.5-0.1
		C443.5,58.3,441.4,58.6,439.9,57z"/>
	<path class="st2" d="M1047.9,312c10.7-14.8,24.7-26.7,37.4-39.7c4.4-4.6,11.3-4.8,18-2.9c4.3,1.3,7.3,3.3,10.4,6.3
		c1.2,1.1-0.7,4,2.3,3.3c0,4,0,8,0,12c-1,5.4-3.8,9.4-8.4,12.5c-3.1,2.1-5.4,5.2-7.8,8.1c-1.3,1.5-2.4,3.2-4.7,3.2
		c-2.1-0.3-4.3-0.1-6.4-0.2c-4.7-0.2-9.5,2.2-14.3-1.3c-1.6-1.2-5.4-1.6-7.3,1.6c-0.9,1.5-2.3,1.6-3.3,0.6c-2.8-2.8-6.1-1.7-9.3-1.6
		C1052,314,1049.4,314.9,1047.9,312z"/>
	<path class="st3" d="M18.9,189.1C11.5,183.3,6.5,175.5,1,168c0-3,0-6,0-9c1.3-1,2.6-2.1,3.9-3.1c1.3-0.2,2.7-0.2,3.9-0.8
		c3.4-1.9,6.5-2.4,9.9,0.5c3,2.6,7.2,0.6,10.3-0.1c4-0.9,8.1-1.5,12.1-3c3.4-1.3,5.8,1.2,5.9,5.3c-0.4,0.5-0.7,1.1-1.1,1.5
		c-8.5,8-8.5,8-0.3,16.7c2.8,3,6.3,5.3,8.4,9c-0.5,1.3-1.6,3-2.7,2.3c-2.3-1.3-4.8,0.4-6.3-0.2c-4.7-2.1-8.6,0.1-12.7,1.2
		C27.8,189.5,23.4,188.7,18.9,189.1z"/>
	<path class="st4" d="M1047.9,312c2,1.1,4.1,1.3,6.2,0.9c4.2-0.8,8.4-1.8,11.1,2.7c2.9-0.9-1.2-4,1.1-3.7c3.1,0.4,7.1-1.8,9,0.2
		c4.4,4.7,9.1,0.7,13.6,1.3c2,0.3,4.2-0.4,6.2,0.7c-1.3,5.2-5.8,8.2-9.1,11.8c-3.8,4.2-8.2,8-13,11.1c-16,0-32,0-48,0
		c-0.5-3.7,3.3-5.1,5-6.6C1036.4,324.6,1041.2,317.4,1047.9,312z"/>
	<path class="st5" d="M691,337c0.5-0.9,0.7-2.1,1.5-2.5c11.5-7.5,18.3-19.8,28.3-28.8c3.8-3.4,6.8-3.3,10.7,0
		c6,5.2,10.9,11.5,17.3,16.2c5.9,4.4,10.1,10.9,16.3,15.1c-4.3,0-8.7,0-13,0c-7.1-3.8-12.8-9.2-17.9-15.3c-3.9-4.6-4.7-4.7-8.6,0
		c-3.2,3.8-6.9,7.2-10,11c-1.7,2.1-3.9,3.5-6.5,4.3C703,337,697,337,691,337z"/>
	<path class="st6" d="M542,337c-0.1-1.5,0.2-2.8,1.4-4c5.2-5,10.2-10.1,15.4-15.1c4.4-0.6,9,0.1,13.1-2.8c1.4-1,4.9-1.5,6.6,1.4
		c0.4,0.7,0.5,0.7,1.4,0.3c3.1-1.2,14.4,2.2,16.5,4.8c0.3,0.4,0,0.9-0.4,1.3c-3.3,5.3-8.8,8.7-12,14.1C570,337,556,337,542,337z"/>
	<path class="st4" d="M171,337c-5.4-6.6-12.2-11.8-18-18c-0.6-1.8-0.3-3.5,1.4-4.2c2-0.8,3.5,0.5,4.4,2.2c1.3,2.4,2.5,2.4,5.1,1.3
		c3.8-1.6,7.9-3.3,12.3-1.6c1.2,0.5,2.2-0.3,3.3-0.7c2.6-1,5-0.8,6.6,1.7c1.5,2.2,3.6,2.7,5.9,3.3c5.5,5.1,11.3,10,15.8,16.1
		C195.7,337,183.3,337,171,337z"/>
	<path class="st7" d="M709,337c6.4-5.3,11.6-11.7,17-18c1.9-2.3,4.3-3.9,6.5-0.9c5.4,7.5,13,12.6,19.5,18.9
		C737.7,337,723.3,337,709,337z"/>
	<path class="st8" d="M705,161c-2.9,0.2-5.5-0.9-8.1-2.1c4.3-5.3,8.7-10.7,13-16c2.1-0.9,3.8-0.3,5.3,1.4
		c6.8,7.9,14.7,14.6,23.3,20.5c4.9,1.7,6.5,7.4,11.3,9.3c9.6,7.7,18.2,16.3,26.8,25c6.1,5.3,12.1,10.6,18,16.1
		c8.3,5.9,15.1,13.3,22.2,20.6c1.5,1.6,3,3.1,4.9,4.2c5.5,4.9,11.4,9.4,17.1,14.1c9.8,8.2,19.5,16.4,29.1,24.8
		c9.2,7.3,18.7,14.3,26.6,23.1c0.3,3.4-2.5,4.4-4.5,6c-3.3,5.7-9.1,9.1-12.9,14.3c2-6.3-1.8-10-6-13.6c-10.4-9-20.6-18-31-27
		c-14.4-12.5-28.9-24.7-43.1-37.3c-10.6-9.4-20.9-19.1-31.1-29c-2.9-2.9-7.3-4.1-9-8.3c-2.2-1.4-3.7-3.7-6-5c-0.7-1-1.3-2-2-3
		c-5-2.5-8.5-7-13-10c-3.4-2.2-6.7-4.5-9-8c-2.2-1.4-3.7-3.7-6-5c-2.4,0.4-3.2-1.2-4-3c-0.9-1.7-2.2-3.1-4-4c-0.3-0.3-0.6-0.7-1-1
		C709.3,166,707,163.7,705,161z"/>
	<path class="st9" d="M547.1,166.1c-4.1,4.8-7.8,10-12.9,13.9c-2.1,1.3-4.3,1.5-6.7,1.5c-12.3,0.2-24.5,0.5-36.8,0.6
		c-11.2,0.1-22.5,0.4-33.7-1c-8.5-6.1-15.1-14.4-23.1-21.1c1.1-1.5,2.8-2.2,4.3-2c5.4,0.8,10.9-0.3,16.3,0.1
		c9.3,0.7,18.4,0,27.6-0.9c4.3,0.5,6.9,3.8,9.7,6.4c2.6,2.5,4.6,4.1,7.7,0.9c0.8-0.8,2.1-0.9,3.3-1c13.1-0.5,26.1-0.2,39.1-0.1
		C543.9,163.5,546.5,163,547.1,166.1z"/>
	<path class="st0" d="M456.9,181.1c2.5-2.2,5.4-0.9,8.1-1c8.9-0.2,17.9,1.3,26.7,0.6c14.2-1.1,28.3-0.3,42.4-0.7
		c-3.9,6.3-8.5,12-14,17.1c-4.9,4.5-9,9.9-13.1,15.2c-1.8,2.3-4.2,3.5-6.6,4.5c-2,0.8-4.2,0.4-6.4-1.9c-7.1-7.7-15.4-14.1-23.4-21
		C466,189.8,461.5,185.4,456.9,181.1z"/>
	<path class="st7" d="M867.1,279.8c-9.7-8.3-19.4-16.6-29.1-24.8c8.9-7.6,15.9-16.9,24.3-24.9c1.4-1.3,2.1-3.6,4.7-3.2
		c8.9,7.7,17.9,15.4,26.8,23.2c0.7,2.7-1.6,3.7-3,5.2C883,263.5,874.4,271,867.1,279.8z"/>
	<path class="st7" d="M821.1,240.9c-3.1-1.2-4.7-4-6.9-6.2c-6.5-6.4-12.9-13.1-20.2-18.7c1.3-3.7,5.2-4.6,7.6-7.3
		c6.4-7.3,13.2-14.3,20.4-20.9c8.7,7.4,17.3,14.8,26,22.1c1.1,1.4,0.9,3-0.3,4.1C838.2,222.4,830.5,232.5,821.1,240.9z"/>
	<path class="st10" d="M867.1,279.8c0.1-2.8,2.1-4.4,3.8-6.2c7.5-8,15.8-15.1,22.9-23.5c9,8,18.1,16,27.1,23.9
		c-6,4.7-10.3,11-15.6,16.3c-3.7,4-6.2,9.3-11.5,11.8C885,294.7,876,287.3,867.1,279.8z"/>
	<path class="st11" d="M415,282.5c0,5.9-3.7,12.2-8.2,13c-4.5,0.8-8.6-0.3-12.3-4.1c-8.5-8.7-17.6-16.7-26.5-25
		c-4.2-3.9-5.6-14.5-2.7-19.2c2.5-4.1,11.2-5,14.7-1.5c9.8,9.5,19.5,19.1,29.4,28.5C412.2,276.7,416.1,278.4,415,282.5z"/>
	<path class="st12" d="M434.1,222c7.3,6.8,14.9,13.3,22,20.3c3.2,3.2-0.4,6.7-0.9,9.9c-0.9,6-6.9,7.5-11,10.5
		c-2.5,1.9-4.6-1.4-6.2-2.9c-13.3-12.1-27-23.9-39.4-36.9c-0.6-0.6-1.1-1.2-1.6-1.9c2-4,5.8-2.9,8.9-2.7c3.5,0.3,6.8,0.8,10.2-0.6
		c1.5-0.6,3.2-1,4.7,0.4c0.3,0.3,0.1,1.1,0.8,0.9C426.7,217.6,428.7,218,434.1,222z"/>
	<path class="st7" d="M776,200c-8.9-8.5-17.5-17.3-27-25c-0.8-1-0.4-2,0.4-2.6c8.4-6.5,14.8-14.8,21.6-22.7c1.1-1.3,2.1-2.7,4-2.7
		c9.2,6.7,17.3,14.8,26,22.1c0.6,1.8-0.7,2.9-1.7,3.8c-4.7,4.5-8.7,9.6-13.3,14.2C782.2,191,778.4,195,776,200z"/>
	<path class="st13" d="M434.1,222c-2.5,0.1-4.1-3.8-7.5-1.3c-1.6,1.2-1.2-3.6-3.5-3.2c-2.7,0.5,1,3.4-1.3,4.4
		c-1.2,0.6-2,0.4-1.7-1.1c0.4-1.6,0-3.3-1.7-2.4c-6.5,3.3-13.4,0.1-20,1.7c-0.6,0.1-1.1,0.7-1.6,1C384.6,209.1,372.3,197,360,185
		c-0.4-0.9,0.1-2,0.8-2.1c4.5-0.4,8.6-2.1,13.5-1.7c6,0.5,11.7,3.8,17.9,1.7C406.5,195.6,420.4,208.6,434.1,222z"/>
	<path class="st7" d="M738,165.9c-8.9-6-17.1-12.7-23.8-21.1c-1.1-1.4-2.6-1.9-4.3-1.9c7.7-9,15.6-17.8,23-27c2.5-3.1,4.1-3,6.7-0.6
		c7,6.3,14.1,12.6,21.1,18.9c0.7,2.5-1.3,3.6-2.7,4.8c-5.5,5.1-9.9,11.1-15.2,16.4C739.9,158.2,739.1,162.2,738,165.9z"/>
	<path class="st14" d="M596,322.9c-3.7-3.9-9.6-3.3-13.7-6.5c-0.2-0.2-1,0.1-1.3,0.4c-0.9,0.9-0.2,3.4-2.4,3.1
		c-2.8-0.3,0.1-3.1-1.1-3.4c-2-0.6-4.8-1.6-6.3,0c-3.9,4.1-8.1,2.6-12.4,1.5c10.2-10.5,20.1-21.2,30.6-31.4
		c5.1-4.9,12.1-3.3,17.7-1.2c4.6,1.8,6.7,6.6,7,12.1c0.3,5.4-1.2,9.5-5.4,13C604.2,314.4,600.9,319.5,596,322.9z"/>
	<path class="st15" d="M18.9,189.1c1.4-1.5,2.8-1.9,5.1-1.6c4.7,0.6,9.7,0.8,13.5-2.9c1.2-1.2,1.8-1.5,3.1-0.2
		c2.2,2.1,4.5,3.5,6.7,0c0.7-1.1,2-1.6,2.4,0.2c1,4.4,2.7,0.6,4.1,0.4c0.7,0.7,1.4,1.3,2,2c-0.7,2.4,1.4,1.3,2.3,1.8
		c9.8,9.1,19.5,18.4,28.6,28.2c-0.3,3.8-2.1,4.8-5.2,2.4c-1.2-0.9-2.2-1.1-3.6-0.9c-5.3,0.8-10.5-0.4-15.7-1.2
		c-4.4-0.7-7.5,2.4-11.5,2.7C40.2,209.9,29.2,199.9,18.9,189.1z"/>
	<path class="st16" d="M126.8,293.4c-10.2-9.8-20.5-19.6-30.7-29.4c-1-1-2.1-2-3.1-3c-0.5-2.5,1.3-4,2.5-5.6c1-1.4,3.5-1.5,3.7-0.1
		c0.6,4.4,2.4,1,3.6,0.8c1.5-0.2,3-1.2,4.3-0.5c4.3,2.2,8.7,1.3,13.1,0.7c3-0.4,5.5,0,8,1.6c10.1,9.4,20.1,19.1,29.6,29.1
		c-1.2,1.7-2.8,3.1-3.6,5.2c-0.9,2.3-2.8,2.9-4.4,0.5c-2.1-3.1-4.5-3.4-7.6-1.4c-1.4,0.9-3.3,1.2-4.8,0.3c-3.4-2.1-6.1-1.5-8.8,1.1
		C128.2,293.2,127.4,293.2,126.8,293.4z"/>
	<path class="st17" d="M392.2,182.9c-4,2.5-8,3.2-12-0.1c-2.5-2-3.7,0.5-5.2,2c-1.7-2-2.7-6.6-5.7-1.5c-0.7,1.2-2.1,0-3.2-0.2
		c-2.2-0.3-4.7-1-6.1,1.7c-7.9-7.6-15.7-15.3-23.7-22.8c-3.1-2.9-1-12.7,1.7-15.6c4.3-4.6,10.3-4.9,15-0.6
		C366.3,158.2,379.2,170.6,392.2,182.9z"/>
	<path class="st10" d="M776,200c-0.4-3.9,2.1-6.4,4.5-8.9c6.8-7.4,13.7-14.7,20.5-22c7,6.3,14.5,12,21,18.9
		c-2.8,4.6-6.4,8.4-10.4,11.9c-6,5.3-10,12.7-17.6,16.2C788,210.7,782,205.3,776,200z"/>
	<path class="st18" d="M47,157.8c-2.7-5.5-5.1-6.2-10.4-2.5c-1.5,1-2.2,1.6-3.6,0.3c-0.2-0.2-0.6-0.3-0.9-0.4
		c-1.6,3.9-5.5,0.8-7.1,1.9c-3.4,2.5-6.4,0.6-7.8-1c-2.5-2.7-4.1-1.7-6.4-0.6c-1.8,0.9-3.7,2.6-5.8,0.3c2.6-5,6.1-9.4,9.5-14
		c5.3-7.3,13.2-11,20.8-14.8c5.4-2.7,12-2.6,16.8,1.7c4.3,3.9,4.7,9.5,3.5,15.5C54.2,150,51.5,154.3,47,157.8z"/>
	<path class="st19" d="M126.8,293.4c3.1-3.9,6.3-6.7,11.3-2.6c1,0.8,3,0.5,4.2-0.7c3.7-3.7,6.1-1.3,8.4,1.7c0.4,0.6,0.2,1.8,1.5,1.5
		c1-0.2,1.1-0.9,1.1-1.9c0.1-2.8,2-4,4.5-4.4c11.8,11,23.2,22.3,34.3,33.9c-2.8,1.2-5,1-6.4-2.2c-1.5-3.2-4.1-2.6-6.5-1.2
		c-0.8,0.5-1.3,1.4-2.4,1.2c-6.1-1.1-6.1-1-14.3,2.2c-1.7,0.7-3.7-0.5-4.3-2.3c-0.6-1.7-1.1-3.4-3-3.3c-1.8,0.1-1.2,2.5-2.2,3.5
		C144.3,310.4,135.6,301.9,126.8,293.4z"/>
	<path class="st20" d="M316.9,217.2c-4.3-3.9-8.3-8.2-12.9-11.7c-2.9-2.2-5.5-4.1-7-7.6c-2.3-5.4-1.2-10.7,3.7-14.3
		c7.7-5.8,10-5.7,16.8,1c8.1,7.9,16.2,15.7,24.3,23.7c1.1,1.1,2.7,1.9,3.1,3.7c-2.5,3.5-6,4.2-10,3.4c-1.3-0.3-3-1.7-3.7-0.8
		C327,219.6,321.5,215.8,316.9,217.2z"/>
	<path class="st10" d="M821.1,240.9c5.3-6.9,11.4-13.1,17.4-19.5c3.3-3.5,9-5.4,9.5-11.4c6.3,5.6,12.7,11.3,19,16.9
		c-7.8,8.2-15.5,16.4-23.4,24.6c-1.5,1.6-2.9,3.8-5.6,3.5C832.4,250.3,826.7,245.6,821.1,240.9z"/>
	<path class="st21" d="M79.9,97c0.6-6,4.9-10.2,8.8-13.6c3.5-3.1,7.3-6.3,11.7-8.6c7.8-4,15.3-3.5,23-0.5c5.2,2,6.7,14.8,1.7,18.4
		c-2.1,1.6-2,5-5.1,5.2c-1.8-1.1-3.2,0.2-4.7,0.8c-2.1,0.9-4.4,1.2-6.2-0.2c-2.8-2.2-5.7-2-8.9-1.9c-2.8,0.1-5.7,0.2-8.4-0.6
		c-2-0.6-3.6-0.3-4.9,1.3C84.4,100.4,82.1,99.4,79.9,97z"/>
	<path class="st22" d="M504,58.1c0.7-1.6,2-2.1,3.6-2.1c6.9,0.2,13.8,0.2,20.6,0.5c7.5,0.3,15.1-0.2,22.7-0.7c1.1-0.1,1.7-1,2.1-1.9
		c5.4,4.4,10.8,8.9,16.3,13.1c1.4,1.1,1.8,2.7,2.8,3.9c-6.9,2.9-14.3,2.2-21.5,2.2c-9.2,0-18.5-0.2-27.7,0.6
		c-5.7-0.4-8.6-5.2-12.4-8.3C508.1,63.5,504.5,62,504,58.1z"/>
	<path class="st23" d="M128.3,257.9c-2.9-0.8-5.8-0.4-8.7-0.3c-4.1,0-8.3,2.5-12.6-0.9c-1.4-1.2-5,0.6-7.1,2.4
		c-0.6,0.5-1.1,2-2.3,0.7c-0.7-0.7-0.2-1.5,0.4-2.2c0.6-0.6,2.2-1,0.7-2.1c-1.1-0.9-2-0.4-2.7,0.9c-0.8,1.6-2,3-3,4.5
		c-8-7.9-16.1-15.8-24.1-23.6c-0.8-3,0.7-3.5,2.8-2.1c1.8,1.2,3.3,1.3,5,0.2c0.4-0.3,1-0.5,1.4-0.4c8.5,2.4,16.7-1,25.1-1.5
		c0.3,0,0.6,0.2,0.9,0.5C112.4,241.6,120.5,249.6,128.3,257.9z"/>
	<path class="st24" d="M501,165c-4.2,5.7-7.3,2.7-10.7-1.1c-2-2.3-4.8-4-7.3-5.9c-4-1-6.9-3.7-9.5-6.5c-2.3-2.4-4.6-4.6-7-6.8
		c-4.4-3.6-8.7-7.5-13.1-11.2c-2.5-2.4-4.8-5-7.5-7.2c-1.1-0.9-2.6-1.6-1.9-3.6c2.2-1,3.7,0.4,5.3,1.5c4.8,5,10,9.6,15.3,14.1
		c4.7,3.6,9,7.7,13.1,12.1c5.5,4.3,11.1,8.4,16.1,13.3c1.5,1.4,2.6,1.7,4,0c3.8-4.4,8.5-7.9,12.1-12.4c4-4.7,8.8-8.7,12.4-13.8
		c4.8-4.3,8.2-9.8,13-14.1c5.4-4.7,8.9-11,14-16c0.7-0.7,1.5-1.4,2.4-1.8c2.4-0.9,2.6-2.1,0.9-4c-1.2-1.4-1.6-2.9,0.3-4.2
		c3.4-1.5,7-1.1,10.4-0.7c11.8,1.2,23.6,0.4,35.5,0.8c2.2,0.1,5.2-0.8,6.1,2.6c-2.6,4.6-6.5,8.1-10,12c-13.5,0.2-27,1.6-40.5,0.4
		c-2.9-0.3-5.1,0.6-6.9,2.9c-2,2.6-4,5.3-6.3,7.6c-4.5,4.2-8.9,8.5-12.6,13.5c-5,4.7-9,10.5-14.1,15.2
		C510.5,156.5,506.1,161.2,501,165z"/>
	<path class="st25" d="M389.9,119c-2.8-2.8-4.7-5.2-0.2-8.7c3.4-2.6,4.7-7.6,9.2-9.4c1.6-1,3.4-1.5,5.2-1.4c9.5,0.7,18.9,0,28.4,0
		c1.7,0,3.3,0.1,4.8,1.1c1.7,1.5,1,3.1-0.2,4.2c-3.9,3.5-2.6,6.4,0.5,9.6c1.1,1.1,3,2.6,0.4,4.3c-8,3-16.4,0.8-24.6,1.5
		c-5.4,0.4-10.9-0.1-16.3,0.2C394.6,120.5,392.1,120.4,389.9,119z"/>
	<path class="st26" d="M605.1,100.1c-1.4-1.7-3.4-1-5.1-1.1c-8.5-0.1-17,0.1-25.5-0.1c-5.6-0.1-11.2-0.5-16.8-0.9
		c-2-0.1-4-0.1-5.8,1c-2.1,1.2-3.2-0.6-4.5-1.5c-3-2.9-6.5-5.3-9.3-8.4c-1.1-1.2-3.2-2.3-1.7-4.6c6.5-2.4,13.2-0.6,19.8-0.9
		c10-0.6,20,0.1,29.9-0.8c6.2,4.7,12.3,9.4,18.7,13.9C606.6,98.1,607.4,98.7,605.1,100.1z"/>
	<path class="st27" d="M389.9,119c10.5-0.8,21.1-0.2,31.6-0.5c5.8-0.2,11.7-0.5,17.5-0.5c2.5,0.9,4.2,2.5,5,5c3.3,3.4,7.4,5.9,10,10
		c-0.9,2-2.7,2.4-4.5,2.4c-13.8,0.2-27.7,0.3-41.5-0.3C402.4,129.2,395.2,125.2,389.9,119z"/>
	<path class="st28" d="M467,144c5.7,4.3,10,10.1,16,14c-4.5,2.9-9.7,1.6-14.3,1.7c-9.6,0.2-19.3,0.8-28.9-0.5
		c-1.9-0.3-3.9,0.5-5.8,0.8c-5.2-5.2-11.4-9.2-16-15c2-2,4.6-1.4,7.1-1.6c11.1-0.7,22.2,0.1,33.3,0C461.1,143.5,464.2,142.3,467,144
		z"/>
	<path class="st12" d="M104,234c-4.2,1.5-8.8,1.3-12.9,2.6c-3.5,1.1-6.5,2.1-9.8-0.4c-0.7-0.6-2.6-0.6-3.3,0c-2.8,2.3-5,2.7-7.6-0.5
		c-0.7-0.9-1.3,0.8-1.6,1.7c-6.3-5.4-12.2-11.2-17.9-17.2c4.2-2.7,8-4.4,13.8-3.4c4.4,0.7,9.6,2.9,14.4,0.5c0.8-0.4,1.4-0.8,2,0.3
		c2.2,3.7,4,2.1,5.7-0.4C92.9,222.4,98.7,228,104,234z"/>
	<path class="st10" d="M738,165.9c-1.6-4.7,1-8.1,3.8-11.2c6.2-7,12.6-13.8,19-20.7c4.9,4,9.9,8,14.2,12.8
		c-6.4,7.3-12.6,14.8-19.3,21.9c-2.1,2.3-5.7,2.9-6.8,6.2C744.1,173.4,742.7,167.7,738,165.9z"/>
	<path class="st29" d="M514,151c4.8-4.8,8.5-10.8,14-15c8.9-1.3,17.8-0.3,26.7-0.6c4.6-0.1,9.2-0.1,13.9,0c2,0,4-0.1,5.5,1.6
		c-4.9,5.1-9.8,10.3-14,16c-1.2,0.7-2.4,0.9-3.8,0.9c-12-0.7-24.1-0.1-36.1-0.4C517.9,153.5,515.1,154.2,514,151z"/>
	<path class="st30" d="M586,82.9c-3.3,3.9-7.8,1.8-11.7,1.9c-11.1,0.5-22.1,0.1-33.2,0.2c-1.7,0-3.7-0.7-5.1,1c-1.1,0.5-2,0-2.7-0.7
		c-3.4-3.1-6.6-6.4-10.2-9.3c-0.9-0.7-1.6-1.7-1.2-3c3.4-1,6.7-1.9,10.6-1.3c3.4,0.6,7,1.1,10.7-0.5c3.4-1.5,7.1,1,10.8,0.7
		c6.1-0.5,12.1-0.7,18.2-1C576.8,74.9,582,78.2,586,82.9z"/>
	<path class="st27" d="M574.1,137c-13.6,0-27.3,0-40.9-0.1c-1.7,0-3.7,0.7-5.2-1c3.1-5.2,7.4-9.2,12-13c6.1-3,12.4,0.3,18.6-0.6
		c6-0.9,12.2,0.8,18.3-0.4c2.7-0.5,5.6-0.1,7.9,2.1C582.7,129.5,578.5,133.3,574.1,137z"/>
	<path class="st31" d="M439.9,57c7.2,0.2,14.4,0,21.6,0.9c3.9,0.5,7.8-1.5,11.9-0.9c1.6,0.2,3.4-0.5,4.6,1.1
		c0.8,3.1-1.9,4.4-3.5,6.1c-3.6,4-6.6,8.7-12,10.7c-9.3-0.3-18.5-0.7-27.8,0.3c-3.1,0.3-6.3,0.1-8.9-2.1
		C430,67.2,434.1,61.4,439.9,57z"/>
	<path class="st32" d="M514,151c1.5,1.6,3.4,1,5.1,1c9.2,0.1,18.5,0.1,27.7,0c4.5,0,8.9,0,13.2,1.1c-4.1,4.6-8.3,9.1-13.1,13.1
		c-1.4-1.7-3.4-1.1-5.1-1.1c-13.6-0.1-27.3,0-40.9,0C504.5,159.6,509.8,155.8,514,151z"/>
	<path class="st26" d="M438.1,102c-5.6-2.4-11.5-1.1-17.1-0.8c-7.4,0.4-14.8-0.9-22.1-0.3c3.5-5.7,8.9-9.8,13-15
		c2.3-1.5,4.9-1,7.3-0.8c9.1,0.6,18.1-1.1,27.2-0.1c1.7,0.2,3.3,0.4,4.8,1.1c1.6,0.9,1.3,2.3,0.3,3.3c-3.8,4-7.2,8.2-11,12.1
		C439.8,102.1,439,102.3,438.1,102z"/>
	<path class="st33" d="M584.8,124c-10.5-1-21.1-0.1-31.6-0.1c-4.4,0-8.8-0.6-13.2-0.9c2.5-3.3,5-6.5,7.5-9.8
		c1.3-1.8,3.1-2.4,5.2-2.1c12.6,1.6,25.2-0.3,37.7,0c1.6,0,3.4-0.5,4.6,1.1C591.6,116.1,588.2,120,584.8,124z"/>
	<path class="st29" d="M467,144c-9.1,1.4-18.3,0.6-27.5,0.4c-7.1-0.1-14.4,0.3-21.6,0.6c-3.6-3-6.9-6.3-9.9-9.9
		c4.8-2.1,9.9-1.2,14.9-1.3c9.4-0.1,18.9,0.1,28.3,0.1c0.9,0,1.9-0.6,2.8-0.9C458.7,136.2,462.8,140.2,467,144z"/>
	<path class="st30" d="M452.1,87c-7.8-0.6-15.4-1.4-23.3-0.2c-5.5,0.8-11.2-0.5-16.9-0.8c3.3-5.2,9.4-7.5,12.6-12.9
		c0.1-0.2,0.9-0.1,1.4-0.1c9.9,1.4,19.9-0.6,29.9,0c2.8,0.2,5.6,0.2,8.2,1.1c0.6,2-0.9,3.2-2.1,4.2C458.5,81,456.4,85.2,452.1,87z"
		/>
	<path class="st34" d="M79.9,97c2.5,0.7,5.1,2.5,6.8-1.5c0.5-1.2,2.8-2.1,4-1.3c2.8,1.9,5.9,1,8.6,1.1c4.1,0.1,7.9-0.7,11.4,2.6
		c2,1.8,4.3-0.4,6.4-1.4c1.6-0.7,3.2-1.9,3,1.3c-6.3,5.4-12,11.5-20.6,13.5c-4.6,1-9.3,1.1-13.7,0.4C80.2,110.8,77.4,102.7,79.9,97z
		"/>
	<path class="st35" d="M316.9,217.2c0.8-1.7,2.7-1.6,3.9-1.6c3.5,0,7.3,1.8,10-2.2c0.4-0.6,1.5-1.5,2.6-0.5
		c4.2,4.3,7.7,0.2,11.5-0.9c4.5,4.4,4.5,10.4-0.2,14.8c-1.5,1.4-1.8,3.8-4.3,4.5c-4.1,1.2-7.7,2.5-11.2-1.8
		C325.5,225.1,321,221.3,316.9,217.2z"/>
	<path class="st36" d="M893.9,302.1c3.7-4,7.4-8.1,11.1-12.1c0.3-0.4,0.7-0.4,1,0c-0.8,4-5,5.5-6.7,8.9c-1.3,2.5-4.1,4.1-5.1,7.1
		c-0.5,1.6-2.3,2.2-4.2,2C890.2,305.3,894.2,305.2,893.9,302.1z"/>
	<path class="st37" d="M906,290c-0.3,0-0.7,0-1,0c3.6-4.8,7.5-9.3,11.9-13.4c1.2-1.1,2.1-2.6,4.1-2.6
		C916.3,279.6,911.9,285.5,906,290z"/>
	<path class="st3" d="M58.3,188.9c-1.6,0.4-2.6,2.8-4.8,1.6c-0.1-1.9,2.3-2,2.5-3.5C57.3,187,57.7,188,58.3,188.9z"/>
	<path class="st38" d="M736,189c5.2,2.2,8.7,6.7,13,10c-4.9,0.5-6-4.9-9.7-6.4C737.9,192,737.1,190.2,736,189z"/>
	<path class="st39" d="M705,161c2.8,1.9,5.1,4.2,7,7C708.6,166.8,706.1,164.5,705,161z"/>
	<path class="st40" d="M721,176c3,0.5,4.4,2.8,6,5C724,180.5,722.6,178.1,721,176z"/>
	<path class="st41" d="M751,202c3,0.5,4.4,2.8,6,5C754,206.5,752.6,204.1,751,202z"/>
	<path class="st42" d="M713,169c2.6,0,3.9,1.4,4,4C715.3,172,714,170.7,713,169z"/>
	<path class="st43" d="M452.1,87c4-4.3,7.9-8.7,11.9-13c4.4-5.6,10.3-9.8,14-15.9c3.8-1.8,5.8-5.6,9.2-8.1c3.3-2.5,5.4-1.8,7.7,0.5
		c2.8,2.9,6,5.1,9.1,7.6c5.9,5.1,11.2,10.9,17.9,15c4.7,4.3,9.4,8.7,14.1,13c4,3.7,8,7.3,12,11c-2.8,1.4-4.2-1-6-2.3
		c-1.6-1.2-3.1-2.5-4.5-3.9c-5.9-4.8-11.1-10.4-17.2-15.1c-8.5-6.7-16.4-14.1-24.8-21c-4.9-4.1-5.5-4.4-9.8-0.1
		c-6.8,6.8-13.4,13.9-19.8,21.1c-4.3,5.3-9.7,9.6-13.7,15.3c-4.4,3.9-7.7,8.7-11.8,12.8c-2.3,2.3-1.5,3.3,1.3,3.7
		c0.8,0.1,1.7,0.3,2.5,0.2c11-1.9,22.2,0,33.2-1.1c0.6,3.8,3.3,5.9,6,8.2c2.6,2.3,6.6,4.1,5.3,8.9c-0.9,1.1-2.2,1.6-3.5,1.6
		c-12.1,0-24.2,1-36.3-0.1c-1.6-0.8-3-2-4.9-2.1c-1.7-1.7-3.4-3.4-5-5c-0.2-0.3-0.3-0.6-0.5-0.9c-6.6-7.3-6.6-7.3-0.3-15.1
		C442.8,97,447.5,92,452.1,87z"/>
	<path class="st44" d="M478,107c-3.6,2.2-7.8,1.4-11.5,1.1c-9.1-0.8-18,1.6-27,0.2c-3.8-0.6-3.8-1.8-1.2-4.1
		c5-4.3,8.1-10.5,13.7-14.2c16.6-0.1,33.1-0.4,49.7-0.2c9.9,0.1,19.9-0.3,29.9-0.3c2.2,0,4.3,0,6.4,0.5c3.6,2,5.7,6,10,7
		c1.4,0.5,2.2,2.1,3.8,2.1c0.2,0.3,0.3,0.6,0.5,0.8c2.7,2.7,6.8,5.5-0.8,7c-0.6,0.1-1.1,0.7-1.6,1.1c-1.7,1.1-3.6,1.6-5.6,1.5
		c-12.5-0.3-25.1,0.3-37.6-0.1c-2.9-0.3-5.3-1.8-7.3-3.8c-1-0.9-1.9-1.9-2.9-2.7c-7-6.2-7.5-6.2-13.8,0.5
		C481.4,104.8,480.8,107.4,478,107z"/>
	<path class="st45" d="M448.9,125.1c3.8-2.1,8-0.7,11.9-1c7.6-0.5,15.3-0.1,23-0.1c2,0,4.1,0.4,5.2-2c2.5-0.9,5.1-1.5,7.8-1.1
		c6.3,3.2,13,0.7,19.5,1.2c6.6,0.6,13.5-1.4,19.8,1.8c-4.6,4.4-7.8,10.1-13,14c-1.5,0.8-3,1.4-4.7,1.4c-11-0.1-22,0.3-33-0.4
		c-7.1-0.4-14.3,0.1-21.4,0C458.6,134.8,453.2,130.6,448.9,125.1z"/>
	<path class="st43" d="M536.1,124c-11.4-0.6-22.7-0.4-34.1-0.1c-2.4,0.1-5.1,0.3-6-2.9c-1-2.5,0.9-4,2.3-5.4c2.4-2.4,4.6-5,6.7-7.6
		c15,0,30,0,45,0C545.4,113.4,541.9,119.7,536.1,124z"/>
	<path class="st46" d="M463.9,139.1c3-4.3,7.2-1.3,10.6-1.4c16.2-0.3,32.4,0.1,48.5,0.3c-3,5.5-8.4,9-12.1,13.9
		c-9.9-0.1-19.8-0.6-29.6-0.2c-1.5,0.1-2.9-0.7-4.4-0.7C472.6,147.1,468.3,143.1,463.9,139.1z"/>
	<path class="st47" d="M477,151.1c2.6-1.6,5.6-0.8,8.3-0.8c6.9,0,13.8,0.5,20.7-0.1c2-0.2,3.4,1.2,5,1.8c-4.6,4.7-9.3,9.2-13.6,14
		c-1.1,1.2-1.3,1.6-2.4,0.4C489.5,160.7,482.8,156.4,477,151.1z"/>
	<path class="st48" d="M538,90c-0.8,1.1-2,1-3.2,1c-10.6,0.5-21.2,0.2-31.8,0.5c-8.1,0.2-16.5-0.7-24.6-0.1
		c-7.6,0.6-15.1-1.6-22.6,0.1c-1.7,0.4-2.9-0.3-3.9-1.6c3.2-6,9.1-9.6,13-15c7.3-1.2,14.8-0.4,22.1-0.7c9.5-0.4,19.1,1.6,28.6-0.4
		c1.8-0.4,3.6,0.1,5.2,1.1C527.3,79.3,532.4,84.9,538,90z"/>
	<path class="st49" d="M521,75c-9.8,1.9-19.6,1.4-29.4,0.9c-8.9-0.5-17.8,1.6-26.5-0.9c7.8-8,14.6-17,23.3-24c2.1-1.7,3.4-1.4,5.1,0
		C502.6,59,511.8,67,521,75z"/>
	<path class="st5" d="M505,108c0.5,2.3-1.1,3.6-2.5,5.1c-2.4,2.5-5.3,4.6-6.5,8c-2.1,2-4.5,2-7,1c-2.8-4.3-7.1-6.9-10.8-10.2
		c-2-1.7-1.9-3.1-0.3-4.9c2.6-2.8,5.3-5.4,7.7-8.3c2.3-2.8,4.2-2.7,7-0.6C497,101.2,500.1,105.8,505,108z"/>
</g>
</svg>
