<?xml version="1.0" encoding="utf-8"?>
<!-- Generator: Adobe Illustrator 21.0.0, SVG Export Plug-In . SVG Version: 6.00 Build 0)  -->
<svg version="1.1" id="Layer_1" xmlns="http://www.w3.org/2000/svg" xmlns:xlink="http://www.w3.org/1999/xlink" x="0px" y="0px"
	 viewBox="0 0 1181 350" style="enable-background:new 0 0 1181 350;" xml:space="preserve">
<style type="text/css">
	.st0{fill:#8E8E8E;}
	.st1{fill:#BFBFBF;}
	.st2{fill:#4BBD7D;}
	.st3{fill:#252525;}
	.st4{fill:#242424;}
	.st5{fill:#8F8F8F;}
	.st6{fill:#333333;}
	.st7{fill:#909090;}
	.st8{fill:#202020;}
	.st9{fill:#B1B1B1;}
	.st10{fill:#AFBDAE;}
	.st11{fill:#BABABA;}
	.st12{fill:#B6B6B6;}
	.st13{fill:#B1B5B1;}
	.st14{fill:#B7B7B7;}
	.st15{fill:#B9B9B9;}
	.st16{fill:#B2B2B2;}
	.st17{fill:#B4B4B4;}
	.st18{fill:#B5B5B5;}
	.st19{fill:#ACBDAC;}
	.st20{fill:#B8B8B8;}
	.st21{fill:#AEAEAE;}
	.st22{fill:#ACACAC;}
	.st23{fill:#B4C6B4;}
	.st24{fill:#AFAFAF;}
	.st25{fill:#ABABAB;}
	.st26{fill:#1F1F1F;}
</style>
<g>
	<path class="st0" d="M1,319c0-28,0-56,0-84c3.9-6.4,10.2-10.4,15.6-15.3c13.7-12.6,27.4-25.3,40.8-38.2c1.9-1.8,2.1-3.4,0.7-5.6
		c-1.6-2.4-3-4.8-5.1-6.8c-16.2-15.6-31-32.5-46.8-48.5c-2-2-3.7-4.3-5.2-6.7c0-24,0-48,0-72c1.7-1.3,2.9,0,3.8,1.2
		c6,8.3,14.3,14.4,21.1,21.9c10,10.9,20.3,21.5,30.3,32.5C66.7,109.1,77.8,120.1,88,132c12.7,14.8,27.1,27.9,39.6,42.8
		c3.9,4.6,7.7,9,13.1,12c3.1,1.7,3.1,4.2,0.1,6.9c-5.2,4.6-10.3,9.5-15.7,13.9c-11.8,9.4-21.7,20.6-32.8,30.7
		c-17.1,15.6-34.2,31.1-51.3,46.8c-11.3,10.4-22.9,20.4-33.9,31.1C5.5,317.6,4.2,320.5,1,319z"/>
	<path class="st1" d="M1,319c5.3-2.2,8.2-7.1,12.3-10.7c14.4-12.7,28.8-25.5,42.9-38.6c20.7-19.3,42-38.1,62.1-58.2
		c6.7-6.8,14.4-12.7,21.7-18.9c2-1.7,3.5-3.7,0.3-4.9c-7.6-2.8-11.1-9.8-16.1-15.1c-7.9-8.3-15.8-16.7-23.6-25.2
		c-11.7-12.7-23.3-25.4-34.9-38.1c-7.4-8-14.7-16.1-22.2-24.1C37.3,78.7,31.1,72,24.7,65.6C17.3,58,8.8,51.5,2.8,42.6
		C2.5,42.2,1.6,42.2,1,42C1,29.7,1,17.3,1,5c5.4,7.4,13.1,12.7,18.3,20.4c4,5.9,10,10.2,14.4,16c2.2,3,4.9,5.6,7.4,8.4
		c1.2,1.3,2.6,2.3,4,3.3c0.3,0.6,0.6,1.2,1,1.7c1.8,1.6,3.7,3.2,5,5.2c1,1,2,2,3,2.9c1.2,1.9,2.7,3.5,4.4,5c1.4,0,3,0.2,3.2,1.7
		c0.6,4.5,4.2,6.2,7.3,8.4c-0.4,1.8,1.2,2.2,2.2,2.9l0,0c0.8,1.5,2,2.7,3,4.1c1,1,2,2,3,3c1.2,0.8,2.2,1.8,3,3c2,2.6,4.4,5,7,7
		c1.1,1.9,2.8,3.3,4.1,5l0-0.1c2.4,3.9,6.5,6.4,9,10.1c1.3,3.2,5.5,2.8,7.2,6.1c0.5,0.9,1.1,3.1,2.7,3.9c1.9,2.4,3.8,4.9,6.1,6.9
		l-0.1,0c1.6,1.5,2.6,3.4,3.9,5.1c1.4,2,3.1,3.7,5.1,5.1c0.7,1.3,1.7,2.2,3,2.9c1,1.3,2,2.5,3,3.8c1.1,1,2.2,2,3.1,3.2l0,0
		c1.2,2.1,2.8,3.8,4.9,5.1c1.8,0.9,3,2.3,4,4c0.3,2.1,1.9,3.5,3.3,4.8c5.3,5,10.1,10.5,14.8,16.1l-0.1-0.1c1.7,1.6,3.1,3.5,4.8,5
		c1.3,1.5,2.5,3,3.9,4.4c1.5,1.5,2,3,0.5,4.7c-1,1.7-2.8,2.9-3.1,5c-3.6,2-5,6.4-9.1,7.9c-4,2.1-6.4,6.3-10.5,8.2
		c-0.7,1.3-2,2.3-2.5,3.8c-3.6,2.4-5.6,6.6-9.9,8.3c-4.3,2.3-6.4,6.9-10.1,9.8c-4.4,4.6-8.8,9.1-13.2,13.7c-2.9,2.9-5.8,5.7-8.7,8.5
		c-1.5-0.6-2.2,0.8-3.2,1.4c-3.4,3-6.9,6.1-9.6,9.7c-0.7,0.6-1.5,1.2-2.2,1.8c-3,1.6-5.5,3.8-7,7c-1,0.7-2,1.3-3,2
		c-5.4,3.2-9.2,8.1-13.9,12.1c-0.4,0.6-0.8,1.3-1.3,1.9c-1.7,0.8-3.2,2-4.6,3.3c-1.1,1.1-2.1,2.2-3.3,3.2c-3.4,3.1-6.9,6.2-10.5,9.1
		c-3.2,3.7-7.2,6.7-10.4,10.4c-6.1,5.6-11.7,11.6-18.2,16.9c-4.9,4-9.9,8.1-13.8,13.2c-2.2-0.1-0.9-1.7-0.9-2.5
		C1,338.7,1,328.8,1,319z"/>
	<path class="st2" d="M593,1c-4.7,6.4-11.6,10.5-17.4,15.7c-6,5.4-12.2,10.5-18.4,15.6c-16.1,13.4-31,28.2-47.2,41.5
		c-8.8,7.3-17.1,15.3-25.9,22.7c-10.6,8.8-20.8,18.3-31.8,26.5c-7.9,5.9-15.1,12.4-22,19.3c-9.5,9.4-20.1,17.5-30.8,25.4
		c-1.4,1.1-2.5,2.2-3.1,3.6c-2.6,7-8,10.2-15,10.6c-7.6,0.4-14.5-1.6-18.9-8.8c-3.6-6-1.5-15.8,3.9-20.4
		c6.9-5.8,13.7-11.6,20.4-17.6c6.3-5.7,13.2-10.9,19.4-16.8c8.2-7.7,16.7-15.2,25.2-22.5c16.1-13.8,32.2-27.5,48.1-41.6
		c15.2-13.4,30.4-26.7,45.2-40.5C529.4,9.4,535,6.1,539,1C557,1,575,1,593,1z"/>
	<path class="st3" d="M429,1c-5.1,4.6-10.1,9.2-15.3,13.7c-15,13.3-30.1,26.5-44.9,40.1c-6.8,6.2-13.7,12.4-20.6,18.5
		c-6.5,5.8-13.1,11.6-19.7,17.2c-8.7,7.4-16.8,15.4-25.6,22.7c-3.6,3-7,7-12.6,6.7c-1.2-0.1-2.3-0.1-3.1-1.2
		c-5.3-7.1-12.4-12.4-18.4-18.8c-3.6-3.8-6.7-8.2-10.3-12c-6.6-6.8-12.3-14.6-19.5-20.7c-3.8-3.2-6.4-7.2-9.8-10.6
		c-7.7-7.8-15.1-15.8-22.5-23.8c-0.1-1.5-1.9-2.3-1.8-4c0.1-1.2,0.4-2.3,1.5-3c0.9-0.6,2.1-0.8,2.7,0c4,5.1,8.9,1.3,13.3,1.3
		c0.7,0,1.8-1.1,2.3-0.7c6,5.3,13.2-1.4,19.4,2.1c0.7,0.4,1.7,0.5,2.4,0.2c6.2-2.7,12.4-1.3,18.5,0.2c2.8,0.7,5.6,0.8,8.3-0.2
		c1.1-0.4,2.4-0.9,3.4-0.3c6,4.1,11.6,0.4,17.5-0.5c3.2-0.5,6.6-0.8,9.6,1.3c1.1,0.8,2.6,1.9,3.6,1c5.6-5.1,11.8-1.2,17.7-1.5
		c1.6-0.1,2.9-0.6,4.1-1.5c2.7-1.9,5.2-1.6,6.7,1.3c1.3,2.4,2.6,2.5,4.8,1.5c6.2-3,12.4-4.1,19.3-1.8c2.9,1,6.2,0.9,9.4,0.1
		c2.8-0.7,4.9,0.1,6,2.9c0.1,2.6-1.8,3.8-3.4,5.2c-13.4,11.5-26,23.8-39.6,35c-11.9,9.9-23.1,20.5-35,30.5c-1.9,1.6-3.8,3.2-5.1,5.5
		c4.8-2.5,9.1-5.9,13.1-9.5c20.6-18.4,41.9-35.9,62.2-54.7c14.6-13.6,29.5-26.9,44.6-39.9c1.5-1.3,3.2-1.7,4.8-2.5
		C421,1,425,1,429,1z"/>
	<path class="st2" d="M1182,2c-8.4,5.8-16,12.3-22.9,20.1c-6.1,6.9-13,13.3-20.6,18.6c-12.3,8.6-22.4,19.6-33.9,29
		c-10,8.2-19.5,16.9-29.2,25.5c-4.8,4.3-8.6,9.7-13.7,13.4c-9.7,7-17.3,16.3-26.5,23.8c-5.3,4.3-10.6,3.7-16.3,1.2
		c-5.6-2.4-9-6.5-9.9-12.5c-0.7-4.5,1.1-9,0.1-13.6c-0.1-0.6,0.5-1.6,1.1-2.1c8.3-6.6,14.8-15,23.3-21.3c11.8-9,22.9-18.7,33.3-29.3
		c7.9-8,17.6-13.8,25.8-21.5c6.6-6.2,14.5-11.1,20.7-17.9c2.6-2.8,6-5.1,9.3-7.2c3-1.9,5.3-4.4,7.4-7.2c16.3,0,32.7,0,49,0.1
		C1180,1.1,1181.6-0.1,1182,2z"/>
	<path class="st4" d="M375,32c-1.4-2.4-2.7-3.2-6-2c-3,1.1-7.1,0.9-10.1-0.4c-6.7-2.9-12.4-0.3-18.3,2c-2.2,0.8-5.1,4-5.2-2.1
		c0-2.4-3.1-3.7-5.2-1.1c-2,2.4-4.2,2.3-6.6,1.5c-2.1-0.8-4.1-1-6.2,0.3c-2.9,1.8-3.3-0.5-3.9-2.9c-1.7,1.9-3,3.8-5.3,4.6
		c-1.6,0.6-3,0.6-4.1-0.5c-3.6-3.3-7.3-1.7-11.4-1.3c-4.9,0.4-10.2,5.2-15.1-0.1c-0.7-0.8-1.7-1-2.7-0.5c-5.6,3-11,0.6-16.3-0.9
		c-1.3-0.3-2.6-1-3.8-0.5c-5.8,2.3-11.6,1.8-17.5,0.7c-0.8-0.1-2-0.6-2.2-0.3c-0.8,0.9,0.8,3.6-1.7,3.1c-2.3-0.4-4.5-1.8-6.7-2.9
		c-0.7-0.3-1.5-1.8-1.8-1.3c-3.2,5.1-9.1-0.9-12.6,3.2c-0.7,0.8-3.2,0.9-2.6-1.8c0.4-1.7-0.3-2.8-2.1-2.3c-1.5,0.4-1.6,1.9-1.3,3.4
		c0.2,1.1,2.7,1.6,0.7,3.2c-9.7-10.7-19.8-20.9-28.9-32c55.3,0,110.7,0,166,0c1,0.6,1.7,1.5,2.3,2.5c1.7,3.3,3.5,6.7,7.9,6.5
		c5.1-0.2,9-2.3,10.7-7.4c0.2-0.6,0.7-1.1,1.1-1.6c14.7,0,29.3,0,44,0c0.6,1.3-0.2,2.4-1,3c-4.5,3.6-7.8,8.4-12.8,11.6
		c-6.2,4-11,10-17,14.4C378,31,377,32.6,375,32z"/>
	<path class="st2" d="M993,1c-5.6,5.1-11.1,10.3-16.8,15.2c-8.2,7.1-16.3,14.4-25,20.9c-8.5,6.3-16.7,13.2-24.9,19.8
		c-6.2,5-13.4,9.5-17.7,16.8c-3.7,6.3-10,4.9-15.2,4.1c-5.8-0.9-11.8-3.1-13.3-10.3c-0.8-4,1.9-7.7,1.6-11.5
		c-0.4-5.2,3.5-6.4,6.4-8.7c10-7.6,19.9-15.3,29.9-22.9C927.7,17.2,936.1,8.8,945,1C961,1,977,1,993,1z"/>
	<path class="st1" d="M1,114c4.2,2.7,7.2,6.8,10.5,10.3c13.5,14.2,26.6,28.8,40.7,42.4c3.1,3,5.5,6.6,7.9,10.1
		c1.1,1.6,1.2,2.9-0.4,4.4C40.3,199.3,21.3,217.8,1,235c0-10,0-20,0-30c4.8-6.2,11-11.1,16.6-16.5c2.7-2.6,5.4-5.5,8.4-7.8
		c3.1-2.3,3.2-4.5,0.3-7.3c-7.4-7.2-13.9-15.2-21.4-22.3c-1.6-1.5-2.9-3.2-3.9-5.1C1,135.3,1,124.7,1,114z"/>
	<path class="st5" d="M1,146c10.1,8.8,18.7,19.2,28.1,28.7c1.4,1.4,2,2.9,0.1,4.6c-9.6,8.3-17.9,18-28.1,25.7C1,185.3,1,165.7,1,146
		z"/>
	<path class="st6" d="M375,32c6.2-5.4,12.2-11.2,18.8-16.1c6-4.4,11.2-9.5,16.2-14.9c2.3,0,4.7,0,7,0
		c-11.4,10.4-23.2,20.3-34.5,30.8c-14.3,13.3-29.2,26.1-43.8,39c-10.6,9.3-21.1,18.6-31.8,27.7c-4.1,3.5-8.6,6.7-12.9,10.1
		c-1.4,1.1-2.9,1.6-3.9,0.2c-1.1-1.5,0.8-2.3,1.6-3c12.3-10.6,24.1-21.8,36.6-32.1c10.2-8.5,20-17.4,29.8-26.4
		C363.7,42.2,370,37.8,375,32z"/>
	<path class="st7" d="M861,1c-4.8,4.3-8.5,10-15.9,10.4c-1.9,0.1-3.1,0.3-4-1.5c-1.7-3.5-4.6-6-7-8.9C843,1,852,1,861,1z"/>
	<path class="st6" d="M366,1c-0.4,5.9-3.4,9-9.5,10c-5.4,0.9-8.9-1.1-11.1-6.3c-0.5-1.2-0.9-2.5-1.4-3.7c1.7,0,3.3,0,5,0
		c5.2,6.1,6.9,6.1,14,0C364,1,365,1,366,1z"/>
	<path class="st8" d="M363,1c-1.1,4.5-4.7,6-8.6,5.8c-3-0.1-5.6-2-5.4-5.8C353.7,1,358.3,1,363,1z"/>
	<path class="st9" d="M161.1,180c-5.9-6.1-11.9-12.2-17.7-18.4c-0.5-0.6-1.4-1.6-0.4-2.6c5.1,6.2,11.6,11.1,16.2,17.7
		C160,177.7,161.1,178.5,161.1,180z"/>
	<path class="st10" d="M64.1,293.1c3.3-5.2,8.3-8.8,12.8-12.7c0.1-0.1,0.8,0.4,1.1,0.7C73.9,285.6,69.3,289.7,64.1,293.1z"/>
	<path class="st11" d="M34,320.9c-0.3-0.8-0.9-1.7,0-2.2c4-2.2,6.2-6.3,10-8.7c0.4,0.2,0.8,0.5,0.9,1
		C41.8,314.9,38.4,318.5,34,320.9z"/>
	<path class="st12" d="M90.2,270.2c1.6-4.9,5.3-7.9,9.8-10.2c0.3,0.2,0.4,0.4,0.3,0.6c-0.1,0.2-0.2,0.3-0.3,0.3
		C97.1,264.4,94.3,267.9,90.2,270.2z"/>
	<path class="st13" d="M44.9,311c-0.3-0.3-0.6-0.6-0.9-1c3.9-2.8,6.4-7.2,11-9c0.3,0.2,0.4,0.5,0.3,0.7c-0.1,0.3-0.2,0.4-0.3,0.4
		C52.3,305.8,48.7,308.4,44.9,311z"/>
	<path class="st11" d="M147,215c2.8-2.7,5.7-5.3,8.5-8c0.8-0.7,1.6-1.2,2.5-0.2c-2.6,3.5-5.4,6.8-9.8,8.2
		C147.8,215.4,147.4,215.4,147,215z"/>
	<path class="st14" d="M125,236.9c2.4-4.3,5.2-8.1,10.1-9.8C131.6,230.2,130.1,235.4,125,236.9z"/>
	<path class="st15" d="M81,279c-0.3-0.1-0.9-0.1-0.9-0.2c0.1-2.6,5-6.8,7.9-6.9C86,274.7,83.6,277,81,279z"/>
	<path class="st16" d="M100.1,113.1c-3.4-3.1-7.5-5.4-9-10.1C94.4,106,98.5,108.4,100.1,113.1z"/>
	<path class="st17" d="M167,199c-0.7-0.1-1.9-0.2-1.1-1.3c1.2-1.5,2.4-3,4.2-3.7C170.3,196.4,168.9,197.9,167,199z"/>
	<path class="st9" d="M116.1,130c-3-1.4-5-3.8-6.1-6.9C112.9,124.6,114.7,127.1,116.1,130z"/>
	<path class="st18" d="M139,155c-3.1-0.3-4.2-2.5-4.9-5.1C136.1,151.2,137.8,152.9,139,155z"/>
	<path class="st19" d="M58,298c1.3-1.4,1.8-4.2,4.8-3c-0.6,1.8-1.8,2.9-3.7,3.1C58.7,298.4,58.4,298.4,58,298z"/>
	<path class="st16" d="M165.9,185c-2.5-0.8-3.9-2.7-4.8-5C163.5,180.8,165,182.5,165.9,185z"/>
	<path class="st20" d="M147,215c0.4,0,0.8,0,1.2,0.1c-0.4,1.9-1.5,3.1-3.2,3.8C143.7,216.6,145.6,215.9,147,215z"/>
	<path class="st21" d="M51,60c-2.1-1.4-3.9-2.9-5-5.2C48.7,55.5,50.7,57,51,60z"/>
	<path class="st22" d="M119.9,135c-2.2-1-3.1-3-3.9-5.1C118.6,130.6,119.5,132.6,119.9,135z"/>
	<path class="st21" d="M91.1,103c-2-1.2-3.8-2.4-4.1-5C89,99.1,90.8,100.4,91.1,103z"/>
	<path class="st16" d="M58.3,68c-2.3-1-4-2.4-4.4-5C56.2,64,57.7,65.6,58.3,68z"/>
	<path class="st17" d="M100,260.9c0-0.3,0-0.6,0-0.9c0.5-1,1.1-2.1,2.2-2.3c0.8-0.2,0.7,0.8,0.8,1.3C102,259.7,101,260.3,100,260.9z
		"/>
	<path class="st23" d="M58,298c0.4,0,0.8,0,1.1,0.1c-1.4,1.3-2.7,2.7-4.1,4c0-0.4,0-0.7,0-1.1C55.7,299.6,56.7,298.6,58,298z"/>
	<path class="st9" d="M74,85c-1.6-0.9-3-2-3-4.1C72.7,81.8,74.1,82.9,74,85z"/>
	<path class="st9" d="M71.1,80.9c-1.4-0.4-3.8-0.2-2.2-2.9C69.6,79,70.3,80,71.1,80.9z"/>
	<path class="st24" d="M45.1,53c-2.1-0.2-3.3-1.4-4-3.3C43,50.1,44.3,51.2,45.1,53z"/>
	<path class="st21" d="M128,143c-1.9-0.1-2.9-1-3-2.9C126.4,140.6,127.4,141.6,128,143z"/>
	<path class="st16" d="M134.1,150c-1.5-0.6-2.5-1.6-3.1-3.2C132.8,147.2,134.1,147.9,134.1,150z"/>
	<path class="st25" d="M80,91c-1.3-0.6-2.4-1.6-3-3C79.1,87.9,80,89,80,91z"/>
	<path class="st6" d="M286,48.7c0-7.1,5.9-12.8,13.2-12.7c5.4,0.1,11.8,7.4,11.8,13.4c0,7.5-6.1,14.5-12.9,14.6
		C291.2,64.1,286.1,57.6,286,48.7z"/>
	<path class="st26" d="M307,49.7c-0.1,6.1-3.9,10.4-9,10.2c-4.7-0.2-8.1-5.1-8-11.7c0.1-5.6,2.4-8.3,7-8.3
		C303.2,40,307.1,43.8,307,49.7z"/>
</g>
</svg>
